<?xml version="1.0" standalone="no"?>
<!DOCTYPE svg PUBLIC "-//W3C//DTD SVG 20010904//EN"
 "http://www.w3.org/TR/2001/REC-SVG-20010904/DTD/svg10.dtd">
<svg version="1.0" xmlns="http://www.w3.org/2000/svg"
 width="2640.000000pt" height="1512.000000pt" viewBox="0 0 2640.000000 1512.000000"
 preserveAspectRatio="xMidYMid meet">

<g transform="translate(0.000000,1512.000000) scale(0.100000,-0.100000)"
fill="#000000" stroke="none">
<path d="M2768 14954 c-29 -15 -37 -34 -15 -34 20 0 50 25 46 38 -3 7 -13 6
-31 -4z"/>
<path d="M2430 14940 c0 -13 7 -20 20 -20 13 0 20 7 20 20 0 13 -7 20 -20 20
-13 0 -20 -7 -20 -20z"/>
<path d="M2560 14940 c0 -13 7 -20 20 -20 13 0 20 7 20 20 0 13 -7 20 -20 20
-13 0 -20 -7 -20 -20z"/>
<path d="M710 14861 c0 -85 1 -91 20 -91 20 0 21 5 18 87 -3 74 -6 88 -20 91
-16 3 -18 -6 -18 -87z"/>
<path d="M1320 14922 c0 -26 -3 -28 -33 -24 -41 5 -61 -16 -61 -63 0 -50 17
-64 80 -64 l54 1 0 89 c0 82 -1 89 -20 89 -15 0 -20 -7 -20 -28z m-2 -75 c5
-23 -15 -47 -33 -41 -20 8 -27 34 -14 51 16 18 43 13 47 -10z"/>
<path d="M2270 14861 l0 -88 55 -1 c45 0 58 3 70 21 37 52 -6 127 -61 107 -22
-9 -24 -7 -24 20 0 23 -4 30 -20 30 -18 0 -20 -7 -20 -89z m95 -12 c5 -14 1
-27 -9 -37 -15 -15 -17 -15 -32 0 -20 20 -10 58 16 58 10 0 22 -10 25 -21z"/>
<path d="M2500 14861 c0 -85 1 -91 20 -91 20 0 21 5 18 87 -3 74 -6 88 -20 91
-16 3 -18 -6 -18 -87z"/>
<path d="M247 14863 c-15 -43 -27 -81 -27 -85 0 -15 38 -8 44 7 3 9 18 15 35
15 16 0 31 -6 35 -15 5 -15 46 -22 45 -7 0 4 -12 41 -28 82 -23 63 -31 75 -52
78 -22 3 -27 -5 -52 -75z m66 -13 c4 -15 0 -20 -15 -20 -14 0 -18 5 -14 16 3
9 6 20 6 25 0 17 17 1 23 -21z"/>
<path d="M1580 14855 c0 -77 2 -85 19 -85 15 0 21 8 23 33 l3 32 18 -32 c11
-20 25 -33 37 -33 24 0 25 8 3 39 -15 22 -15 25 -1 35 16 12 21 27 19 57 -1
20 -43 39 -86 39 l-35 0 0 -85z m78 28 c-5 -26 -38 -29 -38 -4 0 15 6 21 21
21 14 0 19 -5 17 -17z"/>
<path d="M2027 14913 c-6 -31 5 -111 17 -131 10 -17 56 -15 56 2 0 8 -7 16
-15 20 -9 3 -15 18 -15 36 0 20 5 30 15 30 8 0 15 6 15 14 0 8 -7 16 -15 20
-8 3 -15 12 -15 21 0 28 -37 17 -43 -12z"/>
<path d="M2627 14913 c-6 -31 5 -111 17 -131 10 -17 56 -15 56 2 0 8 -7 16
-15 20 -9 3 -15 18 -15 36 0 20 5 30 15 30 8 0 15 6 15 14 0 8 -7 16 -15 20
-8 3 -15 12 -15 21 0 28 -37 17 -43 -12z"/>
<path d="M950 14902 c-46 -14 -43 -64 5 -76 39 -10 31 -28 -10 -20 -39 7 -43
3 -19 -20 18 -19 65 -21 82 -4 23 23 13 48 -23 64 -19 8 -35 17 -35 20 0 3 16
2 35 -2 36 -6 46 5 23 23 -19 15 -41 21 -58 15z"/>
<path d="M1090 14902 c-31 -10 -50 -36 -50 -67 0 -54 51 -81 101 -55 31 17 22
32 -18 28 -22 -2 -38 2 -40 10 -3 8 9 12 41 12 38 0 46 3 46 18 0 31 -49 64
-80 54z m35 -42 c4 -6 -5 -10 -20 -10 -15 0 -24 4 -20 10 3 6 12 10 20 10 8 0
17 -4 20 -10z"/>
<path d="M1420 14897 c-13 -7 -29 -25 -34 -40 -22 -61 66 -114 110 -66 l19 21
-39 -3 c-25 -3 -41 0 -43 9 -3 8 9 12 42 12 43 0 46 1 40 23 -14 45 -55 64
-95 44z m50 -37 c0 -5 -9 -10 -20 -10 -11 0 -20 5 -20 10 0 6 9 10 20 10 11 0
20 -4 20 -10z"/>
<path d="M1770 14902 c-31 -10 -50 -36 -50 -67 0 -54 51 -81 101 -55 31 17 22
32 -18 28 -22 -2 -38 2 -40 10 -3 8 9 12 41 12 38 0 46 3 46 18 0 31 -49 64
-80 54z m35 -42 c4 -6 -5 -10 -20 -10 -15 0 -24 4 -20 10 3 6 12 10 20 10 8 0
17 -4 20 -10z"/>
<path d="M2150 14903 c-24 -8 -40 -35 -40 -68 0 -45 25 -63 88 -63 l52 0 0 64
0 63 -33 -1 c-19 -1 -38 1 -43 4 -5 3 -16 3 -24 1z m54 -56 c9 -15 7 -21 -8
-32 -22 -17 -46 -4 -46 25 0 35 34 39 54 7z"/>
<path d="M2760 14902 c-31 -10 -50 -36 -50 -67 0 -54 51 -81 101 -55 31 17 22
32 -18 28 -22 -2 -38 2 -40 10 -3 8 9 12 41 12 38 0 46 3 46 18 0 31 -49 64
-80 54z m35 -42 c4 -6 -5 -10 -20 -10 -15 0 -24 4 -20 10 3 6 12 10 20 10 8 0
17 -4 20 -10z"/>
<path d="M400 14834 c0 -57 2 -64 20 -64 17 0 20 7 20 45 0 33 5 47 16 52 21
8 34 -14 34 -59 0 -31 4 -38 20 -38 17 0 20 7 20 46 0 71 -11 83 -75 83 l-55
-1 0 -64z"/>
<path d="M559 14884 c-17 -20 -17 -78 0 -98 9 -10 30 -15 67 -15 l54 1 0 63 0
63 -54 1 c-37 0 -58 -5 -67 -15z m79 -37 c5 -23 -15 -47 -33 -41 -20 8 -27 34
-14 51 16 18 43 13 47 -10z"/>
<path d="M760 14897 c0 -2 11 -31 25 -65 24 -58 24 -64 10 -92 -15 -29 -15
-30 7 -30 19 0 28 13 55 78 49 116 48 112 25 112 -14 0 -25 -12 -35 -37 l-15
-38 -16 38 c-11 25 -23 37 -36 37 -11 0 -20 -1 -20 -3z"/>
<path d="M1870 14834 c0 -57 2 -64 20 -64 17 0 20 7 20 45 0 33 5 47 16 52 21
8 34 -14 34 -59 0 -31 4 -38 20 -38 17 0 20 7 20 46 0 71 -11 83 -75 83 l-55
-1 0 -64z"/>
<path d="M2430 14835 c0 -58 2 -65 20 -65 18 0 20 7 20 65 0 58 -2 65 -20 65
-18 0 -20 -7 -20 -65z"/>
<path d="M2560 14835 c0 -58 2 -65 20 -65 18 0 20 7 20 65 0 58 -2 65 -20 65
-18 0 -20 -7 -20 -65z"/>
<path d="M19675 14800 c-3 -5 -1 -10 4 -10 6 0 11 5 11 10 0 6 -2 10 -4 10 -3
0 -8 -4 -11 -10z"/>
<path d="M20665 14800 c-3 -5 -1 -10 4 -10 6 0 11 5 11 10 0 6 -2 10 -4 10 -3
0 -8 -4 -11 -10z"/>
<path d="M21690 14794 c0 -8 5 -12 10 -9 6 3 10 10 10 16 0 5 -4 9 -10 9 -5 0
-10 -7 -10 -16z"/>
<path d="M24380 14745 c0 -37 4 -65 10 -65 6 0 10 28 10 65 0 37 -4 65 -10 65
-6 0 -10 -28 -10 -65z"/>
<path d="M25100 14745 c0 -37 4 -65 10 -65 6 0 10 28 10 65 0 37 -4 65 -10 65
-6 0 -10 -28 -10 -65z"/>
<path d="M19540 14793 c51 -8 51 -9 26 -68 -14 -30 -21 -55 -17 -55 7 0 21 28
58 118 4 9 -8 12 -43 11 -27 -1 -38 -4 -24 -6z"/>
<path d="M20430 14790 c0 -5 4 -10 10 -10 5 0 11 -26 13 -57 l3 -58 2 68 c2
54 -1 67 -13 67 -8 0 -15 -4 -15 -10z"/>
<path d="M20528 14759 c-35 -50 -35 -59 2 -59 20 0 30 -5 30 -15 0 -20 18 -19
22 1 6 35 -4 114 -15 114 -7 -1 -24 -19 -39 -41z m32 -19 c0 -23 -4 -30 -20
-30 -24 0 -25 8 -4 38 20 29 24 28 24 -8z"/>
<path d="M21426 14784 c-5 -12 -2 -15 11 -9 31 11 37 10 41 -7 2 -11 -2 -18
-12 -18 -23 0 -19 -17 5 -23 12 -3 19 -12 17 -19 -6 -18 -39 -23 -49 -7 -4 7
-11 10 -15 6 -12 -11 17 -37 42 -37 23 0 49 31 36 44 -3 4 -6 24 -7 44 0 34
-3 37 -31 40 -22 2 -33 -2 -38 -14z"/>
<path d="M21542 14788 c-7 -7 -12 -30 -12 -53 0 -44 13 -65 41 -65 41 0 64 64
39 111 -12 21 -50 25 -68 7z m56 -43 c3 -37 -11 -60 -32 -52 -11 4 -16 19 -16
47 0 37 2 41 23 38 16 -2 23 -10 25 -33z"/>
<path d="M22462 14788 c-28 -28 -1 -75 39 -65 15 4 19 1 17 -11 -3 -12 -13
-16 -31 -15 -29 2 -37 -11 -11 -21 39 -15 65 28 54 89 -4 23 -11 31 -30 33
-14 2 -31 -3 -38 -10z m48 -13 c10 -12 10 -18 0 -29 -14 -18 -40 -10 -40 13 0
32 20 40 40 16z"/>
<path d="M22569 14773 c-17 -45 8 -103 45 -103 30 0 49 93 24 118 -22 22 -58
14 -69 -15z m66 -13 c3 -10 3 -30 -1 -45 -5 -19 -12 -25 -28 -23 -16 2 -22 11
-24 36 -5 55 38 80 53 32z"/>
<path d="M23913 14793 c13 -4 17 -15 17 -59 0 -30 5 -54 10 -54 6 0 10 24 10
54 0 44 4 55 18 59 9 3 -3 5 -28 5 -25 0 -37 -2 -27 -5z"/>
<path d="M25907 14788 c-2 -7 -1 -33 2 -58 4 -32 11 -46 24 -48 9 -2 17 1 17
7 0 6 -4 11 -10 11 -15 0 -12 58 2 62 9 3 8 9 -4 21 -20 20 -24 21 -31 5z"/>
<path d="M26190 14765 c-17 -18 -19 -25 -9 -25 8 0 20 5 27 12 9 9 15 9 24 0
7 -7 19 -12 27 -12 10 0 8 7 -9 25 -13 14 -26 25 -30 25 -4 0 -17 -11 -30 -25z"/>
<path d="M24018 14769 c-21 -12 -24 -59 -6 -77 20 -20 56 -14 74 13 15 23 15
27 0 50 -17 26 -40 31 -68 14z m56 -24 c8 -23 -4 -45 -25 -45 -22 0 -34 22
-25 45 3 8 14 15 25 15 10 0 21 -7 25 -15z"/>
<path d="M24120 14741 c0 -46 14 -60 58 -59 32 1 32 2 32 50 0 56 -17 65 -22
11 -2 -31 -7 -39 -25 -41 -21 -3 -23 1 -23 37 0 23 -4 41 -10 41 -5 0 -10 -17
-10 -39z"/>
<path d="M24240 14765 c-10 -12 -10 -18 0 -30 7 -8 18 -15 26 -15 7 0 16 -5
20 -12 5 -8 -2 -9 -24 -5 -38 8 -43 -10 -6 -19 17 -4 31 -1 41 8 13 13 13 17
-2 32 -9 9 -23 16 -31 16 -8 0 -14 5 -14 11 0 7 10 9 26 5 19 -5 25 -3 22 6
-7 19 -43 21 -58 3z"/>
<path d="M24438 14769 c-21 -12 -24 -59 -6 -77 17 -17 53 -15 68 3 11 13 8 14
-18 9 -17 -4 -32 -1 -36 5 -5 7 5 11 28 11 28 0 36 4 36 18 0 37 -36 52 -72
31z m47 -19 c4 -6 -5 -10 -20 -10 -15 0 -24 4 -20 10 3 6 12 10 20 10 8 0 17
-4 20 -10z"/>
<path d="M24540 14765 c-10 -12 -10 -18 0 -30 7 -8 18 -15 26 -15 7 0 16 -5
20 -12 5 -8 -2 -9 -24 -5 -38 8 -43 -10 -6 -19 17 -4 31 -1 41 8 13 13 13 17
-2 32 -9 9 -23 16 -31 16 -8 0 -14 5 -14 11 0 7 10 9 26 5 19 -5 25 -3 22 6
-7 19 -43 21 -58 3z"/>
<path d="M24684 14755 c-15 -23 -15 -27 0 -51 13 -18 24 -24 43 -22 15 2 28 9
31 15 2 9 -5 11 -27 7 -20 -4 -31 -2 -31 5 0 6 16 11 35 11 39 0 46 17 17 43
-26 24 -49 21 -68 -8z m61 -5 c4 -6 -5 -10 -19 -10 -14 0 -26 5 -26 10 0 6 9
10 19 10 11 0 23 -4 26 -10z"/>
<path d="M24790 14728 c0 -56 17 -65 22 -10 2 29 7 37 23 37 16 0 21 -8 23
-37 2 -21 7 -38 12 -38 5 0 10 17 12 38 2 29 7 37 23 37 16 0 21 -8 23 -37 2
-21 8 -38 13 -38 6 0 9 19 7 41 -4 50 -27 71 -58 52 -11 -8 -21 -9 -25 -3 -3
5 -21 9 -40 8 -35 -1 -35 -1 -35 -50z"/>
<path d="M24980 14703 c0 -42 4 -73 10 -73 6 0 10 13 10 29 0 25 3 28 27 23
18 -3 30 1 40 13 30 43 4 85 -52 83 l-35 -1 0 -74z m75 27 c0 -18 -6 -26 -23
-28 -24 -4 -38 18 -28 44 3 9 15 14 28 12 17 -2 23 -10 23 -28z"/>
<path d="M25154 14755 c-15 -23 -15 -27 0 -50 12 -19 24 -24 51 -23 35 1 35 1
35 48 0 47 0 47 -35 48 -27 1 -39 -4 -51 -23z m61 -25 c0 -29 -38 -41 -48 -16
-10 26 4 47 27 44 15 -2 21 -10 21 -28z"/>
<path d="M25274 14755 c-15 -23 -15 -27 0 -50 18 -28 47 -32 66 -10 11 13 8
14 -17 9 -33 -6 -48 12 -36 42 4 12 14 14 36 10 25 -5 28 -4 17 9 -19 22 -48
18 -66 -10z"/>
<path d="M25384 14755 c-15 -23 -15 -27 0 -51 13 -18 24 -24 43 -22 15 2 28 9
31 15 2 9 -5 11 -27 7 -20 -4 -31 -2 -31 5 0 6 16 11 35 11 39 0 46 17 17 43
-26 24 -49 21 -68 -8z m61 -5 c4 -6 -5 -10 -19 -10 -14 0 -26 5 -26 10 0 6 9
10 19 10 11 0 23 -4 26 -10z"/>
<path d="M25490 14728 c0 -56 17 -65 22 -10 2 29 7 37 23 37 16 0 21 -8 23
-37 2 -21 7 -38 12 -38 5 0 10 17 12 38 2 29 7 37 23 37 16 0 21 -8 23 -37 2
-21 8 -38 13 -38 6 0 9 19 7 41 -4 50 -27 71 -58 52 -11 -8 -21 -9 -25 -3 -3
5 -21 9 -40 8 -35 -1 -35 -1 -35 -50z"/>
<path d="M25688 14769 c-21 -12 -24 -59 -6 -77 17 -17 53 -15 68 3 11 13 8 14
-18 9 -17 -4 -32 -1 -36 5 -5 7 5 11 28 11 28 0 36 4 36 18 0 37 -36 52 -72
31z m47 -19 c4 -6 -5 -10 -20 -10 -15 0 -24 4 -20 10 3 6 12 10 20 10 8 0 17
-4 20 -10z"/>
<path d="M25780 14728 c0 -26 5 -48 10 -48 6 0 10 11 10 24 0 37 10 56 31 56
15 0 19 -7 19 -40 0 -22 5 -40 10 -40 14 0 12 76 -2 87 -7 6 -28 10 -45 10
-33 0 -33 -1 -33 -49z"/>
<path d="M25977 14773 c-16 -15 -6 -43 18 -49 14 -3 25 -11 25 -16 0 -6 -11
-7 -26 -4 -19 5 -25 3 -22 -6 3 -7 18 -13 34 -13 39 0 45 30 10 46 -33 16 -34
33 -1 25 27 -7 35 8 9 18 -20 8 -39 8 -47 -1z"/>
<path d="M19680 14712 c0 -32 -5 -63 -12 -70 -9 -9 -8 -12 5 -12 14 0 17 11
17 70 0 39 -2 70 -5 70 -3 0 -5 -26 -5 -58z"/>
<path d="M19740 14752 c-45 -36 -1 -99 50 -72 27 14 27 65 1 80 -25 13 -25 13
-51 -8z m58 -26 c5 -23 -23 -47 -44 -39 -15 5 -19 44 -7 57 13 13 48 1 51 -18z"/>
<path d="M19840 14732 c0 -46 13 -59 58 -59 31 0 32 2 32 43 0 54 -18 67 -22
17 -2 -31 -7 -39 -25 -41 -20 -3 -23 1 -23 32 0 19 -4 38 -10 41 -6 4 -10 -9
-10 -33z"/>
<path d="M19962 14715 c1 -44 2 -45 5 -12 2 21 11 41 19 44 21 8 17 19 -6 19
-18 0 -20 -6 -18 -51z"/>
<path d="M20032 14758 c-18 -18 -15 -26 19 -44 23 -11 28 -19 20 -27 -8 -8
-14 -8 -23 1 -18 18 -33 15 -18 -3 18 -22 54 -15 58 11 2 16 -4 23 -22 28 -15
3 -26 11 -26 17 0 7 10 9 25 5 27 -7 35 8 9 18 -22 8 -28 8 -42 -6z"/>
<path d="M20670 14712 c0 -32 -5 -63 -12 -70 -9 -9 -8 -12 5 -12 14 0 17 11
17 70 0 39 -2 70 -5 70 -3 0 -5 -26 -5 -58z"/>
<path d="M20728 14759 c-22 -12 -24 -62 -3 -79 23 -19 64 -4 71 27 5 20 2 31
-16 45 -25 21 -29 21 -52 7z m50 -32 c6 -28 -16 -49 -39 -36 -19 10 -25 39
-12 53 13 13 48 1 51 -17z"/>
<path d="M20827 14762 c-12 -18 1 -82 16 -84 65 -8 67 -7 66 47 l-1 50 -10
-43 c-8 -36 -13 -43 -31 -40 -17 2 -23 11 -27 43 -3 27 -8 36 -13 27z"/>
<path d="M20940 14719 c0 -27 5 -49 10 -49 6 0 10 16 10 35 0 22 6 38 15 41
23 9 18 19 -10 20 -23 2 -25 -1 -25 -47z"/>
<path d="M21023 14763 c-7 -2 -13 -13 -13 -24 0 -10 6 -19 13 -19 21 0 40 -17
32 -29 -5 -9 -10 -9 -21 0 -18 14 -32 3 -17 -12 15 -15 63 -3 63 16 0 8 -13
21 -30 30 -39 20 -38 29 1 21 27 -5 30 -4 19 9 -13 15 -25 17 -47 8z"/>
<path d="M21690 14706 c0 -42 -4 -66 -12 -69 -7 -2 -10 -7 -7 -11 3 -3 14 -4
23 0 13 5 16 20 16 75 0 39 -4 69 -10 69 -6 0 -10 -28 -10 -64z"/>
<path d="M21744 14745 c-15 -23 -15 -27 0 -50 30 -45 86 -28 86 27 0 49 -59
65 -86 23z m61 -25 c0 -29 -38 -41 -48 -16 -10 26 4 47 27 44 15 -2 21 -10 21
-28z"/>
<path d="M21850 14739 c0 -50 16 -69 55 -67 35 1 35 1 35 50 0 26 -4 48 -10
48 -5 0 -10 -18 -10 -40 0 -33 -4 -40 -19 -40 -21 0 -31 19 -31 56 0 13 -4 24
-10 24 -5 0 -10 -14 -10 -31z"/>
<path d="M21970 14719 c0 -27 5 -49 10 -49 6 0 10 16 10 35 0 22 6 38 15 41
23 9 18 22 -10 22 -23 0 -25 -4 -25 -49z"/>
<path d="M22047 14763 c-16 -15 -6 -43 18 -49 14 -3 25 -11 25 -16 0 -6 -11
-7 -26 -4 -19 5 -25 3 -22 -6 3 -7 18 -13 34 -13 39 0 45 30 10 46 -33 16 -34
33 -1 25 27 -7 35 8 9 18 -20 8 -39 8 -47 -1z"/>
<path d="M22730 14706 c0 -42 -4 -66 -12 -70 -7 -3 -4 -5 7 -3 17 2 20 11 23
70 2 42 -1 67 -8 67 -6 0 -10 -26 -10 -64z"/>
<path d="M22790 14752 c-45 -36 -1 -99 50 -72 27 14 27 65 1 80 -25 13 -25 13
-51 -8z m58 -26 c5 -23 -23 -47 -44 -39 -15 5 -19 44 -7 57 13 13 48 1 51 -18z"/>
<path d="M22890 14732 c0 -46 13 -59 58 -59 31 0 32 2 32 43 0 54 -18 67 -22
17 -2 -31 -7 -39 -25 -41 -20 -3 -23 1 -23 32 0 19 -4 38 -10 41 -6 4 -10 -9
-10 -33z"/>
<path d="M23012 14715 c1 -44 2 -45 5 -12 2 21 11 41 19 44 21 8 17 19 -6 19
-18 0 -20 -6 -18 -51z"/>
<path d="M23082 14758 c-18 -18 -15 -26 19 -44 23 -11 28 -19 20 -27 -8 -8
-14 -8 -23 1 -18 18 -33 15 -18 -3 18 -22 54 -15 58 11 2 16 -4 23 -22 28 -15
3 -26 11 -26 17 0 7 10 9 25 5 27 -7 35 8 9 18 -22 8 -28 8 -42 -6z"/>
<path d="M19113 14723 c20 -2 54 -2 75 0 20 2 3 4 -38 4 -41 0 -58 -2 -37 -4z"/>
<path d="M26193 14673 l27 -28 27 28 c19 19 23 27 12 27 -8 0 -20 -5 -27 -12
-9 -9 -15 -9 -24 0 -7 7 -19 12 -27 12 -11 0 -7 -8 12 -27z"/>
<path d="M19118 14633 c17 -2 47 -2 65 0 17 2 3 4 -33 4 -36 0 -50 -2 -32 -4z"/>
<path d="M2260 14606 c0 -2 9 -6 20 -9 11 -3 18 -1 14 4 -5 9 -34 13 -34 5z"/>
<path d="M3610 14584 c0 -15 -4 -23 -11 -19 -6 4 -5 -1 2 -13 23 -36 -14 -78
-46 -52 -22 18 -18 46 7 64 12 9 18 16 12 16 -25 0 -46 -27 -42 -54 4 -37 31
-55 57 -39 15 10 21 10 24 0 3 -7 6 18 6 56 1 37 -1 67 -4 67 -3 0 -5 -12 -5
-26z"/>
<path d="M4033 14545 c0 -38 2 -53 4 -32 2 20 2 52 0 70 -2 17 -4 1 -4 -38z"/>
<path d="M227 14588 c-7 -21 11 -45 38 -52 27 -7 34 -33 10 -42 -8 -4 -22 -1
-30 6 -10 8 -15 9 -15 2 0 -17 19 -24 46 -18 34 9 31 42 -6 61 -41 21 -41 50
0 41 19 -3 29 -2 25 4 -9 14 -63 12 -68 -2z"/>
<path d="M1589 14588 c-5 -55 12 -109 34 -107 9 0 9 2 0 6 -16 6 -17 83 -2 83
6 0 4 7 -5 15 -18 18 -26 19 -27 3z"/>
<path d="M1659 14590 c-5 -71 8 -110 36 -110 6 1 2 5 -7 11 -12 6 -18 22 -18
44 0 26 4 35 18 36 13 0 14 2 2 6 -8 3 -18 11 -22 17 -5 7 -8 6 -9 -4z"/>
<path d="M2349 14588 c-5 -55 12 -109 34 -107 9 0 9 2 0 6 -16 6 -17 83 -2 83
6 0 4 7 -5 15 -18 18 -26 19 -27 3z"/>
<path d="M2669 14590 c-5 -71 8 -110 36 -110 6 1 2 5 -7 11 -12 6 -18 22 -18
44 0 26 4 35 18 36 13 0 14 2 2 6 -8 3 -18 11 -22 17 -5 7 -8 6 -9 -4z"/>
<path d="M4239 14590 c-5 -71 8 -110 36 -110 6 1 2 5 -7 11 -12 6 -18 22 -18
44 0 26 4 35 18 36 13 0 14 2 2 6 -8 3 -18 11 -22 17 -5 7 -8 6 -9 -4z"/>
<path d="M332 14545 c-2 -43 11 -65 37 -65 11 0 9 4 -6 15 -14 10 -23 29 -26
53 l-4 37 -1 -40z"/>
<path d="M398 14534 c-2 -25 0 -48 4 -50 5 -3 8 18 8 45 0 64 -7 66 -12 5z"/>
<path d="M453 14530 c0 -30 2 -43 4 -27 2 15 2 39 0 55 -2 15 -4 2 -4 -28z"/>
<path d="M480 14577 c0 -11 39 -97 45 -97 8 0 46 92 41 98 -3 3 -10 -8 -16
-24 -6 -16 -13 -36 -16 -44 -5 -10 -12 -4 -24 22 -16 37 -30 57 -30 45z"/>
<path d="M608 14569 c-21 -12 -24 -59 -6 -77 17 -17 43 -15 59 5 13 15 12 15
-7 3 -48 -30 -78 32 -32 64 25 18 13 21 -14 5z"/>
<path d="M718 14573 c27 -5 27 -8 4 -41 -36 -52 -36 -52 5 -51 34 1 35 2 10 8
l-27 6 25 37 c14 20 25 39 25 42 0 4 -15 5 -32 5 -24 -1 -27 -3 -10 -6z"/>
<path d="M820 14577 c0 -11 39 -97 45 -97 8 0 46 92 41 98 -3 3 -10 -8 -16
-24 -6 -16 -13 -36 -16 -44 -5 -10 -12 -4 -24 22 -16 37 -30 57 -30 45z"/>
<path d="M948 14569 c-25 -14 -23 -65 2 -79 47 -25 93 32 55 68 -16 16 -17 16
-6 -5 21 -41 -17 -81 -47 -51 -19 19 -14 45 10 62 25 18 13 21 -14 5z"/>
<path d="M1053 14569 c-6 -6 -9 -18 -6 -25 8 -22 22 -16 16 6 -6 23 15 28 35
8 8 -8 12 -8 12 -1 0 10 -22 23 -39 23 -4 0 -12 -5 -18 -11z"/>
<path d="M1191 14527 c1 -52 1 -52 9 -13 4 21 13 41 19 46 9 5 6 9 -8 13 -19
5 -21 1 -20 -46z"/>
<path d="M1270 14562 c-18 -14 -21 -25 -16 -45 7 -31 48 -46 71 -27 21 18 11
24 -13 9 -16 -10 -24 -10 -35 -1 -17 15 -11 58 10 67 18 6 45 -13 37 -26 -3
-5 0 -9 5 -9 18 0 12 29 -8 40 -25 13 -25 13 -51 -8z"/>
<path d="M1416 14565 c10 -8 24 -14 29 -14 6 0 1 6 -9 14 -11 8 -24 15 -30 15
-5 0 -1 -7 10 -15z"/>
<path d="M1490 14562 c-18 -14 -21 -25 -16 -45 7 -31 48 -46 71 -27 21 18 11
24 -13 9 -16 -10 -24 -10 -35 -1 -17 15 -11 58 10 67 18 6 45 -13 37 -26 -3
-5 0 -9 5 -9 18 0 12 29 -8 40 -25 13 -25 13 -51 -8z"/>
<path d="M1738 14569 c-21 -12 -24 -59 -6 -77 17 -17 43 -15 59 5 13 15 12 15
-7 3 -48 -30 -78 32 -32 64 25 18 13 21 -14 5z"/>
<path d="M1843 14573 c-21 -8 -15 -33 12 -45 26 -12 34 -38 12 -38 -7 0 -19 6
-26 13 -11 10 -13 9 -9 -3 6 -19 35 -25 53 -10 19 16 9 37 -21 44 -13 4 -24
11 -24 16 0 15 21 23 33 11 17 -17 31 -13 17 4 -13 15 -25 17 -47 8z"/>
<path d="M2028 14569 c-21 -12 -24 -59 -6 -77 17 -17 43 -15 59 5 13 15 12 15
-7 3 -28 -18 -54 -6 -54 23 0 36 23 52 52 36 21 -11 22 -11 9 4 -15 19 -29 21
-53 6z"/>
<path d="M2138 14569 c-25 -14 -23 -65 2 -79 47 -25 93 32 55 68 -16 16 -17
16 -6 -5 21 -41 -17 -81 -47 -51 -19 19 -14 45 10 62 25 18 13 21 -14 5z"/>
<path d="M2242 14538 c-2 -50 -2 -50 51 -52 26 -2 27 0 26 49 -1 50 -1 50 -9
12 -14 -74 -56 -77 -63 -5 l-4 43 -1 -47z"/>
<path d="M2423 14569 c-6 -6 -9 -18 -6 -25 8 -22 22 -16 16 6 -6 23 15 28 35
8 8 -8 12 -8 12 -1 0 10 -22 23 -39 23 -4 0 -12 -5 -18 -11z"/>
<path d="M2570 14562 c-18 -14 -21 -25 -16 -45 7 -31 48 -46 71 -27 21 18 11
24 -13 9 -16 -10 -24 -10 -35 -1 -17 15 -11 58 10 67 18 6 45 -13 37 -26 -3
-5 0 -9 5 -9 18 0 12 29 -8 40 -25 13 -25 13 -51 -8z"/>
<path d="M2781 14525 l1 -50 8 38 c8 45 21 60 43 51 12 -4 17 -19 18 -48 l1
-41 7 35 c4 20 11 42 16 49 5 10 4 12 -4 7 -6 -4 -17 -3 -24 2 -7 6 -24 10
-39 9 -27 -2 -28 -4 -27 -52z"/>
<path d="M2903 14566 c11 -8 17 -27 17 -50 0 -20 5 -36 11 -36 15 0 3 82 -14
92 -21 13 -33 8 -14 -6z"/>
<path d="M2977 14562 c-35 -38 -15 -75 42 -78 l41 -2 0 43 c0 37 -3 44 -19 42
-15 -1 -16 -4 -8 -18 23 -36 -24 -78 -49 -44 -19 25 -18 31 8 55 12 11 17 20
11 20 -5 0 -17 -8 -26 -18z"/>
<path d="M3091 14527 c1 -52 1 -52 9 -13 4 21 13 41 19 46 9 5 6 9 -8 13 -19
5 -21 1 -20 -46z"/>
<path d="M3165 14560 c-34 -38 12 -102 50 -70 13 10 15 8 15 -13 0 -30 -23
-41 -53 -26 -21 10 -21 10 -3 -5 24 -19 27 -20 51 -2 13 9 20 30 23 69 4 51 3
56 -16 54 -16 -1 -18 -4 -9 -18 23 -36 -24 -78 -49 -44 -19 25 -18 31 8 55 12
11 17 20 11 20 -5 0 -18 -9 -28 -20z"/>
<path d="M3290 14562 c-18 -14 -21 -25 -16 -45 7 -31 48 -46 71 -27 21 18 11
24 -13 9 -16 -10 -24 -10 -35 -1 -17 15 -11 58 10 67 18 6 45 -13 37 -26 -3
-5 0 -9 5 -9 18 0 12 29 -8 40 -25 13 -25 13 -51 -8z"/>
<path d="M3403 14573 c-21 -8 -15 -33 12 -45 26 -12 34 -38 12 -38 -7 0 -19 6
-26 13 -11 10 -13 9 -9 -3 6 -19 35 -25 53 -10 19 16 9 37 -21 44 -13 4 -24
11 -24 16 0 15 21 23 33 11 17 -17 31 -13 17 4 -13 15 -25 17 -47 8z"/>
<path d="M3666 14567 c-40 -30 1 -106 43 -80 15 10 21 10 24 0 3 -7 5 13 5 43
0 30 -2 49 -5 42 -2 -6 -9 -9 -15 -6 -5 3 -4 -3 3 -14 23 -36 -14 -78 -46 -52
-22 18 -18 46 7 64 12 9 18 16 12 16 -6 0 -18 -6 -28 -13z"/>
<path d="M3782 14525 c1 -49 2 -49 5 -8 7 71 58 67 66 -5 l4 -37 1 41 c2 47
-11 63 -50 61 -27 -2 -28 -4 -26 -52z"/>
<path d="M3903 14573 c-21 -8 -15 -33 12 -45 26 -12 34 -38 12 -38 -7 0 -19 6
-26 13 -11 10 -13 9 -9 -3 6 -19 35 -25 53 -10 19 16 9 37 -21 44 -13 4 -24
11 -24 16 0 15 21 23 33 11 17 -17 31 -13 17 4 -13 15 -25 17 -47 8z"/>
<path d="M4090 14562 c-18 -14 -21 -25 -16 -45 7 -31 48 -46 71 -27 21 18 11
24 -13 9 -16 -10 -24 -10 -35 -1 -17 15 -11 58 10 67 18 6 45 -13 37 -26 -3
-5 0 -9 5 -9 18 0 12 29 -8 40 -25 13 -25 13 -51 -8z"/>
<path d="M4318 14569 c-21 -12 -24 -59 -6 -77 17 -17 43 -15 59 5 13 15 12 15
-7 3 -48 -30 -78 32 -32 64 25 18 13 21 -14 5z"/>
<path d="M4411 14525 l1 -50 8 38 c8 45 21 60 43 51 12 -4 17 -19 18 -48 l1
-41 7 35 c4 20 11 42 16 49 5 10 4 12 -4 7 -6 -4 -17 -3 -24 2 -7 6 -24 10
-39 9 -27 -2 -28 -4 -27 -52z"/>
<path d="M4533 14566 c11 -8 17 -27 17 -50 0 -20 5 -36 11 -36 15 0 3 82 -14
92 -21 13 -33 8 -14 -6z"/>
<path d="M4602 14510 c1 -41 3 -60 5 -42 4 28 7 31 19 21 11 -9 21 -9 39 -1
32 15 35 66 6 82 -30 15 -38 12 -13 -6 25 -18 29 -46 7 -64 -32 -26 -69 16
-46 52 7 11 8 17 3 14 -6 -3 -13 0 -15 6 -3 7 -5 -21 -5 -62z"/>
<path d="M4733 14573 c-21 -8 -15 -33 12 -45 26 -12 34 -38 12 -38 -7 0 -19 6
-26 13 -11 10 -13 9 -9 -3 6 -19 35 -25 53 -10 19 16 9 37 -21 44 -13 4 -24
11 -24 16 0 15 21 23 33 11 17 -17 31 -13 17 4 -13 15 -25 17 -47 8z"/>
<path d="M657 14550 c3 -11 9 -20 15 -20 5 0 4 9 -2 20 -6 11 -12 20 -14 20
-2 0 -2 -9 1 -20z"/>
<path d="M1370 14555 c-18 -22 -4 -64 25 -71 25 -6 45 1 45 17 0 5 -9 4 -19
-3 -36 -22 -69 30 -39 60 7 7 9 12 6 12 -3 0 -11 -7 -18 -15z"/>
<path d="M1787 14550 c3 -11 9 -20 15 -20 5 0 4 9 -2 20 -6 11 -12 20 -14 20
-2 0 -2 -9 1 -20z"/>
<path d="M4367 14550 c3 -11 9 -20 15 -20 5 0 4 9 -2 20 -6 11 -12 20 -14 20
-2 0 -2 -9 1 -20z"/>
<path d="M1090 14521 c12 -8 12 -13 2 -23 -10 -10 -17 -10 -35 1 -20 13 -21
13 -8 -3 19 -22 56 -17 56 8 0 11 -7 21 -15 23 -13 4 -13 3 0 -6z"/>
<path d="M2460 14521 c12 -8 12 -13 2 -23 -10 -10 -17 -10 -35 1 -20 13 -21
13 -8 -3 19 -22 56 -17 56 8 0 11 -7 21 -15 23 -13 4 -13 3 0 -6z"/>
<path d="M1917 14480 c-3 -11 -3 -20 -1 -20 2 0 8 9 14 20 6 11 7 20 2 20 -6
0 -12 -9 -15 -20z"/>
<path d="M4810 14489 c0 -5 5 -7 10 -4 6 3 10 8 10 11 0 2 -4 4 -10 4 -5 0
-10 -5 -10 -11z"/>
<path d="M770 13744 c0 -8 5 -12 10 -9 6 3 10 10 10 16 0 5 -4 9 -10 9 -5 0
-10 -7 -10 -16z"/>
<path d="M821 13738 c-9 -28 -2 -118 10 -118 5 0 9 17 10 38 1 20 2 52 4 70 3
37 -12 43 -24 10z"/>
<path d="M881 13738 c-9 -28 -2 -118 10 -118 5 0 9 17 10 38 1 20 2 52 4 70 3
37 -12 43 -24 10z"/>
<path d="M1281 13744 c0 -11 3 -14 6 -6 3 7 2 16 -1 19 -3 4 -6 -2 -5 -13z"/>
<path d="M1447 13738 c-9 -15 -12 -40 -9 -70 5 -58 22 -64 22 -9 0 22 5 42 13
44 9 4 8 8 -3 17 -11 9 -12 13 -2 17 14 6 16 23 2 23 -5 0 -16 -10 -23 -22z"/>
<path d="M1507 13738 c-9 -15 -12 -40 -9 -70 5 -58 22 -64 22 -9 0 22 5 42 13
44 9 4 8 8 -3 17 -11 9 -12 13 -2 17 14 6 16 23 2 23 -5 0 -16 -10 -23 -22z"/>
<path d="M1686 13751 c-4 -5 -2 -12 3 -15 5 -4 12 -2 15 3 4 5 2 12 -3 15 -5
4 -12 2 -15 -3z"/>
<path d="M22040 13744 c0 -8 5 -12 10 -9 6 3 10 10 10 16 0 5 -4 9 -10 9 -5 0
-10 -7 -10 -16z"/>
<path d="M22114 13745 c11 -8 22 -12 25 -9 6 6 -19 24 -34 24 -5 -1 -1 -7 9
-15z"/>
<path d="M537 13729 c-49 -38 -26 -109 35 -109 14 0 31 7 38 15 18 21 6 29
-19 13 -27 -17 -55 -1 -59 35 -4 33 28 53 59 37 22 -12 39 -6 23 9 -22 21 -52
21 -77 0z"/>
<path d="M650 13685 c0 -69 17 -90 22 -27 2 29 7 37 23 37 16 0 21 -8 23 -37
4 -50 22 -49 22 1 0 43 -19 66 -50 58 -15 -4 -20 0 -20 14 0 10 -4 19 -10 19
-6 0 -10 -28 -10 -65z"/>
<path d="M1230 13731 c0 -14 -6 -17 -24 -14 -18 4 -29 -2 -41 -21 -16 -24 -16
-28 -1 -51 12 -19 24 -24 51 -23 l35 1 0 64 c0 35 -4 63 -10 63 -5 0 -10 -8
-10 -19z m-5 -61 c0 -18 -6 -26 -21 -28 -23 -3 -37 18 -27 44 10 25 48 13 48
-16z"/>
<path d="M1331 13689 c-20 -60 -20 -93 0 -56 12 21 55 23 63 2 3 -8 10 -15 15
-15 14 0 -31 122 -45 127 -7 2 -21 -23 -33 -58z m46 -25 c-3 -3 -12 -4 -20 -2
-11 2 -12 9 -5 28 l10 25 11 -23 c5 -12 8 -25 4 -28z"/>
<path d="M7117 13729 c-49 -38 -26 -109 35 -109 14 0 31 7 38 15 18 21 6 29
-19 13 -27 -17 -55 -1 -59 35 -4 33 28 53 59 37 22 -12 39 -6 23 9 -22 21 -52
21 -77 0z"/>
<path d="M7366 13741 c-3 -5 5 -8 19 -7 14 0 25 4 25 9 0 10 -38 9 -44 -2z"/>
<path d="M7570 13740 c0 -5 7 -10 15 -10 12 0 15 -13 15 -55 0 -30 5 -55 10
-55 6 0 10 25 10 55 0 42 3 55 15 55 8 0 15 5 15 10 0 6 -18 10 -40 10 -22 0
-40 -4 -40 -10z"/>
<path d="M7980 13685 c0 -37 4 -65 10 -65 6 0 10 28 10 65 0 37 -4 65 -10 65
-6 0 -10 -28 -10 -65z"/>
<path d="M14710 13685 c0 -37 4 -65 10 -65 6 0 10 28 10 65 0 37 -4 65 -10 65
-6 0 -10 -28 -10 -65z"/>
<path d="M21990 13685 c0 -37 4 -65 10 -65 6 0 10 28 10 65 0 37 -4 65 -10 65
-6 0 -10 -28 -10 -65z"/>
<path d="M7467 13728 c-2 -7 -1 -33 2 -58 4 -32 11 -46 24 -48 9 -2 17 1 17 7
0 6 -4 11 -10 11 -15 0 -12 58 2 62 9 3 8 9 -4 21 -20 20 -24 21 -31 5z"/>
<path d="M7797 13728 c-2 -7 -1 -33 2 -58 4 -32 11 -46 24 -48 9 -2 17 1 17 7
0 6 -4 11 -10 11 -15 0 -12 58 2 62 9 3 8 9 -4 21 -20 20 -24 21 -31 5z"/>
<path d="M12685 13729 c-4 -6 -5 -12 -2 -15 2 -3 7 2 10 11 7 17 1 20 -8 4z"/>
<path d="M13670 13680 c0 -66 17 -83 22 -22 l3 37 20 -37 c10 -21 22 -38 25
-38 4 0 14 15 23 33 l16 32 0 -32 c1 -22 6 -33 16 -33 12 0 15 13 15 60 0 73
-21 82 -46 20 -9 -22 -19 -40 -24 -40 -4 0 -15 18 -25 40 -27 60 -45 52 -45
-20z"/>
<path d="M14308 13730 c19 -8 22 -17 22 -60 0 -27 5 -50 10 -50 6 0 10 24 10
54 0 44 4 55 18 59 9 3 -5 5 -33 5 -39 1 -45 -1 -27 -8z"/>
<path d="M14517 13726 c-3 -8 -4 -22 -2 -33 14 -70 16 -73 38 -73 20 1 21 2 5
14 -22 16 -24 66 -3 66 8 0 15 5 15 10 0 6 -7 10 -15 10 -8 0 -15 5 -15 10 0
15 -17 12 -23 -4z"/>
<path d="M20250 13680 c0 -66 17 -83 22 -22 l3 37 20 -37 c10 -21 22 -38 25
-38 4 0 14 15 23 33 l16 32 0 -32 c1 -22 6 -33 16 -33 12 0 15 13 15 60 0 73
-21 82 -46 20 -9 -22 -19 -40 -24 -40 -4 0 -15 18 -25 40 -27 60 -45 52 -45
-20z"/>
<path d="M20880 13680 c0 -33 4 -60 10 -60 6 0 10 17 10 38 l1 37 20 -37 c11
-21 22 -38 24 -38 2 0 13 17 24 38 l20 37 1 -37 c0 -21 5 -38 10 -38 6 0 10
27 10 60 0 74 -17 79 -46 12 l-20 -47 -20 48 c-27 66 -44 61 -44 -13z"/>
<path d="M21398 13693 c-3 -46 -4 -48 -32 -45 -26 3 -28 1 -17 -12 18 -22 48
-20 61 3 13 25 13 101 1 101 -6 0 -11 -21 -13 -47z"/>
<path d="M770 13670 c0 -27 5 -50 10 -50 6 0 10 23 10 50 0 28 -4 50 -10 50
-5 0 -10 -22 -10 -50z"/>
<path d="M930 13669 c0 -27 5 -49 10 -49 6 0 10 13 10 29 0 16 7 34 15 41 21
18 19 25 -10 26 -23 2 -25 -1 -25 -47z"/>
<path d="M1018 13709 c-21 -12 -24 -59 -6 -77 17 -17 53 -15 68 3 11 13 8 14
-18 9 -17 -4 -32 -1 -36 5 -5 7 5 11 28 11 28 0 36 4 36 18 0 37 -36 52 -72
31z m47 -19 c4 -6 -5 -10 -20 -10 -15 0 -24 4 -20 10 3 6 12 10 20 10 8 0 17
-4 20 -10z"/>
<path d="M1564 13695 c-15 -23 -15 -27 0 -50 12 -19 24 -24 51 -23 35 1 35 1
35 48 0 47 0 47 -35 48 -27 1 -39 -4 -51 -23z m61 -25 c0 -18 -6 -26 -21 -28
-23 -3 -37 18 -27 44 10 25 48 13 48 -16z"/>
<path d="M1680 13670 c0 -27 5 -50 10 -50 6 0 10 23 10 50 0 28 -4 50 -10 50
-5 0 -10 -22 -10 -50z"/>
<path d="M1730 13669 c0 -27 5 -49 10 -49 6 0 10 16 10 35 0 22 6 38 15 41 23
9 18 22 -10 22 -23 0 -25 -4 -25 -49z"/>
<path d="M1804 13695 c-15 -23 -15 -27 0 -51 13 -18 24 -24 43 -22 15 2 28 9
31 15 2 9 -5 11 -27 7 -20 -4 -31 -2 -31 5 0 6 16 11 35 11 39 0 46 17 19 44
-23 23 -51 20 -70 -9z m56 -5 c0 -5 -9 -10 -20 -10 -11 0 -20 5 -20 10 0 6 9
10 20 10 11 0 20 -4 20 -10z"/>
<path d="M1917 13713 c-16 -15 -6 -43 18 -49 14 -3 25 -11 25 -16 0 -6 -11 -7
-26 -4 -19 5 -25 3 -22 -6 3 -7 18 -13 34 -13 39 0 45 30 10 46 -33 16 -34 33
-1 25 27 -7 35 8 9 18 -20 8 -39 8 -47 -1z"/>
<path d="M7234 13695 c-15 -23 -15 -27 0 -50 30 -45 86 -28 86 27 0 49 -59 65
-86 23z m61 -25 c0 -29 -38 -41 -48 -16 -10 26 4 47 27 44 15 -2 21 -10 21
-28z"/>
<path d="M7340 13689 c0 -50 16 -69 55 -67 35 1 35 1 35 50 0 26 -4 48 -10 48
-5 0 -10 -18 -10 -40 0 -33 -4 -40 -19 -40 -21 0 -31 19 -31 56 0 13 -4 24
-10 24 -5 0 -10 -14 -10 -31z"/>
<path d="M7684 13695 c-15 -23 -15 -27 0 -50 30 -45 86 -28 86 27 0 49 -59 65
-86 23z m61 -25 c0 -29 -38 -41 -48 -16 -10 26 4 47 27 44 15 -2 21 -10 21
-28z"/>
<path d="M7864 13695 c-15 -23 -15 -27 0 -50 12 -19 24 -24 51 -23 35 1 35 1
35 48 0 47 0 47 -35 48 -27 1 -39 -4 -51 -23z m61 -25 c0 -18 -6 -26 -21 -28
-23 -3 -37 18 -27 44 10 25 48 13 48 -16z"/>
<path d="M13834 13695 c-15 -23 -15 -27 0 -50 12 -19 24 -24 51 -23 35 1 35 1
35 48 0 47 0 47 -35 48 -27 1 -39 -4 -51 -23z m61 -25 c0 -18 -6 -26 -21 -28
-23 -3 -37 18 -27 44 10 25 48 13 48 -16z"/>
<path d="M13950 13669 c0 -27 5 -49 10 -49 6 0 10 13 10 29 0 16 7 34 15 41
21 18 19 25 -10 26 -23 2 -25 -1 -25 -47z"/>
<path d="M14024 13695 c-15 -23 -15 -27 1 -51 12 -19 23 -25 41 -21 16 3 24 0
24 -10 0 -20 -28 -27 -45 -13 -22 18 -32 3 -12 -17 13 -13 23 -15 44 -7 26 9
28 13 31 75 l3 66 -36 1 c-27 1 -39 -4 -51 -23z m61 -25 c0 -18 -6 -26 -21
-28 -23 -3 -37 18 -27 44 10 25 48 13 48 -16z"/>
<path d="M14158 13709 c-21 -12 -24 -59 -6 -77 17 -17 53 -15 68 3 11 13 8 14
-18 9 -17 -4 -32 -1 -36 5 -5 7 5 11 28 11 28 0 36 4 36 18 0 37 -36 52 -72
31z m47 -19 c4 -6 -5 -10 -20 -10 -15 0 -24 4 -20 10 3 6 12 10 20 10 8 0 17
-4 20 -10z"/>
<path d="M14418 13709 c-21 -12 -24 -59 -6 -77 20 -20 56 -14 74 13 15 23 15
27 0 50 -17 26 -40 31 -68 14z m56 -24 c8 -23 -4 -45 -25 -45 -22 0 -34 22
-25 45 3 8 14 15 25 15 10 0 21 -7 25 -15z"/>
<path d="M14597 13708 c-20 -11 -23 -61 -4 -77 8 -6 30 -10 50 -9 l37 1 0 47
c0 45 -1 46 -33 47 -18 0 -41 -3 -50 -9z m57 -23 c8 -23 -4 -45 -25 -45 -22 0
-34 22 -25 45 3 8 14 15 25 15 10 0 21 -7 25 -15z"/>
<path d="M14768 13709 c-21 -12 -24 -59 -6 -77 17 -17 53 -15 68 3 11 13 8 14
-18 9 -17 -4 -32 -1 -36 5 -5 7 5 11 28 11 28 0 36 4 36 18 0 37 -36 52 -72
31z m47 -19 c4 -6 -5 -10 -20 -10 -15 0 -24 4 -20 10 3 6 12 10 20 10 8 0 17
-4 20 -10z"/>
<path d="M20414 13695 c-15 -23 -15 -27 0 -50 12 -19 24 -24 51 -23 35 1 35 1
35 48 0 47 0 47 -35 48 -27 1 -39 -4 -51 -23z m61 -25 c0 -29 -38 -41 -48 -16
-10 26 4 47 27 44 15 -2 21 -10 21 -28z"/>
<path d="M20530 13669 c0 -27 5 -49 10 -49 6 0 10 13 10 29 0 16 7 34 15 41
21 18 19 25 -10 26 -23 2 -25 -1 -25 -47z"/>
<path d="M20604 13695 c-15 -23 -15 -27 1 -51 12 -19 23 -25 41 -21 16 3 24 0
24 -10 0 -20 -28 -27 -45 -13 -22 18 -32 3 -12 -17 13 -13 23 -15 44 -7 26 9
28 13 31 75 l3 66 -36 1 c-27 1 -39 -4 -51 -23z m61 -25 c0 -29 -38 -41 -48
-16 -10 26 4 47 27 44 15 -2 21 -10 21 -28z"/>
<path d="M20738 13709 c-21 -12 -24 -59 -6 -77 17 -17 53 -15 68 3 11 13 8 14
-18 9 -17 -4 -32 -1 -36 5 -5 7 5 11 28 11 28 0 36 4 36 18 0 37 -36 52 -72
31z m47 -19 c4 -6 -5 -10 -20 -10 -15 0 -24 4 -20 10 3 6 12 10 20 10 8 0 17
-4 20 -10z"/>
<path d="M21044 13695 c-15 -23 -15 -27 0 -50 30 -45 86 -28 86 27 0 49 -59
65 -86 23z m61 -25 c0 -18 -6 -26 -21 -28 -23 -3 -37 18 -27 44 10 25 48 13
48 -16z"/>
<path d="M21161 13673 c16 -37 18 -52 10 -75 -8 -22 -7 -28 1 -26 7 3 25 35
40 73 32 77 31 75 19 75 -5 0 -16 -17 -24 -37 l-15 -38 -11 28 c-6 16 -11 33
-11 38 0 5 -7 9 -15 9 -12 0 -11 -8 6 -47z"/>
<path d="M21454 13695 c-15 -23 -15 -27 0 -50 30 -45 86 -28 86 27 0 49 -59
65 -86 23z m61 -25 c0 -18 -6 -26 -21 -28 -23 -3 -37 18 -27 44 10 25 48 13
48 -16z"/>
<path d="M21560 13689 c0 -50 16 -69 55 -67 35 1 35 1 35 50 0 26 -4 48 -10
48 -5 0 -10 -18 -10 -40 0 -33 -4 -40 -19 -40 -21 0 -31 19 -31 56 0 13 -4 24
-10 24 -5 0 -10 -14 -10 -31z"/>
<path d="M21680 13669 c0 -27 5 -49 10 -49 6 0 10 13 10 29 0 16 7 34 15 41
21 18 19 25 -10 26 -23 2 -25 -1 -25 -47z"/>
<path d="M21750 13668 c0 -26 5 -48 10 -48 6 0 10 11 10 24 0 37 10 56 31 56
15 0 19 -7 19 -40 0 -22 5 -40 10 -40 14 0 12 76 -2 87 -7 6 -28 10 -45 10
-33 0 -33 -1 -33 -49z"/>
<path d="M21874 13695 c-15 -23 -15 -27 0 -50 12 -19 24 -24 51 -23 35 1 35 1
35 48 0 47 0 47 -35 48 -27 1 -39 -4 -51 -23z m61 -25 c0 -29 -38 -41 -48 -16
-10 26 4 47 27 44 15 -2 21 -10 21 -28z"/>
<path d="M22040 13670 c0 -27 5 -50 10 -50 6 0 10 23 10 50 0 28 -4 50 -10 50
-5 0 -10 -22 -10 -50z"/>
<path d="M22098 13709 c-21 -12 -24 -59 -6 -77 17 -17 53 -15 68 3 11 13 8 14
-18 9 -17 -4 -32 -1 -36 5 -5 7 5 11 28 11 28 0 36 4 36 18 0 37 -36 52 -72
31z m47 -19 c4 -6 -5 -10 -20 -10 -15 0 -24 4 -20 10 3 6 12 10 20 10 8 0 17
-4 20 -10z"/>
<path d="M22200 13669 c0 -27 5 -49 10 -49 6 0 10 16 10 35 0 22 6 38 15 41
23 9 18 22 -10 22 -23 0 -25 -4 -25 -49z"/>
<path d="M22278 13709 c-21 -12 -24 -59 -6 -77 17 -17 53 -15 68 3 11 13 8 14
-18 9 -17 -4 -32 -1 -36 5 -5 7 5 11 28 11 28 0 36 4 36 18 0 37 -36 52 -72
31z m47 -19 c4 -6 -5 -10 -20 -10 -15 0 -24 4 -20 10 3 6 12 10 20 10 8 0 17
-4 20 -10z"/>
<path d="M25932 13680 c0 -19 2 -27 5 -17 2 9 2 25 0 35 -3 9 -5 1 -5 -18z"/>
<path d="M12766 13653 c-6 -14 -5 -15 5 -6 7 7 10 15 7 18 -3 3 -9 -2 -12 -12z"/>
<path d="M21260 13630 c0 -5 5 -10 10 -10 6 0 10 5 10 10 0 6 -4 10 -10 10 -5
0 -10 -4 -10 -10z"/>
<path d="M709 13066 c-15 -7 -25 -22 -27 -39 -5 -38 15 -60 50 -55 22 4 28 1
28 -14 0 -21 -32 -38 -38 -20 -4 14 -42 16 -42 3 0 -14 41 -41 61 -41 30 0 49
34 49 86 0 72 -32 104 -81 80z m47 -55 c-4 -6 -16 -11 -27 -11 -21 0 -27 35
-6 43 16 6 41 -18 33 -32z"/>
<path d="M933 13069 c-69 -26 -52 -161 21 -161 37 0 57 21 62 68 8 66 -33 112
-83 93z m42 -79 c0 -38 -3 -45 -21 -48 -16 -2 -23 4 -28 22 -10 42 3 78 28 74
18 -3 21 -10 21 -48z"/>
<path d="M1083 13069 c-50 -18 -48 -140 3 -159 26 -10 61 1 76 24 10 14 10 98
0 113 -12 19 -55 31 -79 22z m53 -54 c10 -42 -3 -77 -29 -73 -17 2 -23 11 -25
36 -4 45 3 62 27 62 14 0 23 -9 27 -25z"/>
<path d="M7213 13070 c-13 -5 -23 -16 -23 -25 0 -17 13 -19 40 -5 26 14 39 -9
15 -26 -18 -13 -15 -44 5 -44 13 0 13 -27 0 -35 -6 -4 -17 -1 -25 5 -8 6 -22
10 -32 8 -16 -3 -16 -5 5 -26 12 -12 33 -22 45 -22 25 0 57 28 57 50 0 7 -7
22 -17 32 -9 10 -11 18 -6 18 16 0 22 37 9 54 -15 19 -47 26 -73 16z"/>
<path d="M20540 13073 c-28 -10 -39 -33 -29 -61 7 -17 6 -29 -1 -36 -41 -41
34 -96 91 -66 21 12 26 59 8 77 -8 8 -8 13 0 17 15 10 14 41 -1 54 -18 14 -50
21 -68 15z m37 -39 c8 -20 -8 -36 -26 -25 -15 10 -8 41 9 41 6 0 13 -7 17 -16z
m3 -69 c13 -16 6 -35 -15 -35 -18 0 -28 17 -21 35 7 19 20 19 36 0z"/>
<path d="M567 13038 c-69 -92 -69 -108 -6 -108 28 0 39 -4 39 -15 0 -8 7 -15
15 -15 8 0 15 6 15 14 0 8 6 16 13 19 10 3 10 9 0 26 -7 11 -13 41 -13 66 0
38 -3 45 -19 45 -11 0 -31 -15 -44 -32z m33 -43 c0 -24 -24 -44 -37 -31 -8 7
17 56 29 56 4 0 8 -11 8 -25z"/>
<path d="M1315 13061 c-28 -12 -62 -54 -62 -77 0 -27 61 -84 91 -84 14 0 38
11 53 25 28 24 28 24 5 25 -13 0 -31 -4 -41 -10 -13 -6 -24 -5 -37 5 -18 14
-18 14 6 15 27 0 17 15 -15 23 -18 4 -18 5 2 6 28 1 41 21 13 21 -12 0 -18 5
-15 10 3 6 17 10 30 10 13 0 27 -4 30 -10 7 -12 45 -13 45 -2 0 29 -70 57
-105 43z"/>
<path d="M7090 13055 c0 -8 5 -15 10 -15 6 0 10 -30 10 -70 0 -63 2 -70 20
-70 18 0 20 7 20 85 l0 85 -30 0 c-20 0 -30 -5 -30 -15z"/>
<path d="M7400 13020 c0 -41 3 -50 18 -50 10 0 23 5 30 12 18 18 44 -9 31 -33
-8 -15 -14 -17 -29 -9 -10 5 -26 10 -35 10 -25 0 0 -36 31 -44 62 -16 103 64
50 99 -13 8 -31 13 -40 9 -11 -4 -16 -1 -16 10 0 12 10 16 35 16 24 0 35 5 35
15 0 12 -13 15 -55 15 l-55 0 0 -50z"/>
<path d="M7540 13055 c0 -11 11 -15 40 -15 l39 0 -29 -66 c-35 -78 -35 -74
-12 -74 13 0 27 21 50 78 18 42 32 80 32 85 0 4 -27 7 -60 7 -47 0 -60 -3 -60
-15z"/>
<path d="M7754 13035 c-26 -27 -33 -39 -24 -45 10 -6 9 -9 -1 -12 -9 -3 -1
-17 24 -41 40 -41 77 -48 115 -21 30 21 30 49 0 39 -48 -15 -78 -17 -78 -6 0
6 7 11 15 11 26 0 16 19 -12 23 l-28 4 28 2 c28 1 39 21 12 21 -8 0 -15 5 -15
10 0 6 11 10 24 10 14 0 28 -4 31 -10 9 -15 45 -12 45 4 0 20 -24 36 -63 43
-31 5 -40 1 -73 -32z"/>
<path d="M20250 13055 c0 -8 5 -15 10 -15 6 0 10 -30 10 -70 0 -63 2 -70 20
-70 18 0 20 7 20 85 l0 85 -30 0 c-20 0 -30 -5 -30 -15z"/>
<path d="M20400 13055 c0 -8 7 -15 15 -15 12 0 15 -14 15 -70 0 -63 2 -70 20
-70 18 0 20 7 20 85 l0 85 -35 0 c-24 0 -35 -5 -35 -15z"/>
<path d="M20736 13038 c-30 -31 -46 -78 -26 -78 5 0 11 -8 15 -18 6 -20 45
-42 74 -42 20 0 71 36 71 51 0 12 -37 12 -45 -1 -3 -5 -17 -10 -30 -10 -13 0
-27 5 -30 10 -3 6 4 10 16 10 26 0 15 15 -16 23 -15 4 -13 5 8 6 31 1 38 21 6
21 -11 0 -17 5 -14 10 3 6 17 10 30 10 13 0 27 -4 30 -10 8 -13 45 -13 45 -1
0 17 -52 51 -77 51 -14 0 -38 -14 -57 -32z"/>
<path d="M825 12930 c-8 -14 3 -30 21 -30 8 0 14 9 14 20 0 21 -24 28 -35 10z"/>
<path d="M7332 12923 c2 -10 10 -18 18 -18 22 0 18 29 -3 33 -14 3 -18 -1 -15
-15z"/>
<path d="M20345 12930 c-8 -14 3 -30 21 -30 8 0 14 9 14 20 0 21 -24 28 -35
10z"/>
<path d="M21851 12773 c23 -45 24 -88 4 -127 -9 -16 -13 -31 -10 -34 8 -8 35
64 35 93 0 29 -23 90 -38 99 -5 3 -1 -11 9 -31z"/>
<path d="M21024 12775 c-22 -33 -15 -128 10 -153 17 -16 17 -16 2 15 -20 40
-21 95 -1 133 19 37 12 39 -11 5z"/>
<path d="M527 12763 c-15 -14 -6 -22 13 -11 16 10 22 10 32 0 11 -11 9 -17 -9
-32 -22 -17 -22 -18 -3 -23 24 -6 27 -35 5 -43 -8 -4 -22 -1 -30 6 -9 7 -18
10 -21 7 -10 -10 36 -28 56 -22 23 7 28 50 8 59 -10 5 -10 7 0 12 17 8 15 41
-4 48 -20 8 -39 8 -47 -1z"/>
<path d="M630 12751 c-15 -29 -12 -77 6 -95 18 -19 20 -19 45 -6 14 8 19 21
19 53 0 24 -5 48 -12 55 -18 18 -46 14 -58 -7z m48 -3 c32 -32 1 -116 -33 -88
-26 22 -14 100 15 100 3 0 11 -5 18 -12z"/>
<path d="M860 12744 c0 -14 -4 -23 -10 -19 -6 4 -5 -5 2 -20 10 -21 9 -29 -5
-43 -13 -13 -21 -14 -35 -6 -26 17 -26 50 0 68 12 9 18 16 12 16 -25 0 -46
-27 -42 -54 4 -37 31 -55 57 -39 15 10 21 10 24 0 3 -7 6 18 6 56 1 37 -1 67
-4 67 -3 0 -5 -12 -5 -26z"/>
<path d="M7107 12763 c-15 -14 -6 -22 13 -11 16 10 22 10 32 0 11 -11 9 -17
-9 -32 -22 -17 -22 -18 -3 -23 24 -6 27 -35 5 -43 -8 -4 -22 -1 -30 6 -9 7
-18 10 -21 7 -10 -10 36 -28 56 -22 23 7 28 50 8 59 -10 5 -10 7 0 12 17 8 15
41 -4 48 -20 8 -39 8 -47 -1z"/>
<path d="M7210 12751 c-15 -29 -12 -77 6 -95 18 -19 20 -19 45 -6 14 8 19 21
19 53 0 24 -5 48 -12 55 -18 18 -46 14 -58 -7z m48 -3 c32 -32 1 -116 -33 -88
-26 22 -14 100 15 100 3 0 11 -5 18 -12z"/>
<path d="M7440 12744 c0 -14 -4 -23 -10 -19 -6 4 -5 -5 2 -20 10 -21 9 -29 -5
-43 -13 -13 -21 -14 -35 -6 -26 17 -26 50 0 68 12 9 18 16 12 16 -25 0 -46
-27 -42 -54 4 -37 31 -55 57 -39 15 10 21 10 24 0 3 -7 6 18 6 56 1 37 -1 67
-4 67 -3 0 -5 -12 -5 -26z"/>
<path d="M13698 12763 c37 -5 39 -13 12 -72 -11 -24 -18 -46 -16 -48 4 -5 38
66 51 106 6 19 3 21 -37 19 -37 -1 -38 -2 -10 -5z"/>
<path d="M13782 12758 c-6 -6 -12 -16 -12 -22 0 -5 6 -1 14 9 16 22 46 14 46
-13 0 -10 -13 -31 -30 -47 -16 -16 -30 -32 -30 -37 0 -4 19 -7 43 -6 38 1 39
2 8 5 l-33 4 27 29 c19 20 26 36 23 56 -3 32 -34 44 -56 22z"/>
<path d="M13923 12764 c-7 -3 -13 -11 -13 -17 0 -8 4 -7 12 1 17 17 37 15 45
-3 3 -9 -2 -22 -12 -29 -17 -12 -17 -13 1 -18 17 -4 20 0 19 31 0 29 -4 36
-20 38 -11 1 -26 -1 -32 -3z"/>
<path d="M14720 12744 c0 -15 -4 -23 -11 -19 -6 4 -5 -1 2 -13 23 -36 -14 -78
-46 -52 -22 18 -18 46 7 64 12 9 18 16 12 16 -25 0 -46 -27 -42 -54 4 -37 31
-55 57 -39 15 10 21 10 24 0 3 -7 6 18 6 56 1 37 -1 67 -4 67 -3 0 -5 -12 -5
-26z"/>
<path d="M21583 12764 c-7 -3 -13 -11 -13 -17 0 -8 4 -7 12 1 17 17 37 15 45
-3 3 -9 -2 -22 -12 -29 -17 -12 -17 -13 1 -18 17 -4 20 0 19 31 0 29 -4 36
-20 38 -11 1 -26 -1 -32 -3z"/>
<path d="M21691 12761 c-18 -11 -19 -84 -2 -105 41 -50 94 32 61 95 -11 20
-36 24 -59 10z m49 -20 c22 -42 -2 -97 -35 -85 -15 6 -22 84 -8 97 12 13 32 7
43 -12z"/>
<path d="M14052 12740 c0 -14 2 -19 5 -12 2 6 2 18 0 25 -3 6 -5 1 -5 -13z"/>
<path d="M14074 12713 c-15 -27 -32 -54 -37 -60 -5 -7 -6 -13 -1 -13 5 0 24
27 42 60 18 33 31 60 28 60 -3 0 -17 -21 -32 -47z"/>
<path d="M14209 12750 c-5 -71 8 -110 36 -110 6 1 2 5 -7 11 -12 6 -18 22 -18
44 0 26 4 35 18 36 13 0 14 2 2 6 -8 3 -18 11 -22 17 -5 7 -8 6 -9 -4z"/>
<path d="M918 12729 c-21 -12 -24 -59 -6 -77 17 -17 43 -15 59 5 13 15 12 15
-7 3 -48 -30 -78 32 -32 64 25 18 13 21 -14 5z"/>
<path d="M1022 12690 c1 -42 2 -46 5 -17 2 21 11 41 19 44 8 3 14 10 14 15 0
6 -6 6 -14 -1 -11 -9 -15 -9 -19 1 -3 7 -5 -12 -5 -42z"/>
<path d="M1081 12685 c1 -50 1 -50 9 -12 8 45 21 60 43 51 10 -3 17 -21 20
-47 l4 -42 1 48 c2 49 2 49 -50 51 -27 2 -28 0 -27 -49z"/>
<path d="M1203 12690 c0 -30 2 -43 4 -27 2 15 2 39 0 55 -2 15 -4 2 -4 -28z"/>
<path d="M1258 12729 c-21 -12 -24 -59 -6 -77 17 -17 43 -15 59 5 13 15 12 15
-7 3 -48 -30 -78 32 -32 64 25 18 13 21 -14 5z"/>
<path d="M1351 12687 c1 -52 1 -52 9 -13 4 21 13 41 19 46 9 5 6 9 -8 13 -19
5 -21 1 -20 -46z"/>
<path d="M1433 12733 c-21 -8 -15 -33 12 -45 26 -12 34 -38 12 -38 -7 0 -19 6
-26 13 -11 10 -13 9 -9 -3 6 -19 35 -25 53 -10 19 16 9 37 -21 44 -13 4 -24
11 -24 16 0 15 21 23 33 11 17 -17 31 -13 17 4 -13 15 -25 17 -47 8z"/>
<path d="M1558 12670 c-2 -39 0 -70 5 -70 4 0 7 32 7 70 0 39 -2 70 -4 70 -2
0 -6 -32 -8 -70z"/>
<path d="M1658 12724 c24 -17 29 -43 10 -62 -30 -30 -68 10 -47 51 11 21 10
21 -6 5 -38 -36 8 -93 55 -68 27 14 27 65 1 80 -30 15 -38 12 -13 -6z"/>
<path d="M1722 12705 c-2 -43 11 -65 37 -65 11 0 9 4 -6 15 -14 10 -23 29 -26
53 l-4 37 -1 -40z"/>
<path d="M1788 12694 c-2 -25 0 -48 4 -50 5 -3 8 18 8 45 0 64 -7 66 -12 5z"/>
<path d="M1842 12690 c1 -42 2 -46 5 -17 2 21 11 41 19 44 8 3 14 10 14 15 0
6 -6 6 -14 -1 -11 -9 -15 -9 -19 1 -3 7 -5 -12 -5 -42z"/>
<path d="M1913 12733 c-21 -8 -15 -33 12 -45 26 -12 34 -38 12 -38 -7 0 -19 6
-26 13 -11 10 -13 9 -9 -3 6 -19 35 -25 53 -10 19 16 9 37 -21 44 -13 4 -24
11 -24 16 0 15 21 23 33 11 17 -17 31 -13 17 4 -13 15 -25 17 -47 8z"/>
<path d="M7498 12729 c-21 -12 -24 -59 -6 -77 17 -17 43 -15 59 5 13 15 12 15
-7 3 -48 -30 -78 32 -32 64 25 18 13 21 -14 5z"/>
<path d="M7602 12690 c1 -42 2 -46 5 -17 2 21 11 41 19 44 8 3 14 10 14 15 0
6 -6 6 -14 -1 -11 -9 -15 -9 -19 1 -3 7 -5 -12 -5 -42z"/>
<path d="M7661 12685 c1 -50 1 -50 9 -12 8 45 21 60 43 51 10 -3 17 -21 20
-47 l4 -42 1 48 c2 49 2 49 -50 51 -27 2 -28 0 -27 -49z"/>
<path d="M7783 12690 c0 -30 2 -43 4 -27 2 15 2 39 0 55 -2 15 -4 2 -4 -28z"/>
<path d="M7838 12729 c-21 -12 -24 -59 -6 -77 17 -17 43 -15 59 5 13 15 12 15
-7 3 -48 -30 -78 32 -32 64 25 18 13 21 -14 5z"/>
<path d="M7931 12687 c1 -52 1 -52 9 -13 4 21 13 41 19 46 9 5 6 9 -8 13 -19
5 -21 1 -20 -46z"/>
<path d="M8013 12733 c-21 -8 -15 -33 12 -45 26 -12 34 -38 12 -38 -7 0 -19 6
-26 13 -11 10 -13 9 -9 -3 6 -19 35 -25 53 -10 19 16 9 37 -21 44 -13 4 -24
11 -24 16 0 15 21 23 33 11 17 -17 31 -13 17 4 -13 15 -25 17 -47 8z"/>
<path d="M8138 12670 c-2 -39 0 -70 5 -70 4 0 7 32 7 70 0 39 -2 70 -4 70 -2
0 -6 -32 -8 -70z"/>
<path d="M8238 12724 c24 -17 29 -43 10 -62 -30 -30 -68 10 -47 51 11 21 10
21 -6 5 -38 -36 8 -93 55 -68 27 14 27 65 1 80 -30 15 -38 12 -13 -6z"/>
<path d="M8302 12705 c-2 -43 11 -65 37 -65 11 0 9 4 -6 15 -14 10 -23 29 -26
53 l-4 37 -1 -40z"/>
<path d="M8368 12694 c-2 -25 0 -48 4 -50 5 -3 8 18 8 45 0 64 -7 66 -12 5z"/>
<path d="M8422 12690 c1 -42 2 -46 5 -17 2 21 11 41 19 44 8 3 14 10 14 15 0
6 -6 6 -14 -1 -11 -9 -15 -9 -19 1 -3 7 -5 -12 -5 -42z"/>
<path d="M8493 12733 c-21 -8 -15 -33 12 -45 26 -12 34 -38 12 -38 -7 0 -19 6
-26 13 -11 10 -13 9 -9 -3 6 -19 35 -25 53 -10 19 16 9 37 -21 44 -13 4 -24
11 -24 16 0 15 21 23 33 11 17 -17 31 -13 17 4 -13 15 -25 17 -47 8z"/>
<path d="M14286 12727 c-40 -30 1 -106 43 -80 15 10 21 10 24 0 3 -7 5 13 5
43 0 30 -2 49 -5 42 -2 -6 -9 -9 -15 -6 -5 3 -4 -3 3 -14 23 -36 -14 -78 -46
-52 -22 18 -18 46 7 64 12 9 18 16 12 16 -6 0 -18 -6 -28 -13z"/>
<path d="M14392 12705 c-2 -43 11 -65 37 -65 11 0 9 4 -6 15 -14 10 -23 29
-26 53 l-4 37 -1 -40z"/>
<path d="M14458 12694 c-2 -25 0 -48 4 -50 5 -3 8 18 8 45 0 64 -7 66 -12 5z"/>
<path d="M14501 12737 c-1 -4 5 -16 11 -27 10 -16 10 -24 0 -40 -17 -28 -14
-39 4 -15 14 19 16 19 28 3 20 -28 30 -21 12 7 -15 23 -15 27 0 53 l16 27 -20
-22 -20 -23 -15 23 c-9 12 -16 19 -16 14z"/>
<path d="M14778 12729 c-21 -12 -24 -59 -6 -77 17 -17 43 -15 59 5 13 15 12
15 -7 3 -48 -30 -78 32 -32 64 25 18 13 21 -14 5z"/>
<path d="M14921 12685 l1 -50 8 38 c8 45 21 60 43 51 12 -4 17 -19 18 -48 l1
-41 7 35 c4 20 11 42 16 49 5 10 4 12 -4 7 -6 -4 -17 -3 -24 2 -7 6 -24 10
-39 9 -27 -2 -28 -4 -27 -52z"/>
<path d="M15043 12726 c11 -8 17 -27 17 -50 0 -20 5 -36 11 -36 15 0 3 82 -14
92 -21 13 -33 8 -14 -6z"/>
<path d="M15117 12722 c-35 -38 -15 -75 42 -78 l41 -2 0 43 c0 37 -3 44 -19
42 -15 -1 -16 -4 -8 -18 23 -36 -24 -78 -49 -44 -19 25 -18 31 8 55 12 11 17
20 11 20 -5 0 -17 -8 -26 -18z"/>
<path d="M15231 12687 c1 -52 1 -52 9 -13 4 21 13 41 19 46 9 5 6 9 -8 13 -19
5 -21 1 -20 -46z"/>
<path d="M15305 12720 c-34 -38 12 -102 50 -70 13 10 15 8 15 -13 0 -30 -23
-41 -53 -26 -21 10 -21 10 -3 -5 24 -19 27 -20 51 -2 13 9 20 30 23 69 4 51 3
56 -16 54 -16 -1 -18 -4 -9 -18 23 -36 -24 -78 -49 -44 -19 25 -18 31 8 55 12
11 17 20 11 20 -5 0 -18 -9 -28 -20z"/>
<path d="M15430 12722 c-18 -14 -21 -25 -16 -45 7 -31 48 -46 71 -27 21 18 11
24 -13 9 -16 -10 -24 -10 -35 -1 -17 15 -11 58 10 67 18 6 45 -13 37 -26 -3
-5 0 -9 5 -9 18 0 12 29 -8 40 -25 13 -25 13 -51 -8z"/>
<path d="M20262 12670 c1 -41 3 -60 5 -42 4 28 7 31 19 21 11 -9 21 -9 39 -1
32 15 35 66 6 82 -30 15 -38 12 -13 -6 25 -18 29 -46 7 -64 -32 -26 -69 16
-46 52 7 11 8 17 3 14 -6 -3 -13 0 -15 6 -3 7 -5 -21 -5 -62z"/>
<path d="M20387 12722 c-35 -38 -15 -75 42 -78 l41 -2 0 43 c0 37 -3 44 -19
42 -15 -1 -16 -4 -8 -18 23 -36 -24 -78 -49 -44 -19 25 -18 31 8 55 12 11 17
20 11 20 -5 0 -17 -8 -26 -18z"/>
<path d="M20502 12690 c1 -42 2 -46 5 -17 2 21 11 41 19 44 8 3 14 10 14 15 0
6 -6 6 -14 -1 -11 -9 -15 -9 -19 1 -3 7 -5 -12 -5 -42z"/>
<path d="M20608 12670 c-2 -39 0 -70 5 -70 4 0 7 32 7 70 0 39 -2 70 -4 70 -2
0 -6 -32 -8 -70z"/>
<path d="M20708 12724 c24 -17 29 -43 10 -62 -30 -30 -68 10 -47 51 11 21 10
21 -6 5 -38 -36 8 -93 55 -68 27 14 27 65 1 80 -30 15 -38 12 -13 -6z"/>
<path d="M20772 12705 c-2 -43 11 -65 37 -65 11 0 9 4 -6 15 -14 10 -23 29
-26 53 l-4 37 -1 -40z"/>
<path d="M20838 12694 c-2 -25 0 -48 4 -50 5 -3 8 18 8 45 0 64 -7 66 -12 5z"/>
<path d="M20892 12690 c1 -42 2 -46 5 -17 2 21 11 41 19 44 8 3 14 10 14 15 0
6 -6 6 -14 -1 -11 -9 -15 -9 -19 1 -3 7 -5 -12 -5 -42z"/>
<path d="M21092 12686 c1 -49 2 -49 5 -9 3 26 10 44 20 47 22 9 35 -6 43 -51
l8 -38 1 36 c2 74 56 74 64 1 l4 -37 1 42 c2 34 -2 45 -19 53 -15 8 -24 8 -34
0 -8 -7 -20 -8 -26 -4 -7 4 -25 8 -41 9 -27 2 -28 1 -26 -49z"/>
<path d="M21288 12729 c-25 -14 -23 -65 2 -79 47 -25 93 32 55 68 -16 16 -17
16 -6 -5 21 -41 -17 -81 -47 -51 -19 19 -14 45 10 62 25 18 13 21 -14 5z"/>
<path d="M21381 12734 c-1 -6 6 -28 15 -49 9 -22 13 -49 9 -64 -4 -16 -3 -22
3 -16 11 13 52 114 51 129 0 6 -8 -9 -19 -34 l-18 -45 -20 45 c-11 25 -21 40
-21 34z"/>
<path d="M21788 12670 c-2 -39 0 -70 5 -70 4 0 7 32 7 70 0 39 -2 70 -4 70 -2
0 -6 -32 -8 -70z"/>
<path d="M967 12710 c3 -11 9 -20 15 -20 5 0 4 9 -2 20 -6 11 -12 20 -14 20
-2 0 -2 -9 1 -20z"/>
<path d="M1307 12710 c3 -11 9 -20 15 -20 5 0 4 9 -2 20 -6 11 -12 20 -14 20
-2 0 -2 -9 1 -20z"/>
<path d="M7547 12710 c3 -11 9 -20 15 -20 5 0 4 9 -2 20 -6 11 -12 20 -14 20
-2 0 -2 -9 1 -20z"/>
<path d="M7887 12710 c3 -11 9 -20 15 -20 5 0 4 9 -2 20 -6 11 -12 20 -14 20
-2 0 -2 -9 1 -20z"/>
<path d="M14827 12710 c3 -11 9 -20 15 -20 5 0 4 9 -2 20 -6 11 -12 20 -14 20
-2 0 -2 -9 1 -20z"/>
<path d="M14091 12676 c-9 -10 -8 -16 4 -26 19 -16 41 1 32 24 -8 20 -21 20
-36 2z m29 -11 c0 -8 -4 -15 -9 -15 -13 0 -22 16 -14 24 11 11 23 6 23 -9z"/>
<path d="M13968 12664 c-13 -13 -20 -14 -39 -3 -22 11 -23 11 -10 -4 17 -21
45 -22 61 -2 18 21 8 28 -12 9z"/>
<path d="M21628 12664 c-13 -13 -20 -14 -39 -3 -22 11 -23 11 -10 -4 17 -21
45 -22 61 -2 18 21 8 28 -12 9z"/>
<path d="M13870 12649 c0 -5 5 -7 10 -4 6 3 10 8 10 11 0 2 -4 4 -10 4 -5 0
-10 -5 -10 -11z"/>
<path d="M21480 12649 c0 -5 5 -7 10 -4 6 3 10 8 10 11 0 2 -4 4 -10 4 -5 0
-10 -5 -10 -11z"/>
<path d="M780 11614 c0 -8 5 -12 10 -9 6 3 10 10 10 16 0 5 -4 9 -10 9 -5 0
-10 -7 -10 -16z"/>
<path d="M9396 11621 c-4 -5 -2 -12 3 -15 5 -4 12 -2 15 3 4 5 2 12 -3 15 -5
4 -12 2 -15 -3z"/>
<path d="M830 11555 c0 -37 4 -65 10 -65 6 0 10 28 10 65 0 37 -4 65 -10 65
-6 0 -10 -28 -10 -65z"/>
<path d="M870 11555 c0 -37 4 -65 10 -65 6 0 10 28 10 65 0 37 -4 65 -10 65
-6 0 -10 -28 -10 -65z"/>
<path d="M510 11550 c0 -66 17 -83 22 -22 l3 37 20 -37 c10 -21 22 -38 25 -38
4 0 14 15 23 33 l16 32 0 -32 c1 -22 6 -33 16 -33 12 0 15 13 15 60 0 73 -21
82 -46 20 -9 -22 -19 -40 -24 -40 -4 0 -15 18 -25 40 -27 60 -45 52 -45 -20z"/>
<path d="M1318 11563 c-3 -46 -4 -48 -32 -45 -26 3 -28 1 -17 -12 18 -22 48
-20 61 3 13 25 13 101 1 101 -6 0 -11 -21 -13 -47z"/>
<path d="M9280 11550 c0 -33 4 -60 10 -60 6 0 10 11 10 24 0 19 6 25 26 28 31
3 50 28 41 52 -4 11 -19 16 -47 16 l-40 0 0 -60z m65 30 c0 -8 -10 -16 -22
-18 -22 -3 -32 16 -16 32 12 11 38 2 38 -14z"/>
<path d="M9710 11559 c0 -50 -1 -51 -26 -45 -19 5 -25 3 -22 -6 3 -7 18 -13
34 -13 28 0 29 1 32 58 2 35 -1 57 -8 57 -5 0 -10 -22 -10 -51z"/>
<path d="M18060 11550 c0 -33 4 -60 10 -60 6 0 10 11 10 25 0 18 5 25 19 25
11 0 27 7 35 16 25 25 4 54 -39 54 l-35 0 0 -60z m58 27 c2 -12 -3 -17 -17
-17 -15 0 -21 6 -21 21 0 25 33 22 38 -4z"/>
<path d="M18347 11598 c-2 -7 -1 -33 2 -58 4 -32 11 -46 24 -48 9 -2 17 1 17
7 0 6 -4 11 -10 11 -15 0 -12 58 2 62 9 3 8 9 -4 21 -20 20 -24 21 -31 5z"/>
<path d="M674 11565 c-15 -23 -15 -27 0 -51 13 -18 24 -24 43 -22 15 2 28 9
31 15 2 9 -5 11 -27 7 -20 -4 -31 -2 -31 5 0 6 16 11 35 11 39 0 46 17 17 43
-26 24 -49 21 -68 -8z m61 -5 c4 -6 -5 -10 -19 -10 -14 0 -26 5 -26 10 0 6 9
10 19 10 11 0 23 -4 26 -10z"/>
<path d="M780 11540 c0 -27 5 -50 10 -50 6 0 10 23 10 50 0 28 -4 50 -10 50
-5 0 -10 -22 -10 -50z"/>
<path d="M938 11579 c-21 -12 -24 -59 -6 -77 17 -17 53 -15 68 3 11 13 8 14
-18 9 -17 -4 -32 -1 -36 5 -5 7 5 11 28 11 28 0 36 4 36 18 0 37 -36 52 -72
31z m47 -19 c4 -6 -5 -10 -20 -10 -15 0 -24 4 -20 10 3 6 12 10 20 10 8 0 17
-4 20 -10z"/>
<path d="M1030 11559 c0 -50 16 -69 55 -67 35 1 35 1 35 50 0 26 -4 48 -10 48
-5 0 -10 -18 -10 -40 0 -33 -4 -40 -19 -40 -21 0 -31 19 -31 56 0 13 -4 24
-10 24 -5 0 -10 -14 -10 -31z"/>
<path d="M1150 11539 c0 -27 5 -49 10 -49 6 0 10 13 10 29 0 16 7 34 15 41 21
18 19 25 -10 26 -23 2 -25 -1 -25 -47z"/>
<path d="M1374 11565 c-15 -23 -15 -27 0 -50 30 -45 86 -28 86 27 0 49 -59 65
-86 23z m61 -25 c0 -18 -6 -26 -21 -28 -23 -3 -37 18 -27 44 10 25 48 13 48
-16z"/>
<path d="M1480 11559 c0 -50 16 -69 55 -67 35 1 35 1 35 50 0 26 -4 48 -10 48
-5 0 -10 -18 -10 -40 0 -33 -4 -40 -19 -40 -21 0 -31 19 -31 56 0 13 -4 24
-10 24 -5 0 -10 -14 -10 -31z"/>
<path d="M1600 11539 c0 -27 5 -49 10 -49 6 0 10 16 10 35 0 22 6 38 15 41 23
9 18 22 -10 22 -23 0 -25 -4 -25 -49z"/>
<path d="M9390 11540 c0 -27 5 -50 10 -50 6 0 10 23 10 50 0 28 -4 50 -10 50
-5 0 -10 -22 -10 -50z"/>
<path d="M9440 11539 c0 -27 5 -49 10 -49 6 0 10 16 10 35 0 22 6 38 15 41 23
9 18 22 -10 22 -23 0 -25 -4 -25 -49z"/>
<path d="M9514 11565 c-15 -23 -15 -27 0 -51 13 -18 24 -24 43 -22 15 2 28 9
31 15 2 9 -5 11 -27 7 -20 -4 -31 -2 -31 5 0 6 16 11 35 11 39 0 46 17 17 43
-26 24 -49 21 -68 -8z m61 -5 c4 -6 -5 -10 -19 -10 -14 0 -26 5 -26 10 0 6 9
10 19 10 11 0 23 -4 26 -10z"/>
<path d="M9774 11565 c-15 -23 -15 -27 0 -50 30 -45 86 -28 86 27 0 49 -59 65
-86 23z m61 -25 c0 -29 -38 -41 -48 -16 -10 26 4 47 27 44 15 -2 21 -10 21
-28z"/>
<path d="M9880 11559 c0 -50 16 -69 55 -67 35 1 35 1 35 50 0 26 -4 48 -10 48
-5 0 -10 -18 -10 -40 0 -33 -4 -40 -19 -40 -21 0 -31 19 -31 56 0 13 -4 24
-10 24 -5 0 -10 -14 -10 -31z"/>
<path d="M10000 11539 c0 -27 5 -49 10 -49 6 0 10 16 10 35 0 22 6 38 15 41
23 9 18 22 -10 22 -23 0 -25 -4 -25 -49z"/>
<path d="M18178 11579 c-21 -12 -24 -59 -6 -77 17 -17 53 -15 68 3 11 13 8 14
-18 9 -17 -4 -32 -1 -36 5 -5 7 5 11 28 11 28 0 36 4 36 18 0 37 -36 52 -72
31z m47 -19 c4 -6 -5 -10 -20 -10 -15 0 -24 4 -20 10 3 6 12 10 20 10 8 0 17
-4 20 -10z"/>
<path d="M18270 11539 c0 -27 5 -49 10 -49 6 0 10 13 10 29 0 16 7 34 15 41
21 18 19 25 -10 26 -23 2 -25 -1 -25 -47z"/>
<path d="M18428 11579 c-21 -12 -24 -59 -6 -77 17 -17 53 -15 68 3 11 13 8 14
-18 9 -17 -4 -32 -1 -36 5 -5 7 5 11 28 11 28 0 36 4 36 18 0 37 -36 52 -72
31z m47 -19 c4 -6 -5 -10 -20 -10 -15 0 -24 4 -20 10 3 6 12 10 20 10 8 0 17
-4 20 -10z"/>
<path d="M18531 11581 c-19 -12 -7 -39 24 -51 35 -13 32 -24 -5 -16 -37 7 -40
-11 -4 -20 17 -4 31 -1 41 8 13 13 13 17 -2 32 -9 9 -23 16 -31 16 -8 0 -14 5
-14 11 0 7 10 9 26 5 19 -5 25 -3 22 6 -6 16 -38 21 -57 9z"/>
<path d="M530 10925 c-17 -21 -4 -32 20 -17 11 7 24 12 30 12 16 0 11 -32 -7
-45 -16 -12 -16 -14 6 -32 14 -11 21 -25 17 -31 -9 -15 -46 -16 -46 -2 0 6 -7
10 -15 10 -22 0 -18 -18 9 -35 26 -17 75 -6 77 17 2 23 -3 43 -13 49 -6 4 -5
14 4 28 9 16 10 26 2 39 -15 23 -67 28 -84 7z"/>
<path d="M676 10918 c-36 -51 -9 -138 42 -138 37 0 51 11 61 48 11 36 -1 91
-21 104 -25 15 -67 8 -82 -14z m74 -57 c0 -54 -18 -72 -45 -45 -30 30 -16 94
21 94 22 0 24 -4 24 -49z"/>
<path d="M900 10921 c-14 -27 -13 -104 3 -123 21 -29 71 -27 87 3 25 47 -15
93 -60 69 -16 -8 -20 -8 -20 4 0 42 31 61 58 34 17 -17 28 -2 12 17 -18 22
-67 19 -80 -4z m68 -95 c-2 -13 -12 -22 -25 -24 -19 -3 -23 1 -23 21 0 14 6
27 13 30 22 7 38 -5 35 -27z"/>
<path d="M1076 10887 c-46 -67 -46 -77 4 -77 33 0 40 -3 40 -20 0 -11 7 -20
15 -20 8 0 15 9 15 19 0 11 6 22 13 25 10 5 10 7 0 12 -8 3 -13 26 -13 60 0
46 -3 54 -19 54 -11 0 -33 -21 -55 -53z m44 -22 c0 -31 -3 -35 -25 -35 -14 0
-25 3 -25 6 0 8 40 64 46 64 2 0 4 -16 4 -35z"/>
<path d="M18076 10918 c-9 -12 -16 -38 -16 -58 0 -51 24 -80 64 -80 44 0 60
21 60 80 0 27 -6 55 -13 64 -20 24 -77 20 -95 -6z m69 -58 c0 -39 -3 -45 -22
-48 -26 -4 -39 31 -29 74 5 19 12 25 29 22 19 -3 22 -9 22 -48z"/>
<path d="M18300 10921 c-5 -11 -10 -38 -10 -61 0 -60 14 -80 55 -80 41 0 65
29 65 80 0 51 -24 80 -65 80 -24 0 -38 -6 -45 -19z m76 -36 c10 -42 -3 -77
-29 -73 -17 2 -23 11 -25 36 -4 45 3 62 27 62 14 0 23 -9 27 -25z"/>
<path d="M18456 10918 c-9 -12 -16 -38 -16 -58 0 -51 24 -80 64 -80 44 0 60
21 60 80 0 27 -6 55 -13 64 -20 24 -77 20 -95 -6z m69 -58 c0 -39 -3 -45 -22
-48 -17 -3 -24 3 -29 22 -10 43 3 78 29 74 19 -3 22 -9 22 -48z"/>
<path d="M18705 10931 c-28 -12 -60 -52 -60 -76 0 -11 12 -33 27 -49 31 -35
87 -41 115 -13 23 23 8 33 -28 20 -30 -12 -59 -8 -59 7 0 5 8 11 18 13 13 4
11 5 -5 6 -13 0 -23 6 -23 11 0 6 10 15 23 20 20 8 20 9 2 10 -19 1 -19 1 -2
14 14 11 24 11 47 3 34 -13 50 -3 29 18 -19 18 -59 26 -84 16z"/>
<path d="M1283 10907 c-10 -13 -25 -26 -33 -30 -9 -3 -10 -6 -2 -6 6 -1 12 -7
12 -15 0 -8 -6 -17 -12 -19 -10 -4 -10 -6 0 -6 7 -1 23 -13 36 -28 29 -33 78
-36 109 -5 18 19 19 22 5 22 -10 0 -28 -5 -42 -11 -20 -9 -29 -9 -42 2 -15 12
-15 14 7 20 23 7 23 7 -3 8 -18 1 -28 7 -28 16 0 9 10 15 28 16 l27 1 -25 7
-25 7 23 12 c16 9 28 10 41 2 11 -5 27 -10 37 -10 16 0 16 1 -1 20 -26 29 -88
27 -112 -3z"/>
<path d="M825 10800 c-4 -6 -3 -16 3 -22 6 -6 12 -6 17 2 4 6 3 16 -3 22 -6 6
-12 6 -17 -2z"/>
<path d="M18222 10796 c1 -10 8 -17 13 -17 15 1 12 24 -3 29 -9 3 -13 -2 -10
-12z"/>
<path d="M523 10565 c0 -38 2 -53 4 -32 2 20 2 52 0 70 -2 17 -4 1 -4 -38z"/>
<path d="M884 10616 c-3 -8 -4 -25 -2 -38 2 -19 9 -23 36 -22 35 2 43 -15 17
-36 -12 -10 -19 -10 -27 -2 -17 17 -33 15 -18 -3 41 -49 93 34 60 96 -12 22
-58 26 -66 5z m56 -11 c10 -12 10 -18 0 -30 -25 -30 -61 -7 -46 30 3 8 12 15
19 15 8 0 20 -7 27 -15z"/>
<path d="M1039 10613 c-3 -10 -1 -40 2 -68 l6 -50 1 48 c1 30 6 47 15 47 8 0
7 4 -3 10 -13 9 -13 11 0 20 13 8 13 10 -1 10 -9 0 -18 -8 -20 -17z"/>
<path d="M1125 10620 c-3 -6 1 -7 9 -4 18 7 21 14 7 14 -6 0 -13 -4 -16 -10z"/>
<path d="M2293 10565 c0 -38 2 -53 4 -32 2 20 2 52 0 70 -2 17 -4 1 -4 -38z"/>
<path d="M2633 10565 c0 -38 2 -53 4 -32 2 20 2 52 0 70 -2 17 -4 1 -4 -38z"/>
<path d="M2933 10565 c-1 -53 1 -61 6 -35 4 20 11 41 15 48 4 7 3 12 -3 12 -5
0 -12 10 -14 23 -2 12 -4 -9 -4 -48z"/>
<path d="M9697 10622 c6 -4 14 -34 16 -67 l3 -60 2 68 c2 58 0 67 -15 67 -12
0 -14 -3 -6 -8z"/>
<path d="M9767 10623 c-15 -14 -6 -22 13 -11 16 10 22 10 32 0 11 -11 9 -17
-9 -32 -22 -17 -22 -18 -3 -23 24 -6 27 -35 5 -43 -8 -4 -22 -1 -30 6 -9 7
-18 10 -21 7 -10 -10 36 -28 56 -22 23 7 28 50 8 59 -10 5 -10 7 0 12 17 8 15
41 -4 48 -20 8 -39 8 -47 -1z"/>
<path d="M9915 10613 c-12 -22 -8 -113 6 -113 5 0 9 20 9 45 0 29 4 45 13 45
9 0 8 3 -2 9 -7 5 -10 14 -7 20 4 6 3 11 -1 11 -5 0 -13 -8 -18 -17z"/>
<path d="M11173 10565 c0 -38 2 -53 4 -32 2 20 2 52 0 70 -2 17 -4 1 -4 -38z"/>
<path d="M11513 10565 c0 -38 2 -53 4 -32 2 20 2 52 0 70 -2 17 -4 1 -4 -38z"/>
<path d="M11812 10565 c0 -38 2 -64 5 -57 4 10 8 10 19 1 11 -9 21 -9 39 -1
32 15 35 66 6 82 -30 15 -38 12 -13 -6 25 -18 29 -46 7 -64 -32 -26 -69 16
-46 52 7 11 8 17 2 14 -5 -4 -12 6 -14 21 -2 16 -4 -3 -5 -42z"/>
<path d="M18073 10624 c-7 -3 -13 -11 -13 -17 0 -8 4 -7 12 1 17 17 37 15 45
-3 3 -9 -2 -22 -12 -29 -17 -12 -17 -13 1 -18 17 -4 20 0 19 31 0 29 -4 36
-20 38 -11 1 -26 -1 -32 -3z"/>
<path d="M18181 10621 c-18 -11 -19 -84 -2 -105 41 -50 94 32 61 95 -11 20
-36 24 -59 10z m49 -20 c22 -42 -2 -97 -35 -85 -15 6 -22 84 -8 97 12 13 32 7
43 -12z"/>
<path d="M18400 10605 c0 -23 -2 -24 -20 -13 -17 11 -23 9 -41 -9 -39 -39 5
-107 46 -73 11 9 15 9 15 1 0 -6 5 -11 10 -11 6 0 10 28 10 65 0 37 -4 65 -10
65 -5 0 -10 -11 -10 -25z m-10 -30 c15 -18 10 -45 -13 -59 -15 -9 -21 -7 -33
8 -18 25 -18 31 2 50 19 20 28 20 44 1z"/>
<path d="M1672 10558 c2 -62 2 -62 6 -13 l4 50 23 -50 23 -50 23 50 24 50 6
-50 6 -50 1 63 c1 34 -2 62 -7 62 -5 0 -19 -24 -31 -52 l-23 -53 -23 53 c-12
28 -25 52 -28 52 -3 0 -5 -28 -4 -62z"/>
<path d="M3279 10608 c-5 -55 12 -109 34 -107 9 0 9 2 0 6 -16 6 -17 83 -2 83
6 0 4 7 -5 15 -18 18 -26 19 -27 3z"/>
<path d="M10552 10558 c2 -62 2 -62 6 -13 l4 50 23 -50 23 -50 23 50 24 50 6
-50 6 -50 1 63 c1 34 -2 62 -7 62 -5 0 -19 -24 -31 -52 l-23 -53 -23 53 c-12
28 -25 52 -28 52 -3 0 -5 -28 -4 -62z"/>
<path d="M562 10558 c-2 -50 -2 -50 51 -52 26 -2 27 0 26 49 -1 50 -1 50 -9
12 -14 -74 -56 -77 -63 -5 l-4 43 -1 -47z"/>
<path d="M671 10545 c1 -50 1 -50 9 -12 8 45 21 60 43 51 10 -3 17 -21 20 -47
l4 -42 1 48 c2 49 2 49 -50 51 -27 2 -28 0 -27 -49z"/>
<path d="M1110 10582 c-18 -14 -21 -25 -16 -45 7 -31 48 -46 71 -27 21 18 11
24 -13 9 -16 -10 -24 -10 -35 -1 -17 15 -11 58 10 67 18 6 45 -13 37 -26 -3
-5 0 -9 5 -9 18 0 12 29 -8 40 -25 13 -25 13 -51 -8z"/>
<path d="M1201 10595 c-2 -16 31 -95 40 -95 9 0 44 88 37 95 -3 3 -11 -13 -18
-35 -13 -38 -30 -54 -30 -27 -1 16 -28 75 -29 62z"/>
<path d="M1312 10550 c1 -42 2 -46 5 -17 2 21 11 41 19 44 8 3 14 10 14 15 0
6 -6 6 -14 -1 -11 -9 -15 -9 -19 1 -3 7 -5 -12 -5 -42z"/>
<path d="M1836 10587 c-40 -30 1 -106 43 -80 15 10 21 10 24 0 3 -7 5 13 5 43
0 30 -2 49 -5 42 -2 -6 -9 -9 -15 -6 -5 3 -4 -3 3 -14 23 -36 -14 -78 -46 -52
-22 18 -18 46 7 64 12 9 18 16 12 16 -6 0 -18 -6 -28 -13z"/>
<path d="M1952 10550 c1 -42 2 -46 5 -17 2 21 11 41 19 44 8 3 14 10 14 15 0
6 -6 6 -14 -1 -11 -9 -15 -9 -19 1 -3 7 -5 -12 -5 -42z"/>
<path d="M2026 10587 c-41 -30 1 -106 44 -79 17 10 20 10 20 -6 0 -10 -5 -23
-12 -30 -8 -8 -8 -12 -1 -12 17 0 23 26 22 88 0 31 -3 51 -6 44 -2 -6 -9 -9
-15 -6 -5 3 -4 -3 3 -14 23 -36 -14 -78 -46 -52 -22 18 -18 46 7 64 12 9 18
16 12 16 -6 0 -18 -6 -28 -13z"/>
<path d="M2148 10589 c-21 -12 -24 -59 -6 -77 17 -17 43 -15 59 5 13 15 12 15
-7 3 -48 -30 -78 32 -32 64 25 18 13 21 -14 5z"/>
<path d="M2347 10582 c-35 -38 -15 -75 42 -78 l41 -2 0 43 c0 37 -3 44 -19 42
-15 -1 -16 -4 -8 -18 23 -36 -24 -78 -49 -44 -19 25 -18 31 8 55 12 11 17 20
11 20 -5 0 -17 -8 -26 -18z"/>
<path d="M2512 10530 c1 -41 3 -60 5 -42 4 28 7 31 19 21 11 -9 21 -9 39 -1
32 15 35 66 6 82 -30 15 -38 12 -13 -6 25 -18 29 -46 7 -64 -32 -26 -69 16
-46 52 7 11 8 17 3 14 -6 -3 -13 0 -15 6 -3 7 -5 -21 -5 -62z"/>
<path d="M2672 10565 c-2 -43 11 -65 37 -65 11 0 9 4 -6 15 -14 10 -23 29 -26
53 l-4 37 -1 -40z"/>
<path d="M2738 10554 c-2 -25 0 -48 4 -50 5 -3 8 18 8 45 0 64 -7 66 -12 5z"/>
<path d="M2793 10589 c-6 -6 -9 -18 -6 -25 8 -22 22 -16 16 6 -6 23 15 28 35
8 8 -8 12 -8 12 -1 0 10 -22 23 -39 23 -4 0 -12 -5 -18 -11z"/>
<path d="M2982 10587 c9 -7 18 -31 21 -53 4 -39 4 -39 5 7 2 35 -2 48 -14 53
-25 10 -30 6 -12 -7z"/>
<path d="M3057 10582 c-35 -38 -15 -75 42 -78 l41 -2 0 43 c0 37 -3 44 -19 42
-15 -1 -16 -4 -8 -18 23 -36 -24 -78 -49 -44 -19 25 -18 31 8 55 12 11 17 20
11 20 -5 0 -17 -8 -26 -18z"/>
<path d="M3172 10558 c-2 -50 -2 -50 51 -52 26 -2 27 0 26 49 -1 50 -1 50 -9
12 -14 -74 -56 -77 -63 -5 l-4 43 -1 -47z"/>
<path d="M3360 10582 c-18 -14 -21 -25 -16 -45 7 -31 48 -46 71 -27 21 18 11
24 -13 9 -16 -10 -24 -10 -35 -1 -17 15 -11 58 10 67 18 6 45 -13 37 -26 -3
-5 0 -9 5 -9 18 0 12 29 -8 40 -25 13 -25 13 -51 -8z"/>
<path d="M9281 10595 c-2 -16 31 -95 40 -95 9 0 44 88 37 95 -3 3 -11 -13 -18
-35 -13 -38 -30 -54 -30 -27 -1 16 -28 75 -29 62z"/>
<path d="M9400 10582 c-18 -14 -21 -25 -16 -45 7 -31 48 -46 71 -27 21 18 11
24 -13 9 -16 -10 -24 -10 -35 -1 -17 15 -11 58 10 67 18 6 45 -13 37 -26 -3
-5 0 -9 5 -9 18 0 12 29 -8 40 -25 13 -25 13 -51 -8z"/>
<path d="M9501 10545 c1 -50 1 -50 9 -12 8 45 21 60 43 51 10 -3 17 -21 20
-47 l4 -42 1 48 c2 49 2 49 -50 51 -27 2 -28 0 -27 -49z"/>
<path d="M9988 10589 c-21 -12 -24 -59 -6 -77 17 -17 43 -15 59 5 13 15 12 15
-7 3 -48 -30 -78 32 -32 64 25 18 13 21 -14 5z"/>
<path d="M10070 10597 c0 -11 39 -97 45 -97 8 0 46 92 41 98 -3 3 -10 -8 -16
-24 -6 -16 -13 -36 -16 -44 -5 -10 -12 -4 -24 22 -16 37 -30 57 -30 45z"/>
<path d="M10192 10550 c1 -42 2 -46 5 -17 2 21 11 41 19 44 8 3 14 10 14 15 0
6 -6 6 -14 -1 -11 -9 -15 -9 -19 1 -3 7 -5 -12 -5 -42z"/>
<path d="M10716 10587 c-40 -30 1 -106 43 -80 15 10 21 10 24 0 3 -7 5 13 5
43 0 30 -2 49 -5 42 -2 -6 -9 -9 -15 -6 -5 3 -4 -3 3 -14 23 -36 -14 -78 -46
-52 -22 18 -18 46 7 64 12 9 18 16 12 16 -6 0 -18 -6 -28 -13z"/>
<path d="M10821 10547 c1 -52 1 -52 9 -13 4 21 13 41 19 46 9 5 6 9 -8 13 -19
5 -21 1 -20 -46z"/>
<path d="M10895 10580 c-34 -38 12 -102 50 -70 13 10 15 8 15 -13 0 -30 -23
-41 -53 -26 -21 10 -21 10 -3 -5 24 -19 27 -20 51 -2 13 9 20 30 23 69 4 51 3
56 -16 54 -16 -1 -18 -4 -9 -18 23 -36 -24 -78 -49 -44 -19 25 -18 31 8 55 12
11 17 20 11 20 -5 0 -18 -9 -28 -20z"/>
<path d="M11028 10589 c-21 -12 -24 -59 -6 -77 17 -17 43 -15 59 5 13 15 12
15 -7 3 -48 -30 -78 32 -32 64 25 18 13 21 -14 5z"/>
<path d="M11227 10582 c-35 -38 -15 -75 42 -78 l41 -2 0 43 c0 37 -3 44 -19
42 -15 -1 -16 -4 -8 -18 23 -36 -24 -78 -49 -44 -19 25 -18 31 8 55 12 11 17
20 11 20 -5 0 -17 -8 -26 -18z"/>
<path d="M11382 10530 c1 -41 3 -60 5 -42 3 19 9 30 15 26 6 -4 6 1 -1 14 -13
24 -6 48 16 56 40 16 60 -53 21 -72 -18 -8 -19 -11 -6 -11 26 -1 52 43 39 67
-14 26 -38 34 -61 22 -13 -7 -20 -6 -23 3 -3 6 -5 -22 -5 -63z"/>
<path d="M11552 10565 c-2 -43 11 -65 37 -65 11 0 9 4 -6 15 -14 10 -23 29
-26 53 l-4 37 -1 -40z"/>
<path d="M11618 10554 c-2 -25 0 -48 4 -50 5 -3 8 18 8 45 0 64 -7 66 -12 5z"/>
<path d="M11673 10589 c-6 -6 -9 -18 -6 -25 8 -22 22 -16 16 6 -6 23 15 28 35
8 8 -8 12 -8 12 -1 0 10 -22 23 -39 23 -4 0 -12 -5 -18 -11z"/>
<path d="M11937 10582 c-35 -38 -15 -75 42 -78 l41 -2 0 43 c0 37 -3 44 -19
42 -15 -1 -16 -4 -8 -18 23 -36 -24 -78 -49 -44 -19 25 -18 31 8 55 12 11 17
20 11 20 -5 0 -17 -8 -26 -18z"/>
<path d="M12063 10593 c-21 -8 -15 -33 12 -45 26 -12 34 -38 12 -38 -7 0 -19
6 -26 13 -11 10 -13 9 -9 -3 6 -19 35 -25 53 -10 19 16 9 37 -21 44 -13 4 -24
11 -24 16 0 15 21 23 33 11 17 -17 31 -13 17 4 -13 15 -25 17 -47 8z"/>
<path d="M12153 10589 c-6 -6 -9 -18 -6 -25 8 -22 22 -16 16 6 -6 23 15 28 35
8 8 -8 12 -8 12 -1 0 10 -22 23 -39 23 -4 0 -12 -5 -18 -11z"/>
<path d="M12250 10582 c-18 -14 -21 -25 -16 -45 7 -31 48 -46 71 -27 21 18 11
24 -13 9 -16 -10 -24 -10 -35 -1 -17 15 -11 58 10 67 18 6 45 -13 37 -26 -3
-5 0 -9 5 -9 18 0 12 29 -8 40 -25 13 -25 13 -51 -8z"/>
<path d="M18468 10589 c-21 -12 -24 -59 -6 -77 17 -17 43 -15 59 5 13 15 12
15 -7 3 -48 -30 -78 32 -32 64 25 18 13 21 -14 5z"/>
<path d="M18561 10547 c1 -52 1 -52 9 -13 4 21 13 41 19 46 9 5 6 9 -8 13 -19
5 -21 1 -20 -46z"/>
<path d="M18632 10545 c1 -49 2 -49 5 -8 7 71 58 67 66 -5 l4 -37 1 41 c2 47
-11 63 -50 61 -27 -2 -28 -4 -26 -52z"/>
<path d="M18743 10550 c0 -30 2 -43 4 -27 2 15 2 39 0 55 -2 15 -4 2 -4 -28z"/>
<path d="M18800 10582 c-18 -14 -21 -25 -16 -45 7 -31 48 -46 71 -27 21 18 11
24 -13 9 -16 -10 -24 -10 -35 -1 -17 15 -11 58 10 67 18 6 45 -13 37 -26 -3
-5 0 -9 5 -9 18 0 12 29 -8 40 -25 13 -25 13 -51 -8z"/>
<path d="M18901 10547 c1 -52 1 -52 9 -13 4 21 13 41 19 46 9 5 6 9 -8 13 -19
5 -21 1 -20 -46z"/>
<path d="M18973 10589 c-6 -6 -9 -18 -6 -25 8 -22 22 -16 16 6 -6 23 15 28 35
8 8 -8 12 -8 12 -1 0 10 -22 23 -39 23 -4 0 -12 -5 -18 -11z"/>
<path d="M19112 10538 c-1 -42 -7 -68 -14 -71 -10 -4 -10 -6 0 -6 19 -1 24 19
19 85 l-3 59 -2 -67z"/>
<path d="M19168 10589 c-25 -14 -23 -65 2 -79 47 -25 93 32 55 68 -16 16 -17
16 -6 -5 21 -41 -17 -81 -47 -51 -19 19 -14 45 10 62 25 18 13 21 -14 5z"/>
<path d="M19272 10558 c-2 -50 -2 -50 51 -52 26 -2 27 0 26 49 -1 50 -1 50 -9
12 -14 -74 -56 -77 -63 -5 l-4 43 -1 -47z"/>
<path d="M19381 10547 c1 -52 1 -52 9 -13 4 21 13 41 19 46 9 5 6 9 -8 13 -19
5 -21 1 -20 -46z"/>
<path d="M19463 10593 c-21 -8 -15 -33 12 -45 26 -12 34 -38 12 -38 -7 0 -19
6 -26 13 -11 10 -13 9 -9 -3 6 -19 35 -25 53 -10 19 16 9 37 -21 44 -13 4 -24
11 -24 16 0 15 21 23 33 11 17 -17 31 -13 17 4 -13 15 -25 17 -47 8z"/>
<path d="M2197 10570 c3 -11 9 -20 15 -20 5 0 4 9 -2 20 -6 11 -12 20 -14 20
-2 0 -2 -9 1 -20z"/>
<path d="M10037 10570 c3 -11 9 -20 15 -20 5 0 4 9 -2 20 -6 11 -12 20 -14 20
-2 0 -2 -9 1 -20z"/>
<path d="M11077 10570 c3 -11 9 -20 15 -20 5 0 4 9 -2 20 -6 11 -12 20 -14 20
-2 0 -2 -9 1 -20z"/>
<path d="M18517 10570 c3 -11 9 -20 15 -20 5 0 4 9 -2 20 -6 11 -12 20 -14 20
-2 0 -2 -9 1 -20z"/>
<path d="M1487 10563 c18 -2 50 -2 70 0 21 2 7 4 -32 4 -38 0 -55 -2 -38 -4z"/>
<path d="M10368 10563 c17 -2 47 -2 65 0 17 2 3 4 -33 4 -36 0 -50 -2 -32 -4z"/>
<path d="M2830 10541 c12 -8 12 -13 2 -23 -10 -10 -17 -10 -35 1 -20 13 -21
13 -8 -3 19 -22 56 -17 56 8 0 11 -7 21 -15 23 -13 4 -13 3 0 -6z"/>
<path d="M11710 10541 c12 -8 12 -13 2 -23 -10 -10 -17 -10 -35 1 -20 13 -21
13 -8 -3 19 -22 56 -17 56 8 0 11 -7 21 -15 23 -13 4 -13 3 0 -6z"/>
<path d="M12190 10541 c12 -8 12 -13 2 -23 -10 -10 -17 -10 -35 1 -20 13 -21
13 -8 -3 19 -22 56 -17 56 8 0 11 -7 21 -15 23 -13 4 -13 3 0 -6z"/>
<path d="M19010 10541 c12 -8 12 -13 2 -23 -10 -10 -17 -10 -35 1 -20 13 -21
13 -8 -3 19 -22 56 -17 56 8 0 11 -7 21 -15 23 -13 4 -13 3 0 -6z"/>
<path d="M18118 10524 c-13 -13 -20 -14 -39 -3 -22 11 -23 11 -10 -4 17 -21
45 -22 61 -2 18 21 8 28 -12 9z"/>
<path d="M780 10509 c0 -5 5 -7 10 -4 6 3 10 8 10 11 0 2 -4 4 -10 4 -5 0 -10
-5 -10 -11z"/>
<path d="M1370 10509 c0 -5 5 -7 10 -4 6 3 10 8 10 11 0 2 -4 4 -10 4 -5 0
-10 -5 -10 -11z"/>
<path d="M9610 10509 c0 -5 5 -7 10 -4 6 3 10 8 10 11 0 2 -4 4 -10 4 -5 0
-10 -5 -10 -11z"/>
<path d="M2014 10471 c3 -5 16 -11 28 -14 22 -6 22 -5 4 8 -22 17 -40 20 -32
6z"/>
<path d="M1482 9559 c2 -6 8 -10 13 -10 5 0 11 4 13 10 2 6 -4 11 -13 11 -9 0
-15 -5 -13 -11z"/>
<path d="M1582 9559 c2 -6 8 -10 13 -10 5 0 11 4 13 10 2 6 -4 11 -13 11 -9 0
-15 -5 -13 -11z"/>
<path d="M1730 9555 c-16 -19 0 -19 26 0 16 12 16 14 3 15 -9 0 -22 -7 -29
-15z"/>
<path d="M830 9495 c0 -37 4 -65 10 -65 6 0 10 11 10 25 0 14 4 25 8 25 5 0
14 -11 20 -25 6 -14 19 -25 28 -25 15 0 15 2 1 24 -14 21 -14 25 0 38 30 31
-2 67 -59 68 -15 0 -18 -10 -18 -65z m60 20 c0 -8 -9 -15 -20 -15 -11 0 -20 7
-20 15 0 8 9 15 20 15 11 0 20 -7 20 -15z"/>
<path d="M1360 9496 l0 -64 38 0 c46 0 62 12 62 48 0 33 -22 54 -50 47 -15 -4
-20 0 -20 14 0 10 -7 19 -15 19 -12 0 -15 -14 -15 -64z m75 -16 c0 -29 -32
-41 -41 -16 -9 24 4 48 23 44 12 -2 18 -12 18 -28z"/>
<path d="M1530 9495 c0 -51 3 -65 15 -65 12 0 15 14 15 65 0 51 -3 65 -15 65
-12 0 -15 -14 -15 -65z"/>
<path d="M2196 9545 c-5 -14 -1 -16 24 -10 23 5 30 3 30 -9 0 -9 -7 -16 -15
-16 -8 0 -15 -4 -15 -9 0 -5 7 -11 15 -15 18 -7 20 -36 2 -36 -7 0 -18 5 -25
12 -17 17 -28 2 -12 -17 17 -21 57 -19 69 4 6 10 7 21 3 25 -3 4 -6 24 -7 44
0 34 -3 37 -31 40 -22 2 -33 -2 -38 -13z"/>
<path d="M2312 9548 c-7 -7 -12 -30 -12 -53 0 -44 13 -65 41 -65 41 0 64 64
39 111 -12 21 -50 25 -68 7z m46 -20 c15 -15 16 -50 1 -65 -19 -19 -39 -3 -39
31 0 45 14 58 38 34z"/>
<path d="M2510 9518 c0 -45 -17 -84 -27 -60 -6 15 -36 16 -31 0 8 -22 37 -34
56 -22 20 13 31 124 12 124 -5 0 -10 -19 -10 -42z"/>
<path d="M1172 9530 c-7 -12 -8 -20 -2 -20 5 0 10 -16 10 -35 0 -35 22 -57 38
-40 4 4 1 10 -5 12 -17 6 -17 60 -1 65 9 3 8 9 -4 21 -21 21 -21 21 -36 -3z"/>
<path d="M1632 9530 c-7 -12 -8 -20 -2 -20 5 0 10 -16 10 -35 0 -35 22 -57 38
-40 4 4 1 10 -5 12 -17 6 -17 60 -1 65 9 3 8 9 -4 21 -21 21 -21 21 -36 -3z"/>
<path d="M958 9519 c-21 -12 -24 -59 -6 -77 17 -17 53 -15 69 4 12 15 10 16
-18 10 -18 -4 -34 -3 -38 3 -4 7 7 11 29 11 28 0 36 4 36 18 0 37 -36 52 -72
31z m47 -19 c4 -6 -5 -10 -20 -10 -15 0 -24 4 -20 10 3 6 12 10 20 10 8 0 17
-4 20 -10z"/>
<path d="M1050 9479 c0 -36 4 -49 14 -49 10 0 16 13 18 38 2 25 8 37 18 37 10
0 16 -12 18 -37 4 -48 32 -54 32 -7 0 51 -15 68 -60 67 l-40 0 0 -49z"/>
<path d="M1251 9517 c-15 -15 -14 -62 2 -75 6 -5 29 -10 50 -10 l37 0 0 47 0
47 -39 1 c-21 1 -43 -3 -50 -10z m54 -38 c0 -28 -29 -38 -39 -13 -7 19 11 47
28 41 6 -2 11 -14 11 -28z"/>
<path d="M1480 9480 c0 -38 4 -50 15 -50 11 0 15 12 15 50 0 38 -4 50 -15 50
-11 0 -15 -12 -15 -50z"/>
<path d="M1580 9480 c0 -38 4 -50 15 -50 11 0 15 12 15 50 0 38 -4 50 -15 50
-11 0 -15 -12 -15 -50z"/>
<path d="M1718 9519 c-21 -12 -24 -59 -6 -77 17 -17 53 -15 69 4 12 15 10 16
-18 10 -18 -4 -34 -3 -38 3 -4 7 7 11 29 11 28 0 36 4 36 18 0 37 -36 52 -72
31z m47 -19 c4 -6 -5 -10 -20 -10 -15 0 -24 4 -20 10 3 6 12 10 20 10 8 0 17
-4 20 -10z"/>
<path d="M1867 9523 c-10 -9 -9 -43 1 -43 5 0 17 -7 28 -15 18 -15 17 -16 -16
-9 -32 6 -33 5 -21 -10 20 -24 65 -17 69 11 3 17 -3 24 -22 29 -14 3 -26 11
-26 16 0 6 11 7 25 4 27 -7 35 8 9 18 -20 8 -39 8 -47 -1z"/>
<path d="M1960 9491 c0 -46 14 -60 58 -59 32 1 32 2 32 50 0 26 -4 48 -10 48
-5 0 -10 -12 -10 -27 0 -37 -14 -57 -34 -50 -10 4 -16 19 -16 42 0 19 -4 35
-10 35 -5 0 -10 -17 -10 -39z"/>
<path d="M2080 9479 c0 -27 5 -49 10 -49 6 0 10 14 10 30 0 18 6 33 15 36 24
10 17 29 -10 30 -23 2 -25 -1 -25 -47z"/>
<path d="M2578 9519 c-21 -12 -24 -59 -6 -77 20 -20 56 -14 74 13 15 23 15 27
0 50 -17 26 -40 31 -68 14z m47 -40 c0 -28 -29 -38 -39 -13 -7 19 11 47 28 41
6 -2 11 -14 11 -28z"/>
<path d="M2680 9491 c0 -46 14 -60 58 -59 32 1 32 2 32 50 0 26 -4 48 -10 48
-5 0 -10 -12 -10 -27 0 -37 -14 -57 -34 -50 -10 4 -16 19 -16 42 0 19 -4 35
-10 35 -5 0 -10 -17 -10 -39z"/>
<path d="M2790 9479 c0 -37 4 -49 15 -49 10 0 15 10 15 34 0 21 6 36 15 40 25
9 17 23 -15 24 -29 1 -30 0 -30 -49z"/>
<path d="M2877 9523 c-10 -9 -9 -43 1 -43 5 0 17 -7 28 -15 18 -15 17 -16 -16
-9 -32 6 -33 5 -21 -10 20 -24 65 -17 69 11 3 17 -3 24 -22 29 -14 3 -26 11
-26 16 0 6 11 7 25 4 27 -7 35 8 9 18 -20 8 -39 8 -47 -1z"/>
<path d="M1008 8893 c7 -3 16 -2 19 1 4 3 -2 6 -13 5 -11 0 -14 -3 -6 -6z"/>
<path d="M991 8238 c1 -16 3 -18 6 -6 2 9 12 19 21 21 12 3 10 5 -5 6 -18 1
-23 -4 -22 -21z"/>
<path d="M17295 8049 c-86 -79 -171 -282 -351 -834 -119 -366 -190 -559 -248
-676 -25 -49 -40 -87 -35 -83 36 22 133 272 299 774 154 464 214 620 280 731
103 173 186 159 294 -51 66 -126 116 -261 264 -710 164 -497 239 -686 301
-760 12 -14 5 1 -14 34 -61 104 -124 269 -280 735 -162 485 -222 643 -285 751
-80 137 -145 163 -225 89z"/>
<path d="M1008 7613 c7 -3 16 -2 19 1 4 3 -2 6 -13 5 -11 0 -14 -3 -6 -6z"/>
<path d="M958 6940 c2 -22 6 -40 8 -40 2 0 4 18 4 40 0 22 -3 40 -8 40 -4 0
-6 -18 -4 -40z"/>
<path d="M991 6958 c1 -16 3 -18 6 -6 2 9 12 19 21 21 12 3 10 5 -5 6 -18 1
-23 -4 -22 -21z"/>
<path d="M17270 6768 c-90 -32 -137 -61 -333 -209 -148 -112 -259 -180 -331
-203 -10 -4 -16 -9 -14 -12 10 -9 125 43 189 87 35 24 128 91 206 151 225 170
334 214 454 184 90 -24 160 -65 336 -198 87 -66 187 -137 223 -158 68 -41 149
-74 159 -65 3 3 -6 9 -19 12 -55 14 -176 86 -285 169 -330 253 -433 295 -585
242z"/>
<path d="M20715 6683 c-83 -11 -193 -60 -374 -168 -59 -35 -139 -80 -177 -100
-38 -20 -58 -33 -44 -29 36 9 67 26 229 122 374 222 467 222 836 2 137 -82
229 -130 247 -130 7 0 -10 11 -39 24 -28 14 -114 62 -190 107 -171 102 -266
146 -351 165 -67 14 -81 14 -137 7z"/>
<path d="M20572 6465 c-113 -20 -384 -86 -378 -92 2 -3 83 13 178 35 363 85
451 83 870 -17 70 -17 131 -31 135 -30 37 3 -317 89 -444 108 -95 14 -270 12
-361 -4z"/>
<path d="M16629 6423 c-13 -16 -12 -17 4 -4 9 7 17 15 17 17 0 8 -8 3 -21 -13z"/>
<path d="M20158 6363 c7 -3 16 -2 19 1 4 3 -2 6 -13 5 -11 0 -14 -3 -6 -6z"/>
<path d="M1008 6333 c7 -3 16 -2 19 1 4 3 -2 6 -13 5 -11 0 -14 -3 -6 -6z"/>
<path d="M4518 6173 c6 -2 18 -2 25 0 6 3 1 5 -13 5 -14 0 -19 -2 -12 -5z"/>
<path d="M6218 6173 c6 -2 18 -2 25 0 6 3 1 5 -13 5 -14 0 -19 -2 -12 -5z"/>
<path d="M7070 6176 c0 -2 7 -7 16 -10 8 -3 12 -2 9 4 -6 10 -25 14 -25 6z"/>
<path d="M8768 6173 c7 -3 16 -2 19 1 4 3 -2 6 -13 5 -11 0 -14 -3 -6 -6z"/>
<path d="M10448 6140 c2 -22 6 -40 8 -40 2 0 4 18 4 40 0 22 -3 40 -8 40 -4 0
-6 -18 -4 -40z"/>
<path d="M13013 6140 c0 -25 2 -35 4 -22 2 12 2 32 0 45 -2 12 -4 2 -4 -23z"/>
<path d="M13838 6173 c6 -2 18 -2 25 0 6 3 1 5 -13 5 -14 0 -19 -2 -12 -5z"/>
<path d="M15533 6173 c9 -2 23 -2 30 0 6 3 -1 5 -18 5 -16 0 -22 -2 -12 -5z"/>
<path d="M16375 6170 c-4 -6 -4 -14 -1 -17 3 -4 6 -1 6 5 0 15 26 16 33 2 3
-6 4 -5 3 2 -3 17 -32 22 -41 8z"/>
<path d="M18918 6140 c2 -22 6 -40 8 -40 2 0 4 18 4 40 0 22 -3 40 -8 40 -4 0
-6 -18 -4 -40z"/>
<path d="M22338 6173 c6 -2 18 -2 25 0 6 3 1 5 -13 5 -14 0 -19 -2 -12 -5z"/>
<path d="M23998 6140 c2 -22 6 -40 8 -40 2 0 4 18 4 40 0 22 -3 40 -8 40 -4 0
-6 -18 -4 -40z"/>
<path d="M24038 6173 c6 -2 18 -2 25 0 6 3 1 5 -13 5 -14 0 -19 -2 -12 -5z"/>
<path d="M24890 6176 c0 -2 7 -7 16 -10 8 -3 12 -2 9 4 -6 10 -25 14 -25 6z"/>
<path d="M10513 6135 c0 -22 2 -30 4 -17 2 12 2 30 0 40 -3 9 -5 -1 -4 -23z"/>
<path d="M14773 6135 c0 -22 2 -30 4 -17 2 12 2 30 0 40 -3 9 -5 -1 -4 -23z"/>
<path d="M16465 6160 c-3 -5 -1 -10 4 -10 6 0 11 5 11 10 0 6 -2 10 -4 10 -3
0 -8 -4 -11 -10z"/>
<path d="M17315 6160 c-3 -5 -1 -10 4 -10 6 0 11 5 11 10 0 6 -2 10 -4 10 -3
0 -8 -4 -11 -10z"/>
<path d="M19875 6160 c-3 -5 -1 -10 4 -10 6 0 11 5 11 10 0 6 -2 10 -4 10 -3
0 -8 -4 -11 -10z"/>
<path d="M20725 6160 c-3 -5 -1 -10 4 -10 6 0 11 5 11 10 0 6 -2 10 -4 10 -3
0 -8 -4 -11 -10z"/>
<path d="M21575 6160 c-3 -5 -1 -10 4 -10 6 0 11 5 11 10 0 6 -2 10 -4 10 -3
0 -8 -4 -11 -10z"/>
<path d="M24115 6160 c-3 -5 -1 -10 4 -10 6 0 11 5 11 10 0 6 -2 10 -4 10 -3
0 -8 -4 -11 -10z"/>
<path d="M25823 6135 c0 -22 2 -30 4 -17 2 12 2 30 0 40 -3 9 -5 -1 -4 -23z"/>
<path d="M2132 6130 c0 -19 2 -27 5 -17 2 9 2 25 0 35 -3 9 -5 1 -5 -18z"/>
<path d="M3832 6130 c0 -19 2 -27 5 -17 2 9 2 25 0 35 -3 9 -5 1 -5 -18z"/>
<path d="M6372 6130 c0 -19 2 -27 5 -17 2 9 2 25 0 35 -3 9 -5 1 -5 -18z"/>
<path d="M1222 6130 c0 -14 2 -19 5 -12 2 6 2 18 0 25 -3 6 -5 1 -5 -13z"/>
<path d="M1272 6125 c0 -16 2 -22 5 -12 2 9 2 23 0 30 -3 6 -5 -1 -5 -18z"/>
<path d="M2932 6130 c0 -14 2 -19 5 -12 2 6 2 18 0 25 -3 6 -5 1 -5 -13z"/>
<path d="M2982 6125 c0 -16 2 -22 5 -12 2 9 2 23 0 30 -3 6 -5 -1 -5 -18z"/>
<path d="M4546 6137 c3 -10 9 -15 12 -12 3 3 0 11 -7 18 -10 9 -11 8 -5 -6z"/>
<path d="M4632 6130 c0 -14 2 -19 5 -12 2 6 2 18 0 25 -3 6 -5 1 -5 -13z"/>
<path d="M4682 6125 c0 -16 2 -22 5 -12 2 9 2 23 0 30 -3 6 -5 -1 -5 -18z"/>
<path d="M5482 6130 c0 -14 2 -19 5 -12 2 6 2 18 0 25 -3 6 -5 1 -5 -13z"/>
<path d="M5532 6125 c0 -16 2 -22 5 -12 2 9 2 23 0 30 -3 6 -5 -1 -5 -18z"/>
<path d="M6402 6125 c0 -16 2 -22 5 -12 2 9 2 23 0 30 -3 6 -5 -1 -5 -18z"/>
<path d="M7153 6115 c0 -22 2 -30 4 -17 2 12 2 30 0 40 -3 9 -5 -1 -4 -23z"/>
<path d="M7252 6125 c0 -16 2 -22 5 -12 2 9 2 23 0 30 -3 6 -5 -1 -5 -18z"/>
<path d="M8002 6120 c0 -19 2 -27 5 -17 2 9 2 25 0 35 -3 9 -5 1 -5 -18z"/>
<path d="M8102 6125 c0 -16 2 -22 5 -12 2 9 2 23 0 30 -3 6 -5 -1 -5 -18z"/>
<path d="M8852 6120 c0 -19 2 -27 5 -17 2 9 2 25 0 35 -3 9 -5 1 -5 -18z"/>
<path d="M8952 6125 c0 -16 2 -22 5 -12 2 9 2 23 0 30 -3 6 -5 -1 -5 -18z"/>
<path d="M9682 6120 c0 -19 2 -27 5 -17 2 9 2 25 0 35 -3 9 -5 1 -5 -18z"/>
<path d="M9782 6125 c0 -16 2 -22 5 -12 2 9 2 23 0 30 -3 6 -5 -1 -5 -18z"/>
<path d="M11542 6125 c0 -16 2 -22 5 -12 2 9 2 23 0 30 -3 6 -5 -1 -5 -18z"/>
<path d="M12392 6125 c0 -16 2 -22 5 -12 2 9 2 23 0 30 -3 6 -5 -1 -5 -18z"/>
<path d="M13242 6125 c0 -16 2 -22 5 -12 2 9 2 23 0 30 -3 6 -5 -1 -5 -18z"/>
<path d="M15782 6125 c0 -16 2 -22 5 -12 2 9 2 23 0 30 -3 6 -5 -1 -5 -18z"/>
<path d="M17352 6130 c0 -14 2 -19 5 -12 2 6 2 18 0 25 -3 6 -5 1 -5 -13z"/>
<path d="M17482 6125 c0 -16 2 -22 5 -12 2 9 2 23 0 30 -3 6 -5 -1 -5 -18z"/>
<path d="M18352 6125 c0 -16 2 -22 5 -12 2 9 2 23 0 30 -3 6 -5 -1 -5 -18z"/>
<path d="M19182 6125 c0 -16 2 -22 5 -12 2 9 2 23 0 30 -3 6 -5 -1 -5 -18z"/>
<path d="M19912 6130 c0 -14 2 -19 5 -12 2 6 2 18 0 25 -3 6 -5 1 -5 -13z"/>
<path d="M20042 6125 c0 -16 2 -22 5 -12 2 9 2 23 0 30 -3 6 -5 -1 -5 -18z"/>
<path d="M20762 6130 c0 -14 2 -19 5 -12 2 6 2 18 0 25 -3 6 -5 1 -5 -13z"/>
<path d="M20892 6125 c0 -16 2 -22 5 -12 2 9 2 23 0 30 -3 6 -5 -1 -5 -18z"/>
<path d="M21612 6130 c0 -14 2 -19 5 -12 2 6 2 18 0 25 -3 6 -5 1 -5 -13z"/>
<path d="M21742 6125 c0 -16 2 -22 5 -12 2 9 2 23 0 30 -3 6 -5 -1 -5 -18z"/>
<path d="M22366 6137 c3 -10 9 -15 12 -12 3 3 0 11 -7 18 -10 9 -11 8 -5 -6z"/>
<path d="M22462 6130 c0 -14 2 -19 5 -12 2 6 2 18 0 25 -3 6 -5 1 -5 -13z"/>
<path d="M22592 6125 c0 -16 2 -22 5 -12 2 9 2 23 0 30 -3 6 -5 -1 -5 -18z"/>
<path d="M23442 6125 c0 -16 2 -22 5 -12 2 9 2 23 0 30 -3 6 -5 -1 -5 -18z"/>
<path d="M2202 6120 c0 -14 2 -19 5 -12 2 6 2 18 0 25 -3 6 -5 1 -5 -13z"/>
<path d="M3052 6120 c0 -14 2 -19 5 -12 2 6 2 18 0 25 -3 6 -5 1 -5 -13z"/>
<path d="M3902 6120 c0 -14 2 -19 5 -12 2 6 2 18 0 25 -3 6 -5 1 -5 -13z"/>
<path d="M4752 6120 c0 -14 2 -19 5 -12 2 6 2 18 0 25 -3 6 -5 1 -5 -13z"/>
<path d="M5602 6120 c0 -14 2 -19 5 -12 2 6 2 18 0 25 -3 6 -5 1 -5 -13z"/>
<path d="M2842 6114 c-7 -8 -8 -14 -3 -14 10 0 25 19 20 25 -2 1 -10 -3 -17
-11z"/>
<path d="M7050 6121 c0 -6 4 -13 10 -16 6 -3 7 1 4 9 -7 18 -14 21 -14 7z"/>
<path d="M9582 6114 c-7 -8 -8 -14 -3 -14 10 0 25 19 20 25 -2 1 -10 -3 -17
-11z"/>
<path d="M16406 6113 c-6 -14 -5 -15 5 -6 7 7 10 15 7 18 -3 3 -9 -2 -12 -12z"/>
<path d="M20662 6114 c-7 -8 -8 -14 -3 -14 10 0 25 19 20 25 -2 1 -10 -3 -17
-11z"/>
<path d="M24870 6121 c0 -6 4 -13 10 -16 6 -3 7 1 4 9 -7 18 -14 21 -14 7z"/>
<path d="M1964 6109 c-3 -5 6 -9 20 -9 31 0 34 6 6 13 -11 3 -23 1 -26 -4z"/>
<path d="M3594 6109 c-3 -5 6 -9 20 -9 31 0 34 6 6 13 -11 3 -23 1 -26 -4z"/>
<path d="M4444 6109 c-3 -5 6 -9 20 -9 31 0 34 6 6 13 -11 3 -23 1 -26 -4z"/>
<path d="M6144 6109 c-3 -5 6 -9 20 -9 31 0 34 6 6 13 -11 3 -23 1 -26 -4z"/>
<path d="M7187 6109 c7 -7 15 -10 18 -7 3 3 -2 9 -12 12 -14 6 -15 5 -6 -5z"/>
<path d="M13850 6110 c-9 -6 -10 -10 -3 -10 6 0 15 5 18 10 8 12 4 12 -15 0z"/>
<path d="M19784 6109 c-3 -5 6 -9 20 -9 31 0 34 6 6 13 -11 3 -23 1 -26 -4z"/>
<path d="M1078 6103 c6 -2 18 -2 25 0 6 3 1 5 -13 5 -14 0 -19 -2 -12 -5z"/>
<path d="M1908 6103 c6 -2 18 -2 25 0 6 3 1 5 -13 5 -14 0 -19 -2 -12 -5z"/>
<path d="M2758 6103 c6 -2 18 -2 25 0 6 3 1 5 -13 5 -14 0 -19 -2 -12 -5z"/>
<path d="M5303 6103 c9 -2 23 -2 30 0 6 3 -1 5 -18 5 -16 0 -22 -2 -12 -5z"/>
<path d="M6998 6103 c6 -2 18 -2 25 0 6 3 1 5 -13 5 -14 0 -19 -2 -12 -5z"/>
<path d="M7848 6103 c6 -2 18 -2 25 0 6 3 1 5 -13 5 -14 0 -19 -2 -12 -5z"/>
<path d="M11288 6103 c6 -2 18 -2 25 0 6 3 1 5 -13 5 -14 0 -19 -2 -12 -5z"/>
<path d="M12127 5992 c-22 -24 -22 -66 1 -83 14 -11 15 -11 5 1 -21 23 -16 67
9 84 12 9 18 16 12 16 -6 0 -18 -8 -27 -18z"/>
<path d="M12186 5995 c25 -19 40 -19 24 0 -7 8 -20 15 -28 15 -13 0 -12 -3 4
-15z"/>
<path d="M13783 5950 c0 -36 2 -50 4 -32 2 17 2 47 0 65 -2 17 -4 3 -4 -33z"/>
<path d="M13832 5996 c7 -8 15 -12 17 -11 5 6 -10 25 -20 25 -5 0 -4 -6 3 -14z"/>
<path d="M14293 5960 c0 -30 2 -43 4 -27 2 15 2 39 0 55 -2 15 -4 2 -4 -28z"/>
<path d="M12485 5980 c3 -5 8 -10 11 -10 2 0 4 5 4 10 0 6 -5 10 -11 10 -5 0
-7 -4 -4 -10z"/>
<path d="M12257 5973 c-10 -9 -9 -61 1 -67 5 -3 6 9 4 26 -3 19 1 33 9 39 8 5
9 9 3 9 -6 0 -14 -3 -17 -7z"/>
<path d="M12372 5950 c-2 -35 12 -60 32 -60 5 0 2 6 -7 13 -9 6 -18 28 -20 47
l-4 35 -1 -35z"/>
<path d="M12438 5945 c-2 -19 0 -41 4 -48 4 -7 8 9 8 36 0 55 -6 62 -12 12z"/>
<path d="M14416 5967 c3 -10 9 -15 12 -12 3 3 0 11 -7 18 -10 9 -11 8 -5 -6z"/>
<path d="M14460 5961 c0 -6 4 -13 10 -16 6 -3 7 1 4 9 -7 18 -14 21 -14 7z"/>
<path d="M11966 5945 c-20 -15 -20 -15 0 -30 10 -8 21 -14 24 -14 3 0 14 6 24
14 20 15 20 15 0 30 -10 8 -21 14 -24 14 -3 0 -14 -6 -24 -14z m38 -3 c2 -4 0
-14 -5 -22 -8 -13 -10 -13 -18 0 -10 15 -6 30 9 30 5 0 11 -4 14 -8z"/>
<path d="M12550 5950 c0 -5 5 -10 11 -10 5 0 7 5 4 10 -3 6 -8 10 -11 10 -2 0
-4 -4 -4 -10z"/>
<path d="M13626 5945 c-20 -15 -20 -15 0 -30 10 -8 21 -14 24 -14 3 0 14 6 24
14 20 15 20 15 0 30 -10 8 -21 14 -24 14 -3 0 -14 -6 -24 -14z m38 -3 c2 -4 0
-14 -5 -22 -8 -13 -10 -13 -18 0 -10 15 -6 30 9 30 5 0 11 -4 14 -8z"/>
<path d="M14350 5936 c0 -14 4 -27 8 -30 5 -3 6 8 4 25 -5 35 -12 38 -12 5z"/>
<path d="M12586 5933 c6 -4 14 -15 17 -23 5 -11 6 -9 4 4 -1 11 -9 21 -17 23
-10 3 -11 2 -4 -4z"/>
<path d="M12558 5898 c5 -5 16 -8 23 -6 8 3 3 7 -10 11 -17 4 -21 3 -13 -5z"/>
<path d="M12158 5893 c7 -3 16 -2 19 1 4 3 -2 6 -13 5 -11 0 -14 -3 -6 -6z"/>
<path d="M980 4925 c-16 -19 0 -19 26 0 16 12 16 14 3 15 -9 0 -22 -7 -29 -15z"/>
<path d="M1260 4925 c0 -8 5 -15 10 -15 6 0 10 7 10 15 0 8 -4 15 -10 15 -5 0
-10 -7 -10 -15z"/>
<path d="M2102 4929 c2 -6 8 -10 13 -10 5 0 11 4 13 10 2 6 -4 11 -13 11 -9 0
-15 -5 -13 -11z"/>
<path d="M692 4908 c-2 -27 -2 -27 -89 -31 l-88 -3 88 -2 87 -2 0 -50 0 -49
-82 -4 -83 -3 83 -2 c61 -1 84 1 88 11 3 8 3 47 1 88 -1 41 -4 62 -5 47z"/>
<path d="M830 4866 c0 -66 0 -66 29 -66 34 0 81 34 81 60 0 29 -32 59 -72 66
l-38 6 0 -66z m78 6 c4 -28 -14 -52 -39 -52 -16 0 -19 8 -19 41 0 38 1 40 28
37 19 -2 28 -9 30 -26z"/>
<path d="M1310 4865 c0 -37 4 -65 10 -65 6 0 10 28 10 65 0 37 -4 65 -10 65
-6 0 -10 -28 -10 -65z"/>
<path d="M1450 4888 c0 -45 -17 -84 -27 -60 -6 15 -36 16 -31 0 8 -22 37 -34
56 -22 20 13 31 124 12 124 -5 0 -10 -19 -10 -42z"/>
<path d="M2050 4865 c0 -51 3 -65 15 -65 12 0 15 14 15 65 0 51 -3 65 -15 65
-12 0 -15 -14 -15 -65z"/>
<path d="M1067 4907 c-15 -41 27 -128 50 -103 4 5 2 11 -4 13 -17 6 -17 60 -1
65 9 3 8 9 -4 21 -20 20 -34 22 -41 4z"/>
<path d="M968 4889 c-21 -12 -24 -59 -6 -77 17 -17 53 -15 69 4 12 15 10 16
-18 10 -18 -4 -34 -3 -38 3 -4 7 7 11 29 11 28 0 36 4 36 18 0 37 -36 52 -72
31z m47 -19 c4 -6 -5 -10 -20 -10 -15 0 -24 4 -20 10 3 6 12 10 20 10 8 0 17
-4 20 -10z"/>
<path d="M1141 4887 c-15 -15 -14 -62 2 -75 6 -5 29 -10 50 -10 l37 0 0 47 0
47 -39 1 c-21 1 -43 -3 -50 -10z m54 -38 c0 -28 -29 -38 -39 -13 -7 19 11 47
28 41 6 -2 11 -14 11 -28z"/>
<path d="M1260 4850 c0 -27 5 -50 10 -50 6 0 10 23 10 50 0 28 -4 50 -10 50
-5 0 -10 -22 -10 -50z"/>
<path d="M1518 4889 c-21 -12 -24 -59 -6 -77 20 -20 56 -14 74 13 15 23 15 27
0 50 -17 26 -40 31 -68 14z m47 -40 c0 -28 -29 -38 -39 -13 -7 19 11 47 28 41
6 -2 11 -14 11 -28z"/>
<path d="M1620 4861 c0 -46 14 -60 58 -59 32 1 32 2 32 50 0 26 -4 48 -10 48
-5 0 -10 -12 -10 -27 0 -37 -14 -57 -34 -50 -10 4 -16 19 -16 42 0 19 -4 35
-10 35 -5 0 -10 -17 -10 -39z"/>
<path d="M1740 4849 c0 -27 5 -49 10 -49 6 0 10 14 10 30 0 18 6 33 15 36 24
10 17 29 -10 30 -23 2 -25 -1 -25 -47z"/>
<path d="M1810 4848 c0 -26 5 -48 10 -48 6 0 10 11 10 24 0 34 10 56 25 56 15
0 25 -22 25 -56 0 -13 5 -24 10 -24 15 0 12 76 -3 88 -7 6 -27 10 -45 10 -32
-1 -32 -2 -32 -50z"/>
<path d="M1936 4881 c-34 -38 -7 -81 49 -79 35 1 35 2 35 48 0 46 0 47 -34 48
-21 1 -40 -5 -50 -17z m54 -16 c15 -18 6 -45 -15 -45 -18 0 -30 24 -21 45 7
19 20 19 36 0z"/>
<path d="M2100 4850 c0 -38 4 -50 15 -50 11 0 15 12 15 50 0 38 -4 50 -15 50
-11 0 -15 -12 -15 -50z"/>
<path d="M2168 4889 c-21 -12 -24 -59 -6 -77 17 -17 53 -15 69 4 12 15 10 16
-18 10 -18 -4 -34 -3 -38 3 -4 7 7 11 29 11 28 0 36 4 36 18 0 37 -36 52 -72
31z m47 -19 c4 -6 -5 -10 -20 -10 -15 0 -24 4 -20 10 3 6 12 10 20 10 8 0 17
-4 20 -10z"/>
<path d="M2260 4849 c0 -37 4 -49 15 -49 10 0 15 10 15 34 0 21 6 36 15 40 25
9 17 23 -15 24 -29 1 -30 0 -30 -49z"/>
<path d="M25833 4275 c-17 -7 -40 -26 -50 -41 -17 -26 -18 -60 -18 -494 0
-521 -2 -506 71 -536 29 -12 39 -12 68 0 73 30 71 15 71 536 0 434 -1 468 -18
494 -10 15 -34 34 -52 42 -40 16 -32 17 -72 -1z"/>
<path d="M10125 4165 c-14 -13 -25 -33 -25 -43 0 -24 41 -62 66 -62 25 0 62
26 51 36 -4 4 -13 2 -19 -4 -19 -19 -56 -14 -68 9 -20 36 34 93 55 59 3 -5 14
-10 23 -10 14 1 13 4 -7 20 -31 26 -47 25 -76 -5z"/>
<path d="M10279 4163 c-31 -78 -37 -103 -28 -103 5 0 12 7 15 15 8 21 51 19
63 -2 5 -10 12 -15 16 -11 9 8 -35 128 -47 128 -4 0 -13 -12 -19 -27z m34 -43
c4 -15 0 -20 -15 -20 -14 0 -18 5 -14 16 3 9 6 20 6 25 0 17 17 1 23 -21z"/>
<path d="M13605 4165 c-14 -13 -25 -33 -25 -43 0 -24 41 -62 66 -62 25 0 62
26 51 36 -4 4 -13 2 -19 -4 -19 -19 -56 -14 -68 9 -20 36 34 93 55 59 3 -5 14
-10 23 -10 14 1 13 4 -7 20 -31 26 -47 25 -76 -5z"/>
<path d="M13866 4181 c-3 -5 5 -8 19 -7 14 0 25 4 25 9 0 10 -38 9 -44 -2z"/>
<path d="M22170 4174 c-11 -12 -10 -18 3 -31 22 -23 52 0 36 28 -12 23 -22 24
-39 3z m30 -14 c0 -5 -4 -10 -10 -10 -5 0 -10 5 -10 10 0 6 5 10 10 10 6 0 10
-4 10 -10z"/>
<path d="M22248 4173 c-26 -32 -69 -113 -59 -113 6 0 26 28 46 61 36 61 42 85
13 52z"/>
<path d="M620 4120 l0 -60 35 0 c63 0 99 65 57 103 -10 10 -35 17 -55 17 l-37
0 0 -60z m74 34 c31 -31 13 -74 -31 -74 -20 0 -23 5 -23 38 0 55 22 69 54 36z"/>
<path d="M867 4166 c-3 -8 -4 -22 -2 -33 14 -70 16 -73 38 -73 20 1 21 2 5 14
-22 16 -24 66 -3 66 8 0 15 5 15 10 0 6 -7 10 -15 10 -8 0 -15 5 -15 10 0 15
-17 12 -23 -4z"/>
<path d="M13957 4166 c-3 -8 -4 -22 -2 -33 14 -70 16 -73 38 -73 20 1 21 2 5
14 -22 16 -24 66 -3 66 8 0 15 5 15 10 0 6 -7 10 -15 10 -8 0 -15 5 -15 10 0
15 -17 12 -23 -4z"/>
<path d="M17390 4120 c0 -66 17 -83 22 -22 l3 37 20 -37 c10 -21 22 -38 25
-38 4 0 14 15 23 33 l16 32 0 -32 c1 -22 6 -33 16 -33 12 0 15 13 15 60 0 73
-21 82 -46 20 -9 -22 -19 -40 -24 -40 -4 0 -15 18 -25 40 -27 60 -45 52 -45
-20z"/>
<path d="M21540 4120 c0 -33 4 -60 10 -60 6 0 10 17 10 38 l1 37 20 -37 c11
-21 22 -38 24 -38 2 0 13 17 24 38 l20 37 1 -37 c0 -21 5 -38 10 -38 6 0 10
27 10 60 0 74 -17 79 -44 14 l-19 -47 -24 47 c-13 25 -28 46 -33 46 -6 0 -10
-27 -10 -60z"/>
<path d="M25120 4120 c0 -33 4 -60 10 -60 6 0 10 11 10 25 0 18 5 25 19 25 11
0 27 7 35 16 25 25 4 54 -39 54 l-35 0 0 -60z m58 27 c2 -12 -3 -17 -17 -17
-15 0 -21 6 -21 21 0 25 33 22 38 -4z"/>
<path d="M25407 4166 c-3 -8 -4 -22 -2 -33 14 -70 16 -73 38 -73 20 1 21 2 5
14 -22 16 -24 66 -3 66 8 0 15 5 15 10 0 6 -7 10 -15 10 -8 0 -15 5 -15 10 0
15 -17 12 -23 -4z"/>
<path d="M754 4135 c-15 -23 -15 -27 0 -50 12 -19 24 -24 51 -23 35 1 35 1 35
48 0 47 0 47 -35 48 -27 1 -39 -4 -51 -23z m61 -25 c0 -18 -6 -26 -21 -28 -23
-3 -37 18 -27 44 10 25 48 13 48 -16z"/>
<path d="M944 4135 c-15 -23 -15 -27 0 -51 13 -18 24 -24 43 -22 15 2 28 9 31
15 2 9 -5 11 -27 7 -20 -4 -31 -2 -31 5 0 6 16 11 35 11 39 0 46 17 17 43 -26
24 -49 21 -68 -8z m61 -5 c4 -6 -5 -10 -19 -10 -14 0 -26 5 -26 10 0 6 9 10
19 10 11 0 23 -4 26 -10z"/>
<path d="M13734 4135 c-15 -23 -15 -27 0 -50 30 -45 86 -28 86 27 0 49 -59 65
-86 23z m61 -25 c0 -18 -6 -26 -21 -28 -23 -3 -37 18 -27 44 10 25 48 13 48
-16z"/>
<path d="M13840 4129 c0 -50 16 -69 55 -67 35 1 35 1 35 50 0 26 -4 48 -10 48
-5 0 -10 -18 -10 -40 0 -33 -4 -40 -19 -40 -21 0 -31 19 -31 56 0 13 -4 24
-10 24 -5 0 -10 -14 -10 -31z"/>
<path d="M17567 4148 c-20 -11 -23 -61 -4 -77 8 -6 30 -10 50 -9 l37 1 0 47
c0 45 -1 46 -33 47 -18 0 -41 -3 -50 -9z m57 -23 c8 -23 -4 -45 -25 -45 -22 0
-34 22 -25 45 3 8 14 15 25 15 10 0 21 -7 25 -15z"/>
<path d="M17670 4109 c0 -27 5 -49 10 -49 6 0 10 13 10 29 0 16 7 34 15 41 21
18 19 25 -10 26 -23 2 -25 -1 -25 -47z"/>
<path d="M17757 4148 c-21 -11 -22 -61 -2 -78 8 -7 26 -10 41 -7 19 3 24 1 20
-10 -3 -8 -6 -17 -6 -19 0 -9 -37 -3 -48 8 -9 9 -12 8 -12 -5 0 -25 47 -33 70
-12 15 14 20 31 20 75 l0 56 -33 1 c-18 0 -41 -3 -50 -9z m57 -23 c8 -23 -4
-45 -25 -45 -11 0 -22 7 -25 15 -9 23 3 45 25 45 10 0 21 -7 25 -15z"/>
<path d="M17874 4135 c-15 -23 -15 -27 0 -51 13 -18 24 -24 43 -22 15 2 28 9
31 15 2 9 -5 11 -27 7 -20 -4 -31 -2 -31 5 0 6 16 11 35 11 39 0 46 17 17 43
-26 24 -49 21 -68 -8z m61 -5 c4 -6 -5 -10 -19 -10 -14 0 -26 5 -26 10 0 6 9
10 19 10 11 0 23 -4 26 -10z"/>
<path d="M21704 4135 c-15 -23 -15 -27 0 -50 12 -19 24 -24 51 -23 35 1 35 1
35 48 0 47 0 47 -35 48 -27 1 -39 -4 -51 -23z m61 -25 c0 -18 -6 -26 -21 -28
-23 -3 -37 18 -27 44 10 25 48 13 48 -16z"/>
<path d="M21820 4109 c0 -27 5 -49 10 -49 6 0 10 16 10 35 0 22 6 38 15 41 23
9 18 22 -10 22 -23 0 -25 -4 -25 -49z"/>
<path d="M21894 4135 c-15 -23 -15 -27 1 -51 12 -19 23 -25 41 -21 16 3 24 0
24 -10 0 -20 -28 -27 -45 -13 -22 18 -32 3 -12 -17 13 -13 23 -15 44 -7 26 9
28 13 31 75 l3 66 -36 1 c-27 1 -39 -4 -51 -23z m61 -25 c0 -29 -38 -41 -48
-16 -10 26 4 47 27 44 15 -2 21 -10 21 -28z"/>
<path d="M22014 4135 c-15 -23 -15 -27 0 -51 13 -18 24 -24 43 -22 15 2 28 9
31 15 2 9 -5 11 -27 7 -20 -4 -31 -2 -31 5 0 6 16 11 35 11 39 0 46 17 17 43
-26 24 -49 21 -68 -8z m61 -5 c4 -6 -5 -10 -19 -10 -14 0 -26 5 -26 10 0 6 9
10 19 10 11 0 23 -4 26 -10z"/>
<path d="M25234 4135 c-15 -23 -15 -27 0 -51 13 -18 24 -24 43 -22 15 2 28 9
31 15 2 9 -5 11 -27 7 -20 -4 -31 -2 -31 5 0 6 16 11 35 11 39 0 46 17 17 43
-26 24 -49 21 -68 -8z m61 -5 c4 -6 -5 -10 -19 -10 -14 0 -26 5 -26 10 0 6 9
10 19 10 11 0 23 -4 26 -10z"/>
<path d="M25340 4109 c0 -27 5 -49 10 -49 6 0 10 16 10 35 0 22 6 38 15 41 23
9 18 22 -10 22 -23 0 -25 -4 -25 -49z"/>
<path d="M25488 4149 c-21 -12 -24 -59 -6 -77 17 -17 53 -15 68 3 11 13 8 14
-18 9 -17 -4 -32 -1 -36 5 -5 7 5 11 28 11 28 0 36 4 36 18 0 37 -36 52 -72
31z m47 -19 c4 -6 -5 -10 -20 -10 -15 0 -24 4 -20 10 3 6 12 10 20 10 8 0 17
-4 20 -10z"/>
<path d="M25590 4145 c-10 -12 -10 -18 0 -30 7 -8 18 -15 26 -15 7 0 16 -5 20
-12 5 -8 -2 -9 -24 -5 -38 8 -43 -10 -6 -19 17 -4 31 -1 41 8 13 13 13 17 -2
32 -9 9 -23 16 -31 16 -8 0 -14 5 -14 11 0 7 10 9 26 5 19 -5 25 -3 22 6 -7
19 -43 21 -58 3z"/>
<path d="M22242 4088 c4 -30 43 -33 43 -3 0 13 -8 21 -23 23 -20 3 -23 0 -20
-20z m28 -4 c0 -8 -4 -12 -10 -9 -5 3 -10 10 -10 16 0 5 5 9 10 9 6 0 10 -7
10 -16z"/>
<path d="M1267 1088 c-9 -15 -12 -40 -9 -70 5 -58 22 -64 22 -9 0 22 5 42 13
44 9 4 8 8 -3 17 -11 9 -12 13 -2 17 14 6 16 23 2 23 -5 0 -16 -10 -23 -22z"/>
<path d="M1350 1095 c-14 -16 -10 -18 14 -9 9 3 16 10 16 15 0 14 -16 11 -30
-6z"/>
<path d="M1040 1090 c0 -5 5 -10 10 -10 6 0 10 -25 10 -55 0 -30 5 -55 10 -55
6 0 10 28 10 65 0 58 -2 65 -20 65 -11 0 -20 -4 -20 -10z"/>
<path d="M1106 1084 c-5 -12 -2 -15 11 -9 31 11 37 10 41 -7 2 -11 -2 -18 -12
-18 -23 0 -19 -17 5 -23 12 -3 19 -12 17 -19 -6 -18 -39 -23 -49 -7 -4 7 -11
10 -15 6 -12 -11 17 -37 42 -37 23 0 49 31 36 44 -3 4 -6 24 -7 44 0 34 -3 37
-31 40 -22 2 -33 -2 -38 -14z"/>
<path d="M9814 1085 c-4 -8 -3 -22 0 -30 3 -9 0 -24 -6 -35 -17 -27 6 -52 46
-48 25 2 32 8 34 31 2 16 -2 27 -8 27 -7 0 -10 -6 -7 -14 7 -19 -18 -40 -39
-32 -23 9 -13 39 15 46 33 8 49 34 32 54 -17 20 -60 21 -67 1z m54 -16 c4 -19
-19 -31 -38 -19 -18 11 -4 42 17 38 10 -2 19 -10 21 -19z"/>
<path d="M9959 1076 c-7 -14 -9 -40 -5 -60 8 -44 50 -61 73 -31 16 22 17 69 3
96 -15 28 -58 25 -71 -5z m64 -16 c2 -10 2 -30 0 -45 -4 -20 -11 -25 -27 -23
-16 2 -22 11 -24 36 -5 54 38 81 51 32z"/>
<path d="M10082 1088 c-17 -17 -15 -93 3 -108 38 -31 83 23 67 82 -6 25 -14
34 -33 36 -13 2 -30 -3 -37 -10z m47 -12 c7 -8 11 -30 9 -48 -2 -25 -8 -34
-25 -36 -28 -4 -41 37 -24 74 12 27 23 30 40 10z"/>
<path d="M10275 1090 c-25 -10 -50 -40 -50 -60 0 -19 48 -60 70 -60 21 0 55
18 55 30 0 5 -12 3 -27 -5 -20 -11 -31 -11 -47 -3 -21 12 -21 12 4 19 l25 7
-27 1 c-16 1 -28 6 -28 11 0 6 12 11 28 11 24 2 24 2 4 6 -13 3 -21 10 -19 16
5 16 47 21 60 8 6 -6 16 -11 22 -11 5 1 -1 10 -14 20 -26 22 -27 22 -56 10z"/>
<path d="M13535 1089 c-11 -16 3 -23 19 -10 8 7 20 10 26 6 15 -9 12 -35 -5
-35 -8 0 -15 -4 -15 -10 0 -5 7 -10 15 -10 17 0 20 -35 4 -45 -5 -4 -19 1 -30
11 -17 15 -19 15 -19 1 0 -24 48 -33 68 -13 14 14 15 20 4 37 -10 16 -10 24
-1 35 9 11 9 17 -1 29 -14 17 -56 20 -65 4z"/>
<path d="M13677 1093 c-4 -3 -7 -13 -7 -21 0 -12 3 -12 19 2 11 10 25 15 30
11 20 -11 12 -41 -19 -70 -16 -16 -30 -32 -30 -37 0 -4 19 -7 43 -7 29 2 34 3
15 6 -32 5 -35 15 -12 33 27 23 36 48 24 70 -10 19 -49 27 -63 13z"/>
<path d="M13778 1035 c5 -84 22 -84 22 0 0 45 -4 65 -12 65 -10 0 -12 -18 -10
-65z"/>
<path d="M13925 1090 c-25 -10 -50 -40 -50 -60 0 -19 48 -60 70 -60 21 0 55
18 55 30 0 5 -12 3 -27 -5 -20 -11 -31 -11 -47 -3 -21 12 -21 12 4 19 l25 7
-27 1 c-16 1 -28 6 -28 11 0 6 12 11 28 11 24 2 24 2 4 6 -13 3 -21 10 -19 16
5 16 47 21 60 8 6 -6 16 -11 22 -11 5 1 -1 10 -14 20 -26 22 -27 22 -56 10z"/>
<path d="M629 1023 c24 -61 44 -66 60 -16 7 21 15 44 17 51 3 6 1 12 -4 12 -5
0 -17 -17 -25 -37 l-15 -38 -15 38 c-24 55 -40 46 -18 -10z"/>
<path d="M738 1059 c-21 -12 -24 -59 -6 -77 17 -17 53 -15 68 3 11 13 8 14
-18 9 -17 -4 -32 -1 -36 5 -5 7 5 11 28 11 28 0 36 4 36 18 0 37 -36 52 -72
31z m47 -19 c4 -6 -5 -10 -20 -10 -15 0 -24 4 -20 10 3 6 12 10 20 10 8 0 17
-4 20 -10z"/>
<path d="M830 1018 c0 -26 5 -48 10 -48 6 0 10 11 10 24 0 37 10 56 31 56 15
0 19 -7 19 -40 0 -22 5 -40 10 -40 14 0 12 76 -2 87 -7 6 -28 10 -45 10 -33 0
-33 -1 -33 -49z"/>
<path d="M1324 1045 c-15 -23 -15 -27 0 -51 13 -18 24 -24 43 -22 15 2 28 9
31 15 2 9 -5 11 -27 7 -20 -4 -31 -2 -31 5 0 6 16 11 35 11 39 0 46 17 17 43
-26 24 -49 21 -68 -8z m61 -5 c4 -6 -5 -10 -19 -10 -14 0 -26 5 -26 10 0 6 9
10 19 10 11 0 23 -4 26 -10z"/>
<path d="M1423 1058 c2 -7 10 -30 18 -50 7 -21 18 -38 25 -38 11 0 44 68 44
90 0 23 -19 8 -25 -20 -10 -43 -22 -45 -35 -5 -6 19 -16 35 -22 35 -6 0 -8 -6
-5 -12z"/>
<path d="M1530 1019 c0 -27 5 -49 10 -49 6 0 10 13 10 29 0 16 7 34 15 41 21
18 19 25 -10 26 -23 2 -25 -1 -25 -47z"/>
<path d="M25598 1033 c12 -2 30 -2 40 0 9 3 -1 5 -23 4 -22 0 -30 -2 -17 -4z"/>
<path d="M950 980 c0 -5 5 -10 10 -10 6 0 10 5 10 10 0 6 -4 10 -10 10 -5 0
-10 -4 -10 -10z"/>
<path d="M1600 980 c0 -5 5 -10 10 -10 6 0 10 5 10 10 0 6 -4 10 -10 10 -5 0
-10 -4 -10 -10z"/>
<path d="M13630 980 c0 -5 5 -10 10 -10 6 0 10 5 10 10 0 6 -4 10 -10 10 -5 0
-10 -4 -10 -10z"/>
</g>
</svg>
