<?xml version="1.0" standalone="no"?>
<!DOCTYPE svg PUBLIC "-//W3C//DTD SVG 20010904//EN"
 "http://www.w3.org/TR/2001/REC-SVG-20010904/DTD/svg10.dtd">
<svg version="1.0" xmlns="http://www.w3.org/2000/svg"
 width="1168.000000pt" height="490.000000pt" viewBox="0 0 1168.000000 490.000000"
 preserveAspectRatio="xMidYMid meet">

<g transform="translate(0.000000,490.000000) scale(0.100000,-0.100000)"
fill="#000000" stroke="none">
<path d="M825 4206 c-84 -37 -110 -128 -64 -219 23 -44 100 -127 119 -127 20
0 96 83 121 132 13 25 22 62 22 86 0 96 -111 168 -198 128z m123 -32 c79 -55
63 -165 -37 -258 l-31 -30 -31 30 c-49 45 -89 114 -89 151 0 74 48 123 120
123 25 0 56 -7 68 -16z"/>
<path d="M837 4112 c-10 -10 -17 -28 -17 -40 0 -28 34 -62 60 -62 27 0 60 35
60 63 0 50 -70 76 -103 39z m79 -29 c5 -19 2 -30 -11 -40 -11 -7 -22 -13 -25
-13 -3 0 -14 6 -25 13 -13 10 -16 21 -11 40 5 22 12 27 36 27 24 0 31 -5 36
-27z"/>
<path d="M1820 4177 c-14 -7 -26 -23 -28 -35 -2 -12 -8 -22 -13 -22 -5 0 -9
-9 -9 -20 0 -11 5 -20 10 -20 6 0 10 -30 10 -70 0 -63 2 -70 20 -70 18 0 20 7
20 70 0 56 3 70 15 70 8 0 15 9 15 20 0 11 -7 20 -15 20 -8 0 -15 5 -15 10 0
6 7 13 15 16 15 6 22 44 8 44 -5 0 -19 -6 -33 -13z"/>
<path d="M4847 4174 c-4 -4 -7 -58 -7 -121 l0 -113 25 0 26 0 -3 117 c-2 97
-6 118 -18 121 -9 1 -19 0 -23 -4z"/>
<path d="M1260 4050 l0 -110 25 0 c23 0 25 4 25 45 0 44 1 45 33 45 48 0 77
24 77 65 0 47 -29 65 -102 65 l-58 0 0 -110z m111 64 c18 -21 0 -48 -35 -52
-24 -3 -26 0 -26 32 0 31 3 36 24 36 13 0 29 -7 37 -16z"/>
<path d="M6290 4140 c0 -11 -4 -20 -10 -20 -5 0 -10 -9 -10 -20 0 -11 5 -20
10 -20 6 0 10 -24 10 -54 0 -61 16 -86 56 -86 30 0 34 35 4 43 -16 4 -20 14
-20 51 0 39 3 46 20 46 13 0 20 7 20 20 0 13 -7 20 -20 20 -13 0 -20 7 -20 20
0 13 -7 20 -20 20 -13 0 -20 -7 -20 -20z"/>
<path d="M1475 4098 c-15 -14 -28 -38 -32 -60 -5 -32 -1 -41 25 -68 38 -38 80
-40 119 -5 28 24 28 24 5 25 -13 0 -32 -5 -43 -10 -23 -13 -59 3 -59 25 0 12
14 15 60 15 60 0 60 0 60 29 0 62 -85 92 -135 49z m93 -40 c3 -15 -4 -18 -37
-18 -39 0 -53 14 -34 34 14 14 68 1 71 -16z"/>
<path d="M1657 4113 c-4 -3 -7 -44 -7 -90 0 -81 0 -83 25 -83 23 0 24 4 27 63
3 56 5 62 26 65 16 2 22 10 22 27 0 22 -3 23 -25 15 -15 -6 -26 -6 -30 0 -7
11 -29 13 -38 3z"/>
<path d="M1930 4107 c-55 -28 -62 -108 -13 -147 89 -70 194 51 114 131 -32 31
-61 36 -101 16z m82 -52 c8 -19 8 -31 0 -51 -10 -21 -18 -25 -45 -22 -28 3
-32 7 -35 36 -4 40 12 62 44 62 16 0 28 -8 36 -25z"/>
<path d="M2100 4030 c0 -83 1 -90 20 -90 17 0 20 7 20 49 0 62 7 81 31 81 14
0 19 7 19 26 0 26 -1 26 -25 10 -22 -14 -25 -15 -25 -1 0 8 -9 15 -20 15 -19
0 -20 -7 -20 -90z"/>
<path d="M2230 4030 c0 -83 1 -90 20 -90 18 0 20 7 20 59 0 64 13 85 52 79 21
-3 23 -9 26 -70 3 -60 5 -68 22 -68 17 0 20 7 20 44 0 65 14 96 44 96 33 0 46
-26 46 -89 0 -44 3 -51 20 -51 18 0 20 7 20 54 0 70 -13 103 -46 118 -22 10
-31 9 -56 -5 -27 -16 -31 -16 -55 0 -21 14 -30 15 -56 5 -21 -8 -33 -9 -35 -2
-2 5 -12 10 -23 10 -17 0 -19 -8 -19 -90z"/>
<path d="M2587 4100 c-78 -61 -16 -187 75 -152 16 6 28 6 28 1 0 -5 9 -9 20
-9 19 0 20 7 20 90 0 83 -1 90 -20 90 -11 0 -20 -7 -20 -16 0 -14 -2 -14 -22
0 -30 21 -50 20 -81 -4z m91 -32 c7 -7 12 -24 12 -38 0 -31 -17 -50 -45 -50
-28 0 -45 19 -45 50 0 31 17 50 45 50 12 0 26 -5 33 -12z"/>
<path d="M2780 4030 c0 -83 1 -90 20 -90 18 0 20 7 20 59 0 64 13 85 52 79 21
-3 23 -9 26 -70 3 -60 5 -68 22 -68 18 0 20 7 20 66 0 36 -4 74 -10 84 -13 24
-55 33 -82 19 -17 -9 -23 -9 -26 0 -2 6 -12 11 -23 11 -17 0 -19 -8 -19 -90z"/>
<path d="M3025 4108 c-52 -28 -63 -101 -20 -143 31 -32 86 -34 115 -5 37 37
13 56 -33 25 -20 -13 -25 -13 -45 1 -24 17 -30 62 -10 82 15 15 58 16 58 2 0
-5 11 -10 25 -10 32 0 32 13 -1 39 -29 23 -58 26 -89 9z"/>
<path d="M3205 4098 c-15 -14 -28 -38 -32 -60 -5 -32 -1 -41 25 -68 38 -38 80
-40 119 -5 28 24 28 24 5 25 -13 0 -32 -5 -43 -10 -23 -13 -59 3 -59 25 0 12
14 15 60 15 60 0 60 0 60 29 0 62 -85 92 -135 49z m93 -40 c3 -15 -4 -18 -37
-18 -39 0 -53 14 -34 34 14 14 68 1 71 -16z"/>
<path d="M3460 3990 c0 -123 1 -130 20 -130 17 0 20 7 20 50 0 47 11 63 25 40
7 -11 45 -13 70 -4 19 8 45 55 45 83 0 35 -22 69 -53 82 -25 11 -34 10 -58 -4
-25 -14 -29 -14 -29 -2 0 8 -9 15 -20 15 -19 0 -20 -7 -20 -130z m125 66 c24
-35 5 -76 -34 -76 -46 0 -68 52 -35 84 22 23 51 20 69 -8z"/>
<path d="M3697 4100 c-78 -61 -16 -187 75 -152 16 6 28 6 28 1 0 -5 9 -9 20
-9 19 0 20 7 20 90 0 83 -1 90 -20 90 -11 0 -20 -7 -20 -16 0 -14 -2 -14 -22
0 -30 21 -50 20 -81 -4z m91 -32 c7 -7 12 -24 12 -38 0 -31 -17 -50 -45 -50
-28 0 -45 19 -45 50 0 31 17 50 45 50 12 0 26 -5 33 -12z"/>
<path d="M3890 4030 c0 -83 1 -90 20 -90 17 0 20 7 20 49 0 62 7 81 31 81 14
0 19 7 19 26 0 26 -1 26 -25 10 -22 -14 -25 -15 -25 -1 0 8 -9 15 -20 15 -19
0 -20 -7 -20 -90z"/>
<path d="M4115 4098 c-15 -14 -28 -38 -32 -60 -5 -32 -1 -41 25 -68 38 -38 80
-40 119 -5 28 24 28 24 5 25 -13 0 -32 -5 -43 -10 -23 -13 -59 3 -59 25 0 12
14 15 60 15 60 0 60 0 60 29 0 62 -85 92 -135 49z m93 -40 c3 -15 -4 -18 -37
-18 -39 0 -53 14 -34 34 14 14 68 1 71 -16z"/>
<path d="M4297 4113 c-4 -3 -7 -44 -7 -90 0 -81 0 -83 25 -83 23 0 24 3 27 68
3 61 5 67 26 70 39 6 52 -15 52 -79 0 -52 2 -59 20 -59 16 0 19 8 22 61 3 69
22 94 56 73 12 -8 18 -27 20 -73 3 -53 6 -61 22 -61 18 0 20 7 20 69 0 50 -4
74 -16 85 -25 25 -61 30 -89 12 -23 -15 -27 -15 -51 1 -21 13 -32 15 -55 6
-17 -7 -31 -7 -35 -2 -6 11 -28 12 -37 2z"/>
<path d="M4630 3990 c0 -123 1 -130 20 -130 17 0 20 7 20 50 0 47 11 63 25 40
7 -11 45 -13 70 -4 19 8 45 55 45 83 0 35 -22 69 -53 82 -25 11 -34 10 -58 -4
-25 -14 -29 -14 -29 -2 0 8 -9 15 -20 15 -19 0 -20 -7 -20 -130z m125 66 c24
-35 5 -76 -34 -76 -46 0 -68 52 -35 84 22 23 51 20 69 -8z"/>
<path d="M4957 4100 c-78 -61 -16 -187 75 -152 16 6 28 6 28 1 0 -5 9 -9 20
-9 19 0 20 7 20 90 0 83 -1 90 -20 90 -11 0 -20 -7 -20 -16 0 -14 -2 -14 -22
0 -30 21 -50 20 -81 -4z m91 -32 c7 -7 12 -24 12 -38 0 -31 -17 -50 -45 -50
-28 0 -45 19 -45 50 0 31 17 50 45 50 12 0 26 -5 33 -12z"/>
<path d="M5178 4101 c-14 -12 -29 -35 -33 -52 -19 -88 81 -145 143 -81 27 27
27 27 5 30 -12 2 -33 -4 -46 -12 -35 -24 -59 -2 -55 49 3 44 24 56 63 35 12
-7 30 -10 40 -8 16 3 16 4 -1 26 -28 33 -82 39 -116 13z"/>
<path d="M5365 4098 c-15 -14 -28 -38 -32 -60 -5 -32 -1 -41 25 -68 38 -38 80
-40 119 -5 28 24 28 24 5 25 -13 0 -32 -5 -43 -10 -23 -13 -59 3 -59 25 0 12
14 15 60 15 60 0 60 0 60 29 0 62 -85 92 -135 49z m93 -40 c3 -15 -4 -18 -37
-18 -39 0 -53 14 -34 34 14 14 68 1 71 -16z"/>
<path d="M5547 4113 c-4 -3 -7 -44 -7 -90 0 -81 0 -83 25 -83 23 0 24 3 27 68
3 61 5 67 26 70 39 6 52 -15 52 -79 0 -52 2 -59 20 -59 16 0 19 8 22 61 3 69
22 94 56 73 12 -8 18 -27 20 -73 3 -53 6 -61 22 -61 18 0 20 7 20 69 0 50 -4
74 -16 85 -25 25 -61 30 -89 12 -23 -15 -27 -15 -51 1 -21 13 -32 15 -55 6
-17 -7 -31 -7 -35 -2 -6 11 -28 12 -37 2z"/>
<path d="M5915 4108 c-33 -17 -45 -40 -45 -80 0 -51 35 -88 82 -88 35 0 78 23
78 42 0 10 -41 7 -71 -6 -16 -7 -49 16 -49 35 0 5 29 9 65 9 70 0 76 6 54 53
-19 41 -73 58 -114 35z m74 -41 c6 -8 8 -17 4 -20 -9 -10 -83 -9 -83 1 0 29
59 43 79 19z"/>
<path d="M6077 4113 c-4 -3 -7 -44 -7 -90 0 -81 0 -83 25 -83 23 0 24 3 27 68
3 61 5 67 26 70 39 6 52 -15 52 -79 0 -52 2 -59 20 -59 18 0 20 7 20 65 0 57
-3 69 -25 90 -27 28 -33 29 -69 15 -16 -6 -27 -6 -31 0 -7 11 -29 13 -38 3z"/>
<path d="M1462 2823 c2 -10 10 -18 18 -18 22 0 18 29 -3 33 -14 3 -18 -1 -15
-15z"/>
<path d="M2712 2823 c2 -10 10 -18 18 -18 22 0 18 29 -3 33 -14 3 -18 -1 -15
-15z"/>
<path d="M970 2710 c0 -91 3 -110 15 -110 12 0 15 15 15 78 l1 77 33 -74 c18
-41 38 -77 45 -79 6 -2 26 29 46 70 l34 73 0 -72 c1 -66 3 -73 21 -73 19 0 20
7 20 110 0 104 -1 110 -20 110 -15 0 -26 -13 -41 -47 -12 -27 -29 -66 -39 -88
l-17 -40 -41 88 c-58 124 -72 119 -72 -23z"/>
<path d="M1840 2710 l0 -110 50 0 c38 0 50 4 50 15 0 10 -11 15 -35 15 l-35 0
0 95 c0 78 -3 95 -15 95 -12 0 -15 -19 -15 -110z"/>
<path d="M2600 2802 c0 -10 -5 -23 -12 -30 -9 -9 -9 -15 0 -24 7 -7 12 -37 12
-68 0 -61 11 -80 47 -80 28 0 31 26 3 33 -17 4 -20 14 -20 61 0 49 2 56 20 56
11 0 20 4 20 9 0 5 -9 11 -20 14 -12 3 -20 14 -20 26 0 12 -6 21 -15 21 -8 0
-15 -8 -15 -18z"/>
<path d="M3560 2780 c-8 -19 -22 -32 -39 -36 -55 -12 -56 -13 -28 -42 22 -23
25 -34 20 -65 -6 -42 -4 -43 37 -22 27 14 33 14 60 0 41 -21 43 -20 37 22 -5
31 -2 42 20 65 28 29 27 30 -28 42 -17 4 -31 17 -39 36 -7 16 -16 30 -20 30
-4 0 -13 -14 -20 -30z m38 -25 c8 -17 20 -25 37 -25 28 0 32 -12 10 -30 -8 -7
-15 -28 -15 -46 0 -32 -1 -33 -25 -22 -19 8 -31 8 -50 0 -24 -11 -25 -10 -25
22 0 18 -7 39 -15 46 -22 18 -18 30 10 30 17 0 29 8 37 25 6 14 14 25 18 25 4
0 12 -11 18 -25z"/>
<path d="M4165 2781 c-6 -11 9 -23 19 -14 9 9 7 23 -3 23 -6 0 -12 -4 -16 -9z"/>
<path d="M1285 2770 c-33 -13 -48 -38 -48 -82 0 -67 60 -107 116 -77 16 9 22
9 25 0 2 -6 10 -11 18 -11 11 0 14 18 14 85 0 69 -3 85 -15 85 -8 0 -15 -5
-15 -11 0 -5 -10 -3 -22 5 -25 18 -42 19 -73 6z m70 -34 c37 -27 17 -106 -28
-106 -53 0 -77 75 -35 104 27 20 39 20 63 2z"/>
<path d="M1617 2774 c-4 -4 -20 -7 -37 -6 l-30 1 0 -85 c0 -68 3 -84 15 -84
12 0 15 14 15 65 0 53 3 66 19 75 47 25 71 -2 71 -81 0 -46 3 -59 15 -59 12 0
15 14 15 68 0 39 -5 75 -12 85 -15 18 -60 32 -71 21z"/>
<path d="M2024 2770 c-56 -22 -72 -103 -29 -145 53 -54 145 -16 145 59 0 48
-8 65 -41 81 -31 17 -44 18 -75 5z m64 -36 c42 -29 18 -104 -34 -104 -49 0
-68 85 -25 110 23 13 33 12 59 -6z"/>
<path d="M2225 2771 c-33 -14 -47 -38 -49 -82 -1 -33 5 -46 27 -65 32 -28 73
-31 105 -8 27 19 28 34 2 34 -11 0 -20 -5 -20 -11 0 -6 -14 -9 -32 -7 -37 3
-55 37 -44 81 8 35 49 46 76 22 10 -9 26 -15 35 -13 16 3 16 5 -1 25 -21 26
-69 37 -99 24z"/>
<path d="M2415 2770 c-33 -13 -48 -38 -48 -82 0 -67 60 -107 116 -77 16 9 22
9 25 0 2 -6 10 -11 18 -11 11 0 14 18 14 85 0 69 -3 85 -15 85 -8 0 -15 -5
-15 -11 0 -5 -10 -3 -22 5 -25 18 -42 19 -73 6z m70 -34 c37 -27 17 -106 -28
-106 -53 0 -77 75 -35 104 27 20 39 20 63 2z"/>
<path d="M2832 2770 c-28 -12 -52 -66 -45 -103 6 -33 47 -67 79 -67 80 0 123
86 72 144 -26 29 -72 40 -106 26z m65 -28 c22 -14 32 -57 19 -83 -15 -31 -64
-38 -83 -13 -37 51 14 128 64 96z"/>
<path d="M3065 2770 c-11 -4 -30 -6 -42 -3 -22 5 -23 3 -23 -81 0 -70 3 -86
15 -86 11 0 15 13 15 53 0 62 21 100 53 95 29 -4 47 -43 47 -100 0 -36 4 -48
15 -48 12 0 15 14 15 65 0 57 -3 69 -25 90 -25 26 -37 29 -70 15z"/>
<path d="M4230 2695 c0 -50 4 -85 10 -85 6 0 10 35 10 85 0 50 -4 85 -10 85
-6 0 -10 -35 -10 -85z"/>
<path d="M4290 2695 c0 -50 4 -85 10 -85 6 0 10 35 10 85 0 50 -4 85 -10 85
-6 0 -10 -35 -10 -85z"/>
<path d="M10420 2769 c0 -8 20 -35 45 -59 l45 -44 35 34 35 34 40 -39 c22 -21
40 -43 40 -47 0 -4 -14 -8 -31 -8 -17 0 -28 -4 -24 -10 6 -10 87 -14 96 -6 2
3 3 25 1 50 -4 49 -22 64 -22 19 0 -27 -1 -26 -50 22 l-50 49 -35 -34 -35 -34
-45 44 c-27 27 -45 38 -45 29z"/>
<path d="M1460 2685 c0 -69 3 -85 15 -85 12 0 15 16 15 85 0 69 -3 85 -15 85
-12 0 -15 -16 -15 -85z"/>
<path d="M2710 2685 c0 -69 3 -85 15 -85 12 0 15 16 15 85 0 69 -3 85 -15 85
-12 0 -15 -16 -15 -85z"/>
<path d="M3810 2690 c0 -47 4 -80 10 -80 6 0 10 26 11 58 l1 57 25 -57 c15
-32 29 -58 33 -58 4 0 19 26 33 58 l27 57 0 -57 c0 -45 3 -58 15 -58 12 0 15
16 15 80 0 102 -19 109 -57 20 -15 -33 -29 -60 -32 -60 -3 1 -18 28 -33 60
-15 33 -32 60 -37 60 -7 0 -11 -31 -11 -80z"/>
<path d="M5260 2756 c0 -8 -6 -17 -12 -19 -10 -4 -10 -7 -1 -14 6 -5 13 -28
15 -52 3 -43 28 -75 45 -57 4 4 0 12 -10 17 -22 13 -25 89 -2 89 8 0 15 5 15
10 0 6 -7 10 -15 10 -8 0 -15 7 -15 15 0 8 -4 15 -10 15 -5 0 -10 -6 -10 -14z"/>
<path d="M4027 2722 c-52 -57 18 -142 79 -98 25 19 12 31 -15 14 -15 -9 -26
-10 -38 -2 -35 22 -26 34 26 34 43 0 51 3 51 18 0 46 -72 69 -103 34z m73 -17
c11 -13 7 -15 -28 -15 -33 0 -40 3 -36 15 4 8 16 15 29 15 12 0 28 -7 35 -15z"/>
<path d="M4170 2675 c0 -37 4 -65 10 -65 6 0 10 28 10 65 0 37 -4 65 -10 65
-6 0 -10 -28 -10 -65z"/>
<path d="M4367 2722 c-52 -57 18 -142 79 -98 25 19 12 31 -15 14 -15 -9 -26
-10 -38 -2 -35 22 -26 34 26 34 43 0 51 3 51 18 0 46 -72 69 -103 34z m73 -17
c11 -13 7 -15 -28 -15 -33 0 -40 3 -36 15 4 8 16 15 29 15 12 0 28 -7 35 -15z"/>
<path d="M4500 2692 c0 -60 19 -81 73 -79 l37 1 0 63 c0 35 -4 63 -10 63 -5 0
-10 -23 -10 -50 0 -38 -4 -52 -16 -57 -30 -11 -49 11 -52 61 -4 61 -22 59 -22
-2z"/>
<path d="M4660 2675 c0 -37 4 -65 10 -65 6 0 10 22 10 49 0 41 4 51 20 56 11
3 20 11 20 16 0 13 -14 11 -28 -3 -9 -9 -12 -9 -12 0 0 7 -4 12 -10 12 -6 0
-10 -28 -10 -65z"/>
<path d="M4823 2733 c-7 -2 -13 -15 -13 -28 0 -18 8 -26 35 -35 19 -6 35 -18
35 -26 0 -17 -31 -19 -48 -2 -6 6 -15 8 -19 4 -10 -9 25 -36 47 -36 21 0 40
20 40 41 0 11 -13 23 -35 30 -19 7 -35 19 -35 26 0 16 32 17 48 1 17 -17 28
-2 12 17 -12 15 -42 18 -67 8z"/>
<path d="M4940 2645 c0 -57 4 -95 10 -95 6 0 10 18 10 40 0 37 2 40 19 30 29
-15 49 -12 71 10 53 53 -4 135 -71 100 -13 -7 -19 -7 -19 0 0 5 -4 10 -10 10
-6 0 -10 -38 -10 -95z m101 54 c22 -42 -20 -87 -57 -61 -18 12 -24 42 -14 63
14 26 56 25 71 -2z"/>
<path d="M5110 2720 c-26 -26 -25 -51 1 -84 53 -67 143 11 93 82 -19 28 -67
29 -94 2z m81 -21 c22 -42 -20 -87 -57 -61 -17 11 -22 35 -13 60 11 29 54 30
70 1z"/>
<path d="M972 1828 c-15 -15 -16 -48 -1 -48 6 0 19 10 29 22 15 19 20 20 34 9
27 -22 18 -49 -29 -95 -25 -25 -45 -49 -45 -55 0 -7 25 -11 65 -11 37 0 65 4
65 10 0 6 -18 10 -41 10 l-41 0 36 42 c25 28 36 51 36 73 0 40 -16 55 -60 55
-20 0 -41 -5 -48 -12z"/>
<path d="M1132 1828 c-15 -15 -16 -48 -1 -48 6 0 19 10 29 22 15 19 20 20 34
9 27 -22 18 -49 -29 -95 -25 -25 -45 -49 -45 -55 0 -7 25 -11 65 -11 37 0 65
4 65 10 0 6 -18 10 -41 10 l-41 0 36 42 c25 28 36 51 36 73 0 40 -16 55 -60
55 -20 0 -41 -5 -48 -12z"/>
<path d="M1270 1825 c0 -8 7 -15 15 -15 12 0 15 -16 15 -85 0 -69 3 -85 15
-85 12 0 15 18 15 100 l0 100 -30 0 c-20 0 -30 -5 -30 -15z"/>
<path d="M1370 1825 c0 -11 12 -15 50 -15 l49 0 -34 -76 c-39 -85 -41 -94 -21
-94 13 0 86 160 86 188 0 8 -20 12 -65 12 -51 0 -65 -3 -65 -15z"/>
<path d="M1610 1785 c0 -48 3 -55 19 -55 11 0 23 5 26 10 10 16 44 11 53 -7
13 -25 -3 -63 -27 -63 -11 0 -23 5 -26 10 -3 6 -16 10 -28 10 l-21 0 21 -22
c26 -26 77 -28 100 -5 20 20 21 73 1 93 -16 17 -44 20 -70 9 -15 -6 -18 -2
-18 19 0 24 3 26 45 26 33 0 45 4 45 15 0 12 -13 15 -60 15 l-60 0 0 -55z"/>
<path d="M1805 1820 c-22 -24 -25 -121 -4 -146 20 -24 51 -32 81 -22 49 17 61
124 20 171 -21 23 -74 22 -97 -3z m80 -20 c4 -6 7 -32 7 -57 0 -54 -22 -79
-53 -62 -15 8 -19 21 -19 63 0 29 3 56 7 59 10 11 51 8 58 -3z"/>
<path d="M2070 1800 c-15 -16 -33 -30 -39 -30 -6 0 -11 -4 -11 -10 0 -5 5 -10
10 -10 14 0 12 -27 -2 -33 -10 -4 -10 -6 0 -6 7 -1 25 -16 41 -33 24 -27 36
-33 69 -33 38 0 82 25 82 47 0 14 -33 9 -52 -9 -14 -13 -25 -14 -45 -7 -37 13
-40 32 -6 37 27 4 27 4 -4 6 -44 1 -46 31 -3 31 17 0 30 5 30 10 0 6 -12 10
-26 10 -22 0 -25 2 -14 15 14 17 66 20 75 5 8 -13 45 -13 45 -1 0 19 -45 41
-83 41 -30 0 -45 -7 -67 -30z"/>
<path d="M1534 1669 c-3 -6 -2 -15 4 -21 13 -13 32 -2 32 18 0 16 -26 19 -36
3z"/>
<path d="M3160 1260 c-32 -62 -21 -190 18 -214 5 -3 1 11 -9 31 -25 48 -24
126 1 181 24 53 17 55 -10 2z"/>
<path d="M3590 1300 c0 -3 9 -23 20 -45 25 -50 25 -117 0 -174 -15 -31 -16
-40 -6 -32 42 35 46 162 8 222 -12 19 -22 32 -22 29z"/>
<path d="M6240 1260 c-32 -62 -21 -190 18 -214 5 -3 1 11 -9 31 -25 48 -24
126 1 181 24 53 17 55 -10 2z"/>
<path d="M6610 1300 c0 -3 9 -23 20 -45 25 -50 25 -117 0 -174 -15 -31 -16
-40 -6 -32 42 35 46 162 8 222 -12 19 -22 32 -22 29z"/>
<path d="M2360 1165 c0 -50 4 -85 10 -85 6 0 10 35 10 85 0 50 -4 85 -10 85
-6 0 -10 -35 -10 -85z"/>
<path d="M3237 1242 c7 -5 13 -40 16 -87 l3 -80 2 88 c2 77 0 87 -15 87 -12 0
-14 -3 -6 -8z"/>
<path d="M3320 1235 c-7 -9 -10 -18 -7 -22 4 -3 9 2 13 11 8 21 51 21 62 -1
13 -25 1 -52 -44 -96 l-38 -37 54 2 55 1 -45 6 c-42 6 -43 7 -23 18 22 13 63
72 63 91 0 36 -66 55 -90 27z"/>
<path d="M3460 1235 c-7 -9 -10 -18 -7 -22 4 -3 9 2 13 11 8 21 51 21 62 -1
13 -25 1 -52 -44 -96 l-38 -37 54 2 55 1 -45 6 c-42 6 -43 7 -23 18 22 13 63
72 63 91 0 36 -66 55 -90 27z"/>
<path d="M4820 1165 c0 -50 4 -85 10 -85 6 0 10 14 10 32 l0 32 37 -35 c33
-29 34 -30 10 -3 -33 37 -34 44 -2 74 14 13 23 26 20 29 -3 2 -19 -11 -35 -30
l-29 -34 -1 53 c0 28 -4 52 -10 52 -6 0 -10 -35 -10 -85z"/>
<path d="M6332 1238 c-15 -15 -16 -40 0 -56 9 -9 9 -15 0 -24 -14 -14 -16 -54
-4 -62 5 -3 6 9 4 25 -4 25 0 31 17 36 l22 6 -21 14 c-13 9 -20 23 -18 36 2
18 10 22 38 22 28 0 36 -4 38 -21 2 -11 -4 -26 -12 -33 -13 -11 -12 -15 5 -32
15 -15 17 -24 9 -39 -6 -11 -8 -20 -6 -20 3 0 10 9 16 21 9 16 8 24 -5 39 -14
15 -14 21 -3 39 9 16 10 26 2 39 -13 21 -64 28 -82 10z"/>
<path d="M6482 1238 c-7 -7 -12 -16 -12 -22 0 -5 6 -2 13 8 21 28 61 17 65
-17 3 -22 -6 -38 -41 -73 l-44 -44 56 2 c51 1 52 2 13 5 l-43 4 35 40 c50 55
46 109 -9 109 -12 0 -26 -5 -33 -12z"/>
<path d="M1100 1160 c0 -47 4 -80 10 -80 6 0 10 15 10 34 0 24 5 36 18 39 16
4 16 5 0 6 -14 1 -18 10 -18 37 0 34 1 35 33 32 25 -2 33 -8 35 -27 2 -13 -2
-28 -10 -33 -10 -8 -10 -9 2 -5 19 5 25 44 10 63 -7 8 -30 14 -51 14 l-39 0 0
-80z"/>
<path d="M1740 1161 c0 -97 19 -111 22 -16 0 36 1 70 2 77 1 6 -5 13 -11 16
-10 3 -13 -17 -13 -77z"/>
<path d="M1870 1199 c-12 -23 -19 -43 -17 -45 2 -3 11 10 18 28 l14 33 6 -70
5 -70 2 83 c1 45 0 82 -3 82 -2 0 -14 -18 -25 -41z"/>
<path d="M2821 1228 c0 -9 -7 -19 -13 -21 -10 -4 -10 -6 0 -6 8 -1 12 -18 12
-51 0 -41 4 -51 23 -60 20 -10 20 -10 5 3 -13 10 -18 28 -18 60 0 35 4 47 18
50 15 4 15 5 0 6 -9 0 -19 9 -21 19 -4 15 -5 15 -6 0z"/>
<path d="M4062 1158 c1 -46 3 -66 5 -46 3 28 9 38 26 41 l22 4 -22 2 c-19 1
-23 7 -23 37 0 35 1 35 37 32 44 -3 57 -32 27 -56 -11 -8 -13 -12 -5 -10 8 2
19 12 25 21 18 28 -5 52 -53 55 l-41 3 2 -83z"/>
<path d="M5280 1161 c0 -97 19 -111 22 -16 0 36 1 70 2 77 1 6 -5 13 -11 16
-10 3 -13 -17 -13 -77z"/>
<path d="M5410 1199 c-12 -23 -19 -43 -17 -45 2 -3 11 10 18 28 l14 33 6 -70
5 -70 2 83 c1 45 0 82 -3 82 -2 0 -14 -18 -25 -41z"/>
<path d="M1243 1145 c0 -38 2 -53 4 -32 2 20 2 52 0 70 -2 17 -4 1 -4 -38z"/>
<path d="M1318 1203 c17 -2 32 -7 32 -11 0 -4 -14 -27 -30 -52 -16 -25 -30
-48 -30 -52 0 -5 19 -7 43 -6 36 1 38 2 10 5 -18 2 -33 9 -33 14 0 6 14 30 30
54 17 24 30 46 30 49 0 3 -19 5 -42 4 -37 -1 -39 -2 -10 -5z"/>
<path d="M1428 1203 c17 -2 32 -7 32 -11 0 -4 -14 -27 -30 -52 -16 -25 -30
-48 -30 -52 0 -5 19 -7 43 -6 36 1 38 2 10 5 -18 2 -33 9 -33 14 0 6 14 30 30
54 17 24 30 46 30 49 0 3 -19 5 -42 4 -37 -1 -39 -2 -10 -5z"/>
<path d="M1530 1190 c-11 -11 -20 -30 -20 -43 0 -22 37 -67 55 -67 4 0 -4 11
-19 25 -14 13 -26 29 -26 35 0 21 21 51 43 60 17 7 18 9 5 9 -10 1 -27 -8 -38
-19z"/>
<path d="M1620 1166 c0 -35 -5 -48 -22 -60 -12 -9 -17 -16 -11 -16 7 0 15 5
19 12 5 8 10 6 15 -8 5 -12 8 7 8 49 1 37 -1 67 -4 67 -3 0 -5 -20 -5 -44z"/>
<path d="M1960 1190 c-11 -11 -20 -30 -20 -43 0 -22 37 -67 55 -67 4 0 -4 11
-19 25 -14 13 -26 29 -26 35 0 21 21 51 43 60 17 7 18 9 5 9 -10 1 -27 -8 -38
-19z"/>
<path d="M2050 1166 c0 -35 -5 -48 -22 -60 -12 -9 -17 -16 -11 -16 7 0 15 5
19 12 5 8 10 6 15 -8 5 -12 8 7 8 49 1 37 -1 67 -4 67 -3 0 -5 -20 -5 -44z"/>
<path d="M2110 1145 c0 -37 4 -65 10 -65 6 0 10 22 10 49 0 39 4 52 23 65 l22
17 -22 -11 c-16 -7 -23 -7 -23 0 0 5 -4 10 -10 10 -6 0 -10 -28 -10 -65z"/>
<path d="M2217 1192 c-26 -29 -22 -78 8 -98 14 -9 28 -14 32 -10 3 3 1 6 -5 6
-20 0 -42 31 -42 61 0 24 6 33 33 44 25 11 27 14 11 15 -11 0 -28 -8 -37 -18z"/>
<path d="M2312 1196 c-2 -15 -5 -16 -17 -6 -13 11 -14 10 -2 -13 18 -34 15
-126 -4 -138 -21 -13 -46 -11 -63 7 -9 8 -16 11 -16 5 0 -17 40 -33 66 -27 35
9 45 38 41 119 -1 39 -4 64 -5 53z"/>
<path d="M2430 1197 c21 -10 26 -22 31 -67 l6 -55 1 51 c2 52 -17 84 -49 84
-8 0 -3 -6 11 -13z"/>
<path d="M2530 1190 c-27 -27 -25 -62 5 -90 21 -20 30 -22 52 -14 14 5 29 16
31 24 4 11 0 11 -16 -3 -25 -23 -50 -19 -70 11 -14 22 -14 22 42 22 55 0 57 1
51 23 -15 47 -61 61 -95 27z m66 2 c6 -4 13 -15 17 -24 6 -16 0 -18 -43 -18
-52 0 -60 8 -34 34 16 17 42 20 60 8z"/>
<path d="M2670 1145 c0 -38 2 -66 4 -64 8 7 10 118 3 126 -4 3 -7 -24 -7 -62z"/>
<path d="M2763 1145 c0 -38 2 -53 4 -32 2 20 2 52 0 70 -2 17 -4 1 -4 -38z"/>
<path d="M2917 1192 c-26 -29 -22 -78 8 -98 14 -9 28 -14 32 -10 3 3 1 6 -5 6
-20 0 -42 31 -42 61 0 24 6 33 33 44 25 11 27 14 11 15 -11 0 -28 -8 -37 -18z"/>
<path d="M3010 1194 c0 -14 -2 -15 -17 -3 -16 12 -17 12 -5 -2 6 -9 14 -35 16
-58 7 -68 16 -60 16 12 0 37 -2 67 -5 67 -3 0 -5 -7 -5 -16z"/>
<path d="M4210 1190 c-11 -11 -20 -30 -20 -43 0 -22 37 -67 55 -67 4 0 -4 11
-19 25 -14 13 -26 29 -26 35 0 21 21 51 43 60 17 7 18 9 5 9 -10 1 -27 -8 -38
-19z"/>
<path d="M4300 1166 c0 -35 -5 -48 -22 -60 -12 -9 -17 -16 -11 -16 7 0 15 5
19 12 5 8 10 6 15 -8 5 -12 8 7 8 49 1 37 -1 67 -4 67 -3 0 -5 -20 -5 -44z"/>
<path d="M4360 1145 c0 -38 2 -66 4 -64 8 7 10 118 3 126 -4 3 -7 -24 -7 -62z"/>
<path d="M4423 1198 c25 -9 27 -14 27 -64 0 -30 5 -54 10 -54 16 0 12 83 -6
108 -8 12 -25 22 -37 21 -19 0 -19 -2 6 -11z"/>
<path d="M4573 1198 c15 -5 27 -14 27 -19 0 -5 5 -9 12 -9 6 0 3 9 -7 20 -10
11 -28 20 -39 19 -18 0 -16 -2 7 -11z"/>
<path d="M4670 1190 c-11 -11 -20 -30 -20 -43 0 -22 37 -67 55 -67 4 0 -4 11
-19 25 -14 13 -26 29 -26 35 0 21 21 51 43 60 17 7 18 9 5 9 -10 1 -27 -8 -38
-19z"/>
<path d="M4760 1166 c0 -35 -5 -48 -22 -60 -12 -9 -17 -16 -11 -16 7 0 15 5
19 12 5 8 10 6 15 -8 5 -12 8 7 8 49 1 37 -1 67 -4 67 -3 0 -5 -20 -5 -44z"/>
<path d="M4960 1190 c-27 -27 -25 -62 5 -90 21 -20 30 -22 52 -14 14 5 29 16
31 24 4 11 0 11 -16 -3 -25 -23 -50 -19 -70 11 -14 22 -14 22 42 22 55 0 57 1
51 23 -15 47 -61 61 -95 27z m66 2 c6 -4 13 -15 17 -24 6 -16 0 -18 -43 -18
-52 0 -60 8 -34 34 16 17 42 20 60 8z"/>
<path d="M5102 1198 c-21 -21 -13 -39 22 -53 43 -18 50 -29 30 -46 -12 -10
-20 -10 -35 -1 -27 17 -38 14 -15 -3 25 -19 41 -19 60 0 21 22 10 42 -30 55
-36 12 -45 36 -18 47 9 3 25 1 35 -6 11 -6 19 -7 19 -2 0 20 -50 27 -68 9z"/>
<path d="M5500 1190 c-11 -11 -20 -30 -20 -43 0 -22 37 -67 55 -67 4 0 -4 11
-19 25 -14 13 -26 29 -26 35 0 21 21 51 43 60 17 7 18 9 5 9 -10 1 -27 -8 -38
-19z"/>
<path d="M5590 1166 c0 -35 -5 -48 -22 -60 -12 -9 -17 -16 -11 -16 7 0 15 5
19 12 5 8 10 6 15 -8 5 -12 8 7 8 49 1 37 -1 67 -4 67 -3 0 -5 -20 -5 -44z"/>
<path d="M5650 1145 c0 -37 4 -65 10 -65 6 0 10 28 10 65 0 37 -4 65 -10 65
-6 0 -10 -28 -10 -65z"/>
<path d="M5722 1198 c-21 -21 -13 -39 22 -53 43 -18 50 -29 30 -46 -12 -10
-20 -10 -35 -1 -27 17 -38 14 -15 -3 25 -19 41 -19 60 0 21 22 10 42 -30 55
-36 12 -45 36 -18 47 9 3 25 1 35 -6 11 -6 19 -7 19 -2 0 20 -50 27 -68 9z"/>
<path d="M5851 1186 c-29 -30 -24 -63 12 -90 26 -19 30 -19 55 -5 37 20 43 80
10 103 -31 22 -51 20 -77 -8z m73 -2 c24 -23 20 -61 -8 -79 -47 -31 -93 22
-62 70 19 29 47 32 70 9z"/>
<path d="M5990 1145 c0 -37 4 -65 10 -65 6 0 10 28 10 65 0 37 -4 65 -10 65
-6 0 -10 -28 -10 -65z"/>
<path d="M6060 1197 c21 -10 26 -22 31 -67 l6 -55 1 52 c2 54 -14 83 -46 83
-12 0 -9 -4 8 -13z"/>
<path d="M1771 1195 c0 -5 8 -26 19 -45 11 -19 19 -30 19 -25 0 6 -8 26 -19
45 -11 19 -19 31 -19 25z"/>
<path d="M4522 1188 c-18 -18 -15 -74 6 -89 14 -11 15 -11 5 1 -16 18 -17 72
-1 88 7 7 10 12 7 12 -3 0 -10 -5 -17 -12z"/>
<path d="M5311 1195 c0 -5 8 -26 19 -45 11 -19 19 -30 19 -25 0 6 -8 26 -19
45 -11 19 -19 31 -19 25z"/>
<path d="M1829 1120 c-9 -10 -13 -23 -10 -29 5 -7 12 -2 20 15 14 32 11 36
-10 14z"/>
<path d="M5369 1120 c-9 -10 -13 -23 -10 -29 5 -7 12 -2 20 15 14 32 11 36
-10 14z"/>
<path d="M4600 1111 c0 -5 -12 -14 -27 -19 -16 -6 -21 -11 -12 -11 9 -1 27 8
40 19 13 10 18 19 12 20 -7 0 -13 -4 -13 -9z"/>
<path d="M6358 1083 c6 -2 18 -2 25 0 6 3 1 5 -13 5 -14 0 -19 -2 -12 -5z"/>
</g>
</svg>
